<svg id="svg" version="1.1" width="400" height="400" viewBox="0 0 400 400" xmlns="http://www.w3.org/2000/svg" xmlns:xlink="http://www.w3.org/1999/xlink"><g id="svgg"><path id="path0" d="M7.062 96.500 C 7.304 96.892,392.696 96.892,392.938 96.500 C 393.040 96.335,306.218 96.200,200.000 96.200 C 93.782 96.200,6.960 96.335,7.062 96.500 M6.981 103.705 C 6.255 105.598,7.035 345.492,7.770 346.229 C 8.962 347.423,7.203 347.414,206.029 347.200 C 388.493 347.003,391.469 346.988,392.229 346.229 C 392.987 345.470,393.000 343.429,393.000 224.429 L 393.000 103.400 200.088 103.300 C 44.912 103.219,7.137 103.298,6.981 103.705 " stroke="none" fill="#88cbf3" fill-rule="evenodd"></path><path id="path1" d="M18.800 43.625 C 15.671 44.177,15.042 44.421,12.818 45.952 C 6.949 49.992,6.770 50.899,6.896 75.815 L 7.000 96.200 200.000 96.200 L 393.000 96.200 392.995 91.600 C 392.987 84.905,390.682 80.893,385.262 78.146 L 383.000 77.000 264.600 76.800 C 150.487 76.607,146.120 76.573,144.000 75.855 C 139.108 74.200,134.474 71.119,131.721 67.692 C 130.884 66.652,130.099 65.710,129.976 65.600 C 129.852 65.490,127.528 62.117,124.812 58.104 C 117.383 47.132,114.335 44.393,108.635 43.568 C 105.624 43.133,21.289 43.185,18.800 43.625 " stroke="none" fill="#b3e3fb" fill-rule="evenodd"></path><path id="path2" d="M0.000 222.200 C 0.000 343.411,0.063 350.703,1.084 346.800 C 1.402 345.585,6.800 345.679,6.800 346.899 C 6.800 347.687,9.141 349.546,10.667 349.970 C 12.829 350.570,387.171 350.570,389.333 349.970 C 390.859 349.546,393.200 347.687,393.200 346.899 C 393.200 345.679,398.598 345.585,398.916 346.800 C 399.937 350.703,400.000 343.411,400.000 222.200 L 400.000 96.800 200.000 96.800 L 0.000 96.800 0.000 222.200 M393.246 141.800 C 393.710 214.323,393.686 340.779,393.208 343.800 C 392.835 346.155,392.544 346.822,391.375 348.000 L 389.987 349.400 200.000 349.400 L 10.013 349.400 8.625 348.000 C 7.458 346.824,7.164 346.152,6.789 343.800 C 6.159 339.846,6.383 105.747,7.020 103.700 C 7.144 103.300,45.952 103.219,200.088 103.300 L 393.000 103.400 393.246 141.800 M106.333 356.700 C 158.106 356.756,242.706 356.756,294.333 356.700 C 345.960 356.644,303.600 356.598,200.200 356.598 C 96.800 356.598,54.560 356.644,106.333 356.700 " stroke="none" fill="#70accb" fill-rule="evenodd"></path><path id="path3" d="M1.200 346.580 C 1.200 346.899,0.913 347.321,0.562 347.517 C -0.779 348.268,-0.067 355.800,1.574 358.228 C 2.880 360.159,6.196 362.800,7.315 362.800 C 7.604 362.800,8.065 363.025,8.340 363.300 C 8.739 363.699,47.605 363.800,200.000 363.800 C 352.395 363.800,391.261 363.699,391.660 363.300 C 391.935 363.025,392.396 362.800,392.685 362.800 C 393.804 362.800,397.120 360.159,398.426 358.228 C 400.067 355.800,400.779 348.268,399.438 347.517 C 399.087 347.321,398.800 346.899,398.800 346.580 C 398.800 346.145,398.260 346.000,396.633 346.000 C 394.238 346.000,393.200 346.272,393.200 346.899 C 393.200 347.687,390.859 349.546,389.333 349.970 C 387.171 350.570,12.829 350.570,10.667 349.970 C 9.141 349.546,6.800 347.687,6.800 346.899 C 6.800 346.272,5.762 346.000,3.367 346.000 C 1.740 346.000,1.200 346.145,1.200 346.580 M294.333 356.700 C 242.706 356.756,158.106 356.756,106.333 356.700 C 54.560 356.644,96.800 356.598,200.200 356.598 C 303.600 356.598,345.960 356.644,294.333 356.700 " stroke="none" fill="#6c9ab6" fill-rule="evenodd"></path><path id="path4" d="M20.602 35.997 C 20.465 36.218,19.204 36.400,17.800 36.400 C 16.396 36.400,15.136 36.580,15.000 36.800 C 14.864 37.020,14.434 37.200,14.044 37.200 C 13.087 37.200,9.550 39.017,9.875 39.341 C 10.017 39.484,9.832 39.600,9.463 39.600 C 9.094 39.600,8.228 40.140,7.537 40.800 C 6.846 41.460,6.038 42.000,5.741 42.000 C 5.443 42.000,5.200 42.206,5.200 42.457 C 5.200 42.708,4.660 43.429,4.000 44.060 C 3.340 44.691,2.800 45.460,2.800 45.770 C 2.800 46.080,2.665 46.393,2.500 46.467 C 2.335 46.540,1.750 47.410,1.200 48.400 L 0.200 50.200 0.082 73.500 L -0.036 96.800 3.482 96.800 L 7.000 96.800 6.893 76.127 C 6.755 49.484,7.263 47.765,16.400 43.992 C 18.073 43.301,103.621 42.884,108.381 43.544 C 114.327 44.368,117.287 46.991,124.812 58.104 C 127.528 62.117,129.852 65.490,129.976 65.600 C 130.099 65.710,130.884 66.652,131.721 67.692 C 134.474 71.119,139.108 74.200,144.000 75.855 C 146.120 76.573,150.487 76.607,264.600 76.800 L 383.000 77.000 385.262 78.146 C 390.779 80.942,393.000 84.890,393.000 91.899 L 393.000 96.798 396.540 96.799 L 400.081 96.800 399.940 90.020 C 399.842 85.293,399.649 83.088,399.300 82.740 C 399.025 82.465,398.800 81.916,398.800 81.520 C 398.800 81.124,398.620 80.800,398.400 80.800 C 398.180 80.800,398.000 80.530,398.000 80.200 C 398.000 79.870,397.820 79.600,397.600 79.600 C 397.380 79.600,397.200 79.422,397.200 79.205 C 397.200 78.512,393.131 74.000,392.507 74.000 C 392.311 74.000,391.802 73.675,391.375 73.278 C 390.949 72.880,390.015 72.297,389.300 71.980 C 388.585 71.664,388.000 71.269,388.000 71.102 C 388.000 70.936,387.460 70.800,386.800 70.800 C 386.140 70.800,385.600 70.620,385.600 70.400 C 385.600 70.180,384.790 70.000,383.800 70.000 C 382.810 70.000,382.000 69.820,382.000 69.600 C 382.000 69.334,342.467 69.200,264.200 69.200 C 185.933 69.200,146.400 69.066,146.400 68.800 C 146.400 68.580,145.860 68.400,145.200 68.400 C 144.540 68.400,144.000 68.220,144.000 68.000 C 144.000 67.780,143.732 67.600,143.405 67.600 C 142.065 67.600,135.075 60.653,133.632 57.888 C 133.320 57.289,132.915 56.800,132.732 56.800 C 132.550 56.800,132.400 56.564,132.400 56.275 C 132.400 55.987,132.085 55.402,131.700 54.975 C 131.315 54.549,130.745 53.705,130.432 53.100 C 130.120 52.495,129.715 52.000,129.532 52.000 C 129.350 52.000,129.200 51.764,129.200 51.475 C 129.200 51.187,128.840 50.564,128.400 50.092 C 127.960 49.620,127.600 49.046,127.600 48.817 C 127.600 48.588,127.420 48.400,127.200 48.400 C 126.980 48.400,126.800 48.130,126.800 47.800 C 126.800 47.470,126.620 47.200,126.400 47.200 C 126.180 47.200,126.000 47.012,126.000 46.782 C 126.000 46.552,125.595 45.948,125.100 45.441 C 124.605 44.933,123.825 44.086,123.367 43.559 C 122.362 42.402,120.093 40.400,119.787 40.400 C 119.666 40.400,119.180 40.040,118.708 39.600 C 118.236 39.160,117.613 38.800,117.325 38.800 C 117.036 38.800,116.800 38.620,116.800 38.400 C 116.800 38.180,116.440 38.000,116.000 38.000 C 115.560 38.000,115.200 37.820,115.200 37.600 C 115.200 37.380,114.671 37.200,114.024 37.200 C 113.377 37.200,112.736 37.020,112.600 36.800 C 112.464 36.580,111.193 36.400,109.776 36.400 C 108.356 36.400,107.200 36.224,107.200 36.007 C 107.200 35.457,20.942 35.447,20.602 35.997 M6.396 250.600 C 6.172 344.088,6.186 346.674,6.937 345.130 C 6.972 345.058,6.908 305.400,6.796 257.000 L 6.591 169.000 6.396 250.600 M393.200 254.675 C 393.200 301.759,393.117 341.434,393.017 342.841 C 392.848 345.196,392.862 345.256,393.200 343.600 C 393.568 341.791,393.754 169.621,393.388 169.255 C 393.285 169.151,393.200 207.590,393.200 254.675 M7.200 346.322 C 7.200 346.498,7.840 347.263,8.622 348.022 L 10.044 349.400 200.016 349.400 L 389.987 349.400 391.473 347.913 C 392.291 347.096,392.824 346.291,392.658 346.125 C 392.492 345.959,392.193 346.088,391.993 346.412 C 391.674 346.928,368.815 347.025,206.115 347.200 C 16.251 347.405,8.390 347.377,8.099 346.500 C 7.917 345.950,7.200 345.808,7.200 346.322 " stroke="none" fill="#91bcd5" fill-rule="evenodd"></path></g></svg>