<svg id="svg" version="1.1" width="400" height="400" viewBox="0 0 400 400" xmlns="http://www.w3.org/2000/svg" xmlns:xlink="http://www.w3.org/1999/xlink"><g id="svgg"><path id="path0" d="M105.439 47.138 C 105.300 47.361,105.382 47.665,105.620 47.812 C 106.235 48.193,106.632 47.672,106.118 47.158 C 105.831 46.871,105.607 46.864,105.439 47.138 M118.400 55.237 C 118.400 55.551,118.805 56.056,119.300 56.360 L 120.200 56.913 119.404 55.957 C 118.967 55.430,118.562 54.925,118.504 54.833 C 118.447 54.742,118.400 54.923,118.400 55.237 M59.832 57.860 C 59.493 58.744,59.777 58.950,60.362 58.245 C 60.646 57.903,60.686 57.577,60.461 57.438 C 60.254 57.310,59.971 57.499,59.832 57.860 M56.875 61.984 C 55.892 63.314,55.812 63.600,56.424 63.600 C 56.657 63.600,56.744 63.432,56.617 63.228 C 56.491 63.023,56.569 62.743,56.791 62.605 C 57.201 62.352,58.145 60.800,57.889 60.800 C 57.813 60.800,57.357 61.333,56.875 61.984 M54.700 65.357 C 54.315 65.649,54.000 65.998,54.000 66.132 C 54.000 66.582,55.136 65.944,55.357 65.369 C 55.620 64.683,55.589 64.682,54.700 65.357 M132.493 86.000 C 132.493 86.770,132.575 87.085,132.676 86.700 C 132.776 86.315,132.776 85.685,132.676 85.300 C 132.575 84.915,132.493 85.230,132.493 86.000 M65.880 120.253 C 65.563 120.570,66.961 121.660,68.800 122.529 L 70.200 123.192 69.256 122.396 C 68.736 121.958,68.031 121.600,67.689 121.600 C 67.347 121.600,67.178 121.489,67.314 121.352 C 67.450 121.216,67.313 120.856,67.010 120.552 C 66.388 119.931,66.241 119.892,65.880 120.253 M103.200 126.600 C 102.566 127.363,103.161 127.356,104.176 126.587 C 104.798 126.117,104.828 126.000,104.325 126.000 C 103.980 126.000,103.474 126.270,103.200 126.600 M91.000 147.603 L 69.000 147.817 91.300 147.895 C 105.457 147.945,113.600 147.833,113.600 147.587 C 113.600 147.374,113.465 147.243,113.300 147.295 C 113.135 147.347,103.100 147.486,91.000 147.603 M185.800 147.605 L 162.200 147.810 186.500 147.905 C 199.865 147.957,210.800 147.931,210.800 147.847 C 210.800 147.443,207.787 147.414,185.800 147.605 M58.400 157.300 C 58.215 200.129,58.291 345.600,58.498 345.600 C 58.662 345.600,58.797 303.210,58.797 251.400 C 58.797 199.590,58.707 157.200,58.598 157.200 C 58.489 157.200,58.400 157.245,58.400 157.300 M328.003 158.300 C 328.005 158.465,328.477 158.818,329.052 159.085 C 330.074 159.560,330.082 159.553,329.387 158.785 C 328.665 157.988,327.997 157.754,328.003 158.300 M223.478 168.023 C 223.302 168.698,223.365 168.761,223.831 168.374 C 224.468 167.846,224.586 167.200,224.047 167.200 C 223.852 167.200,223.596 167.570,223.478 168.023 M349.600 190.553 C 349.600 190.883,349.780 191.264,350.000 191.400 C 350.220 191.536,350.400 191.377,350.400 191.047 C 350.400 190.717,350.220 190.336,350.000 190.200 C 349.780 190.064,349.600 190.223,349.600 190.553 M270.224 202.667 C 270.625 202.960,271.106 203.200,271.292 203.200 C 271.479 203.200,271.407 202.960,271.133 202.667 C 270.859 202.373,270.378 202.133,270.065 202.133 C 269.650 202.133,269.694 202.279,270.224 202.667 M237.024 205.013 C 236.346 205.525,236.334 205.600,236.924 205.600 C 237.296 205.600,237.600 205.409,237.600 205.176 C 237.600 204.943,237.808 204.881,238.062 205.038 C 238.348 205.215,238.415 205.148,238.238 204.862 C 237.893 204.304,237.974 204.294,237.024 205.013 M233.829 207.429 C 233.405 207.738,233.185 208.118,233.339 208.272 C 233.493 208.426,233.919 208.252,234.286 207.886 C 234.652 207.519,234.873 207.139,234.776 207.042 C 234.678 206.945,234.252 207.119,233.829 207.429 M231.149 209.900 C 230.658 210.525,230.670 210.545,231.261 210.083 C 231.801 209.661,231.960 209.661,232.130 210.083 C 232.261 210.412,232.348 210.345,232.368 209.900 C 232.386 209.515,232.242 209.200,232.049 209.200 C 231.856 209.200,231.451 209.515,231.149 209.900 M280.643 210.168 C 280.763 210.481,281.144 210.846,281.488 210.978 C 282.528 211.377,282.491 210.951,281.425 210.253 C 280.632 209.733,280.470 209.716,280.643 210.168 M356.888 235.587 C 356.869 236.247,357.014 236.885,357.210 237.006 C 357.405 237.127,357.494 236.661,357.406 235.970 C 357.195 234.297,356.930 234.102,356.888 235.587 M290.813 239.600 C 290.521 240.333,290.588 241.572,290.903 241.257 C 291.108 241.052,291.189 240.551,291.084 240.142 C 290.979 239.734,290.857 239.490,290.813 239.600 M290.888 249.600 C 290.657 265.664,290.836 347.396,291.103 347.663 C 291.369 347.929,291.360 273.028,291.091 251.600 C 290.989 243.436,290.979 243.335,290.888 249.600 M156.125 352.005 C 156.362 352.635,156.710 353.056,156.898 352.940 C 157.085 352.824,157.052 352.503,156.823 352.228 C 156.594 351.952,156.503 351.630,156.621 351.513 C 156.738 351.395,156.578 351.200,156.263 351.080 C 155.792 350.899,155.768 351.060,156.125 352.005 M353.600 353.172 C 353.600 353.377,353.195 353.602,352.700 353.673 C 352.138 353.753,351.972 353.913,352.258 354.098 C 352.510 354.262,353.140 354.043,353.658 353.611 C 354.176 353.180,354.375 352.821,354.100 352.813 C 353.825 352.806,353.600 352.967,353.600 353.172 " stroke="none" fill="#0474b4" fill-rule="evenodd"></path><path id="path1" d="M28.600 0.287 C 28.160 0.394,27.530 0.710,27.200 0.988 C 26.870 1.266,26.195 1.458,25.700 1.414 C 25.205 1.370,24.800 1.505,24.800 1.714 C 24.800 1.922,24.440 1.999,24.000 1.884 C 23.560 1.769,23.200 1.818,23.200 1.993 C 23.200 2.168,22.885 2.286,22.500 2.256 C 22.099 2.224,21.850 2.434,21.916 2.749 C 21.990 3.098,21.809 3.212,21.416 3.062 C 21.077 2.932,20.800 3.029,20.800 3.279 C 20.800 3.529,20.686 3.620,20.547 3.481 C 20.409 3.342,19.919 3.492,19.458 3.814 C 18.998 4.136,18.257 4.403,17.811 4.406 C 17.141 4.411,17.104 4.480,17.600 4.800 C 18.098 5.122,18.064 5.191,17.400 5.207 C 16.960 5.217,16.258 5.484,15.841 5.800 C 15.424 6.116,14.931 6.281,14.746 6.166 C 14.561 6.052,14.515 6.235,14.645 6.574 C 14.802 6.983,14.552 7.314,13.895 7.564 C 13.353 7.770,12.800 8.223,12.667 8.569 C 12.534 8.916,12.049 9.200,11.589 9.200 C 11.129 9.200,10.825 9.335,10.913 9.500 C 11.123 9.893,9.737 11.204,9.433 10.900 C 9.305 10.772,9.200 11.062,9.200 11.546 C 9.200 12.029,8.916 12.534,8.569 12.667 C 8.223 12.800,7.770 13.353,7.564 13.895 C 7.314 14.552,6.983 14.802,6.574 14.645 C 6.235 14.515,6.052 14.561,6.166 14.746 C 6.281 14.931,6.116 15.424,5.800 15.841 C 5.484 16.258,5.217 16.960,5.207 17.400 C 5.191 18.064,5.122 18.098,4.800 17.600 C 4.480 17.104,4.411 17.141,4.406 17.811 C 4.403 18.257,4.136 18.998,3.814 19.458 C 3.492 19.919,3.342 20.409,3.481 20.547 C 3.620 20.686,3.529 20.800,3.279 20.800 C 3.029 20.800,2.932 21.077,3.062 21.416 C 3.212 21.809,3.098 21.990,2.749 21.916 C 2.434 21.850,2.224 22.099,2.256 22.500 C 2.286 22.885,2.168 23.200,1.993 23.200 C 1.818 23.200,1.769 23.560,1.884 24.000 C 1.999 24.440,1.922 24.800,1.714 24.800 C 1.505 24.800,1.370 25.205,1.414 25.700 C 1.458 26.195,1.203 26.934,0.847 27.342 C -0.149 28.485,-0.149 371.515,0.847 372.658 C 1.203 373.066,1.458 373.805,1.414 374.300 C 1.370 374.795,1.505 375.200,1.714 375.200 C 1.922 375.200,1.999 375.560,1.884 376.000 C 1.769 376.440,1.818 376.800,1.993 376.800 C 2.168 376.800,2.286 377.115,2.256 377.500 C 2.224 377.901,2.434 378.150,2.749 378.084 C 3.098 378.010,3.212 378.191,3.062 378.584 C 2.932 378.923,3.029 379.200,3.279 379.200 C 3.529 379.200,3.620 379.314,3.481 379.453 C 3.342 379.591,3.492 380.081,3.814 380.542 C 4.136 381.002,4.403 381.743,4.406 382.189 C 4.411 382.859,4.480 382.896,4.800 382.400 C 5.122 381.902,5.191 381.936,5.207 382.600 C 5.217 383.040,5.484 383.742,5.800 384.159 C 6.116 384.576,6.281 385.069,6.166 385.254 C 6.052 385.439,6.235 385.485,6.574 385.355 C 6.983 385.198,7.314 385.448,7.564 386.105 C 7.770 386.647,8.223 387.200,8.569 387.333 C 8.916 387.466,9.200 387.951,9.200 388.411 C 9.200 388.871,9.335 389.175,9.500 389.087 C 9.893 388.877,11.204 390.263,10.900 390.567 C 10.772 390.695,11.062 390.800,11.546 390.800 C 12.029 390.800,12.534 391.084,12.667 391.431 C 12.800 391.777,13.353 392.230,13.895 392.436 C 14.552 392.686,14.802 393.017,14.645 393.426 C 14.515 393.765,14.561 393.948,14.746 393.834 C 14.931 393.719,15.424 393.884,15.841 394.200 C 16.258 394.516,16.960 394.783,17.400 394.793 C 18.064 394.809,18.098 394.878,17.600 395.200 C 17.104 395.520,17.141 395.589,17.811 395.594 C 18.257 395.597,18.998 395.864,19.458 396.186 C 19.919 396.508,20.409 396.658,20.547 396.519 C 20.686 396.380,20.800 396.471,20.800 396.721 C 20.800 396.971,21.077 397.068,21.416 396.938 C 21.809 396.788,21.990 396.902,21.916 397.251 C 21.850 397.566,22.099 397.776,22.500 397.744 C 22.885 397.714,23.200 397.832,23.200 398.007 C 23.200 398.182,23.560 398.231,24.000 398.116 C 24.440 398.001,24.800 398.078,24.800 398.286 C 24.800 398.495,25.205 398.630,25.700 398.586 C 26.195 398.542,26.934 398.797,27.342 399.153 C 28.485 400.149,371.515 400.149,372.658 399.153 C 373.066 398.797,373.805 398.542,374.300 398.586 C 374.795 398.630,375.200 398.495,375.200 398.286 C 375.200 398.078,375.560 398.001,376.000 398.116 C 376.440 398.231,376.800 398.182,376.800 398.007 C 376.800 397.832,377.115 397.714,377.500 397.744 C 377.901 397.776,378.150 397.566,378.084 397.251 C 378.010 396.902,378.191 396.788,378.584 396.938 C 378.923 397.068,379.200 396.971,379.200 396.721 C 379.200 396.471,379.314 396.380,379.453 396.519 C 379.591 396.658,380.081 396.508,380.542 396.186 C 381.002 395.864,381.743 395.597,382.189 395.594 C 382.859 395.589,382.896 395.520,382.400 395.200 C 381.902 394.878,381.936 394.809,382.600 394.793 C 383.040 394.783,383.742 394.516,384.159 394.200 C 384.576 393.884,385.069 393.719,385.254 393.834 C 385.439 393.948,385.485 393.765,385.355 393.426 C 385.198 393.017,385.448 392.686,386.105 392.436 C 386.647 392.230,387.200 391.777,387.333 391.431 C 387.466 391.084,387.951 390.800,388.411 390.800 C 388.871 390.800,389.175 390.665,389.087 390.500 C 388.877 390.107,390.263 388.796,390.567 389.100 C 390.695 389.228,390.800 388.938,390.800 388.454 C 390.800 387.971,391.084 387.466,391.431 387.333 C 391.777 387.200,392.230 386.647,392.436 386.105 C 392.686 385.448,393.017 385.198,393.426 385.355 C 393.765 385.485,393.948 385.439,393.834 385.254 C 393.719 385.069,393.884 384.576,394.200 384.159 C 394.516 383.742,394.783 383.040,394.793 382.600 C 394.809 381.936,394.878 381.902,395.200 382.400 C 395.520 382.896,395.589 382.859,395.594 382.189 C 395.597 381.743,395.864 381.002,396.186 380.542 C 396.508 380.081,396.658 379.591,396.519 379.453 C 396.380 379.314,396.471 379.200,396.721 379.200 C 396.971 379.200,397.068 378.923,396.938 378.584 C 396.788 378.191,396.902 378.010,397.251 378.084 C 397.566 378.150,397.776 377.901,397.744 377.500 C 397.714 377.115,397.832 376.800,398.007 376.800 C 398.182 376.800,398.231 376.440,398.116 376.000 C 398.001 375.560,398.078 375.200,398.286 375.200 C 398.495 375.200,398.630 374.795,398.586 374.300 C 398.542 373.805,398.797 373.066,399.153 372.658 C 400.149 371.515,400.149 28.485,399.153 27.342 C 398.797 26.934,398.542 26.195,398.586 25.700 C 398.630 25.205,398.495 24.800,398.286 24.800 C 398.078 24.800,398.001 24.440,398.116 24.000 C 398.231 23.560,398.182 23.200,398.007 23.200 C 397.832 23.200,397.714 22.885,397.744 22.500 C 397.776 22.099,397.566 21.850,397.251 21.916 C 396.902 21.990,396.788 21.809,396.938 21.416 C 397.068 21.077,396.971 20.800,396.721 20.800 C 396.471 20.800,396.380 20.686,396.519 20.547 C 396.658 20.409,396.508 19.919,396.186 19.458 C 395.864 18.998,395.597 18.257,395.594 17.811 C 395.589 17.141,395.520 17.104,395.200 17.600 C 394.878 18.098,394.809 18.064,394.793 17.400 C 394.783 16.960,394.516 16.258,394.200 15.841 C 393.884 15.424,393.719 14.931,393.834 14.746 C 393.948 14.561,393.765 14.515,393.426 14.645 C 393.017 14.802,392.686 14.552,392.436 13.895 C 392.230 13.353,391.777 12.800,391.431 12.667 C 391.084 12.534,390.800 12.049,390.800 11.589 C 390.800 11.129,390.665 10.825,390.500 10.913 C 390.107 11.123,388.796 9.737,389.100 9.433 C 389.228 9.305,388.938 9.200,388.454 9.200 C 387.971 9.200,387.466 8.916,387.333 8.569 C 387.200 8.223,386.647 7.770,386.105 7.564 C 385.448 7.314,385.198 6.983,385.355 6.574 C 385.485 6.235,385.439 6.052,385.254 6.166 C 385.069 6.281,384.576 6.116,384.159 5.800 C 383.742 5.484,383.040 5.217,382.600 5.207 C 381.936 5.191,381.902 5.122,382.400 4.800 C 382.896 4.480,382.859 4.411,382.189 4.406 C 381.743 4.403,381.002 4.136,380.542 3.814 C 380.081 3.492,379.591 3.342,379.453 3.481 C 379.314 3.620,379.200 3.529,379.200 3.279 C 379.200 3.029,378.923 2.932,378.584 3.062 C 378.191 3.212,378.010 3.098,378.084 2.749 C 378.150 2.434,377.901 2.224,377.500 2.256 C 377.115 2.286,376.800 2.168,376.800 1.993 C 376.800 1.818,376.440 1.769,376.000 1.884 C 375.560 1.999,375.200 1.922,375.200 1.714 C 375.200 1.505,374.795 1.370,374.300 1.414 C 373.805 1.458,373.066 1.203,372.658 0.847 C 371.938 0.219,31.142 -0.336,28.600 0.287 M90.011 44.384 C 89.627 44.628,90.747 44.741,93.242 44.712 C 95.343 44.687,97.282 44.803,97.550 44.969 C 97.819 45.135,98.300 45.171,98.619 45.048 C 98.939 44.925,99.200 45.010,99.200 45.236 C 99.200 45.462,99.368 45.544,99.572 45.417 C 99.777 45.291,100.053 45.362,100.185 45.576 C 100.317 45.790,100.672 45.871,100.972 45.755 C 101.273 45.640,101.638 45.738,101.783 45.973 C 101.928 46.208,102.476 46.400,103.000 46.400 C 103.524 46.400,104.074 46.596,104.222 46.835 C 104.369 47.074,104.810 47.186,105.202 47.084 C 105.605 46.978,106.365 47.316,106.957 47.865 C 107.869 48.711,108.002 48.742,108.012 48.116 C 108.024 47.438,108.046 47.438,108.432 48.100 C 108.656 48.485,109.111 48.800,109.443 48.800 C 109.776 48.800,109.942 48.971,109.813 49.179 C 109.684 49.388,109.902 49.496,110.296 49.420 C 111.046 49.276,112.901 50.517,112.583 50.950 C 112.482 51.088,112.514 51.116,112.653 51.014 C 112.791 50.912,113.262 51.078,113.698 51.384 C 114.135 51.690,114.696 51.893,114.946 51.835 C 115.196 51.778,115.264 51.807,115.098 51.900 C 114.641 52.154,115.167 52.800,115.831 52.800 C 116.152 52.800,117.412 53.745,118.631 54.900 C 119.849 56.055,121.016 57.000,121.223 57.000 C 121.430 57.000,121.555 57.127,121.500 57.283 C 121.445 57.438,121.760 57.857,122.200 58.212 C 122.640 58.568,122.777 58.747,122.505 58.609 C 122.174 58.442,122.091 58.572,122.256 59.002 C 122.392 59.356,122.759 59.548,123.072 59.428 C 123.385 59.307,123.533 59.385,123.400 59.599 C 123.268 59.814,123.544 60.397,124.014 60.895 C 125.334 62.292,126.491 63.999,126.127 64.012 C 125.947 64.019,126.115 64.208,126.500 64.432 C 126.885 64.656,127.200 65.111,127.200 65.443 C 127.200 65.798,127.391 65.929,127.662 65.762 C 127.943 65.588,128.015 65.652,127.847 65.924 C 127.695 66.170,127.937 66.737,128.385 67.185 C 128.833 67.633,129.161 68.135,129.113 68.300 C 129.065 68.465,129.251 69.230,129.527 70.000 C 129.803 70.770,129.991 71.400,129.946 71.400 C 129.902 71.400,130.103 71.846,130.395 72.391 C 130.888 73.312,131.324 74.768,131.836 77.200 C 131.952 77.750,132.177 78.830,132.337 79.600 C 132.497 80.370,132.610 81.585,132.588 82.300 C 132.566 83.015,132.651 83.600,132.775 83.600 C 132.900 83.600,132.962 84.507,132.912 85.617 C 132.846 87.095,132.953 87.568,133.311 87.387 C 133.580 87.252,133.467 87.412,133.060 87.744 C 132.590 88.126,132.440 88.539,132.649 88.873 C 133.148 89.673,133.178 90.400,132.712 90.400 C 132.461 90.400,132.384 90.945,132.518 91.775 C 132.653 92.604,132.555 93.306,132.271 93.541 C 132.012 93.756,131.827 94.667,131.859 95.566 C 131.892 96.465,131.757 97.200,131.559 97.200 C 131.362 97.200,131.200 97.639,131.200 98.176 C 131.200 98.713,131.017 99.266,130.793 99.404 C 130.570 99.542,130.482 99.809,130.599 99.998 C 130.859 100.420,129.994 102.400,129.548 102.400 C 129.371 102.400,129.330 102.672,129.457 103.005 C 129.585 103.338,129.467 103.878,129.196 104.205 C 128.924 104.532,128.814 104.800,128.951 104.800 C 129.088 104.800,128.844 105.156,128.409 105.591 C 127.974 106.026,127.723 106.656,127.852 106.991 C 128.001 107.381,127.854 107.600,127.443 107.600 C 127.089 107.600,126.819 107.735,126.843 107.900 C 126.935 108.539,126.287 110.000,125.911 110.000 C 125.693 110.000,125.616 110.264,125.740 110.587 C 125.864 110.910,125.765 111.298,125.521 111.449 C 125.233 111.627,125.190 111.539,125.400 111.200 C 125.614 110.854,125.567 110.773,125.262 110.962 C 125.008 111.119,124.800 111.602,124.800 112.036 C 124.800 112.470,124.485 112.943,124.100 113.088 C 123.049 113.483,120.000 116.874,120.000 117.647 C 120.000 117.888,119.774 117.999,119.498 117.893 C 119.222 117.787,118.765 117.948,118.482 118.250 C 118.200 118.553,118.066 118.800,118.184 118.800 C 118.303 118.800,118.085 119.131,117.700 119.537 C 117.315 119.942,116.866 120.202,116.702 120.114 C 116.538 120.027,115.818 120.505,115.102 121.176 C 114.386 121.847,113.564 122.397,113.276 122.398 C 112.983 122.399,112.878 122.603,113.038 122.862 C 113.200 123.124,113.149 123.216,112.921 123.075 C 112.699 122.938,112.176 123.084,111.759 123.400 C 111.342 123.716,110.742 123.980,110.426 123.987 C 110.110 123.994,109.406 124.405,108.861 124.900 C 108.317 125.395,108.025 125.530,108.212 125.200 C 108.513 124.672,108.468 124.670,107.836 125.182 C 107.442 125.503,106.890 125.799,106.610 125.840 C 106.330 125.881,105.448 126.224,104.649 126.603 C 103.851 126.982,102.838 127.199,102.399 127.084 C 101.921 126.959,101.600 127.072,101.600 127.366 C 101.600 127.674,101.077 127.831,100.200 127.787 C 99.430 127.749,98.800 127.865,98.800 128.046 C 98.800 128.227,98.530 128.271,98.200 128.145 C 97.870 128.018,97.600 128.075,97.600 128.270 C 97.600 128.466,97.105 128.601,96.500 128.570 C 95.895 128.539,94.954 128.680,94.408 128.882 C 93.863 129.084,93.366 129.097,93.303 128.910 C 93.241 128.723,91.212 128.624,88.795 128.691 C 85.740 128.775,84.400 128.676,84.400 128.363 C 84.400 128.116,84.136 128.016,83.813 128.140 C 83.490 128.264,83.144 128.232,83.043 128.070 C 82.943 127.908,82.269 127.730,81.546 127.675 C 80.823 127.620,80.092 127.355,79.922 127.087 C 79.689 126.721,79.611 126.737,79.606 127.149 C 79.602 127.531,79.448 127.578,79.100 127.304 C 78.825 127.088,78.060 126.782,77.400 126.624 C 76.740 126.467,75.616 126.062,74.903 125.725 C 74.190 125.388,73.326 125.220,72.982 125.351 C 72.624 125.489,72.462 125.423,72.603 125.195 C 72.737 124.978,72.612 124.797,72.324 124.794 C 71.939 124.789,71.959 124.675,72.400 124.363 C 72.870 124.029,72.767 123.975,71.920 124.109 C 71.231 124.219,70.761 124.077,70.623 123.715 C 70.503 123.404,70.224 123.261,70.003 123.398 C 69.781 123.535,69.600 123.459,69.600 123.229 C 69.600 122.999,69.015 122.555,68.300 122.242 C 67.585 121.929,66.482 121.211,65.848 120.645 C 65.214 120.080,64.511 119.731,64.286 119.870 C 64.060 120.010,63.997 119.929,64.145 119.689 C 64.293 119.450,64.052 119.001,63.609 118.691 C 63.167 118.382,62.924 118.009,63.069 117.864 C 63.214 117.719,63.104 117.600,62.823 117.600 C 62.144 117.600,60.416 115.938,60.407 115.276 C 60.403 114.988,60.220 114.864,60.000 115.000 C 59.780 115.136,59.600 115.046,59.600 114.800 C 59.600 114.554,59.420 114.464,59.200 114.600 C 58.980 114.736,58.800 114.567,58.800 114.224 C 58.800 113.881,58.485 113.597,58.100 113.594 C 57.648 113.590,57.564 113.484,57.862 113.294 C 58.173 113.096,57.878 112.547,56.962 111.619 C 56.213 110.860,55.600 109.943,55.600 109.581 C 55.600 109.220,55.219 108.581,54.754 108.162 C 53.921 107.412,53.009 105.687,53.135 105.100 C 53.171 104.935,53.026 104.800,52.813 104.800 C 52.599 104.800,52.522 104.548,52.640 104.240 C 52.758 103.933,52.634 103.545,52.365 103.379 C 52.032 103.173,51.979 103.243,52.200 103.600 C 52.410 103.939,52.367 104.027,52.079 103.849 C 51.835 103.698,51.737 103.308,51.862 102.982 C 51.987 102.656,51.895 102.155,51.657 101.868 C 51.419 101.581,51.181 100.783,51.128 100.094 C 51.066 99.271,50.889 98.960,50.613 99.189 C 50.331 99.424,50.194 98.990,50.196 97.869 C 50.198 96.951,50.020 96.230,49.800 96.267 C 49.567 96.305,49.419 95.358,49.444 94.001 C 49.474 92.439,49.342 91.724,49.044 91.839 C 48.392 92.089,48.541 82.194,49.202 81.398 C 49.475 81.069,49.526 80.800,49.316 80.800 C 49.105 80.800,48.933 80.530,48.933 80.200 C 48.933 79.870,49.113 79.600,49.333 79.600 C 49.553 79.600,49.634 79.501,49.513 79.380 C 49.392 79.259,49.458 78.494,49.659 77.680 C 49.861 76.866,50.121 75.754,50.237 75.209 C 50.354 74.663,50.642 74.097,50.879 73.951 C 51.116 73.805,51.219 73.211,51.108 72.632 C 50.979 71.957,51.116 71.463,51.489 71.254 C 51.810 71.075,52.052 70.807,52.028 70.660 C 52.004 70.512,52.293 69.809,52.671 69.096 C 53.049 68.383,53.312 67.486,53.255 67.103 C 53.182 66.615,53.339 66.478,53.780 66.648 C 54.238 66.823,54.342 66.714,54.162 66.245 C 54.026 65.890,54.114 65.600,54.357 65.600 C 54.601 65.600,54.800 65.346,54.800 65.036 C 54.800 64.726,55.520 63.561,56.400 62.448 C 57.280 61.334,58.000 60.118,58.000 59.745 C 58.000 59.372,58.117 59.183,58.259 59.326 C 58.538 59.604,60.000 58.103,60.000 57.539 C 60.000 57.352,60.193 57.200,60.429 57.200 C 61.021 57.200,62.018 56.151,61.714 55.848 C 61.578 55.711,61.711 55.600,62.010 55.600 C 62.309 55.600,63.273 54.835,64.152 53.900 C 65.031 52.965,65.618 52.423,65.455 52.695 C 65.255 53.029,65.356 53.115,65.764 52.958 C 66.097 52.831,66.486 52.359,66.629 51.910 C 66.802 51.363,66.983 51.250,67.179 51.566 C 67.393 51.912,67.607 51.874,67.981 51.423 C 68.261 51.085,68.650 50.907,68.845 51.028 C 69.040 51.149,69.200 51.057,69.200 50.824 C 69.200 50.591,69.451 50.400,69.757 50.400 C 70.064 50.400,70.425 50.111,70.561 49.758 C 70.696 49.406,71.062 49.215,71.374 49.335 C 71.686 49.454,72.157 49.293,72.420 48.976 C 72.683 48.659,73.157 48.400,73.473 48.400 C 73.789 48.400,73.947 48.238,73.825 48.040 C 73.702 47.842,74.130 47.716,74.776 47.761 C 75.422 47.806,75.860 47.698,75.751 47.521 C 75.642 47.345,75.833 47.200,76.176 47.200 C 76.519 47.200,76.800 46.896,76.800 46.524 C 76.800 45.931,76.878 45.943,77.430 46.624 C 77.776 47.051,77.945 47.175,77.806 46.900 C 77.635 46.563,77.894 46.400,78.600 46.400 C 79.331 46.400,79.557 46.249,79.347 45.900 C 79.172 45.609,79.361 45.650,79.800 46.000 C 80.239 46.350,80.428 46.391,80.253 46.100 C 79.970 45.629,80.615 45.411,81.855 45.560 C 82.105 45.590,82.825 45.405,83.455 45.150 C 84.085 44.894,85.635 44.694,86.900 44.704 C 88.166 44.714,89.301 44.560,89.424 44.361 C 89.547 44.163,89.862 44.003,90.124 44.006 C 90.414 44.010,90.371 44.157,90.011 44.384 M284.343 144.444 C 284.044 144.633,283.989 144.791,284.220 144.794 C 284.451 144.797,284.856 144.584,285.120 144.320 C 285.493 143.947,285.600 143.958,285.600 144.369 C 285.600 144.800,285.726 144.796,286.277 144.349 C 286.649 144.047,286.830 144.007,286.679 144.259 C 286.479 144.591,287.376 144.710,289.926 144.688 C 291.863 144.672,293.617 144.747,293.824 144.855 C 294.031 144.963,294.785 145.040,295.500 145.026 C 296.215 145.012,296.800 145.113,296.800 145.251 C 296.800 145.388,297.517 145.491,298.394 145.478 C 299.271 145.465,300.126 145.606,300.294 145.791 C 300.462 145.977,300.347 145.982,300.038 145.802 C 299.648 145.576,299.569 145.626,299.779 145.966 C 299.957 146.254,300.733 146.408,301.664 146.341 C 302.534 146.278,303.370 146.401,303.523 146.613 C 303.777 146.968,304.420 147.132,306.600 147.400 C 307.040 147.454,307.400 147.535,307.400 147.580 C 307.400 147.624,307.670 147.725,308.000 147.803 C 309.312 148.112,311.416 149.022,311.694 149.400 C 311.856 149.620,311.991 149.683,311.994 149.539 C 312.005 149.078,315.598 150.344,316.892 151.265 C 317.581 151.756,318.013 151.944,317.851 151.683 C 317.657 151.369,317.767 151.289,318.177 151.446 C 318.517 151.577,318.696 151.845,318.574 152.042 C 318.452 152.239,318.543 152.422,318.776 152.450 C 319.804 152.571,319.950 152.616,320.233 152.900 C 320.398 153.065,320.863 153.200,321.267 153.200 C 321.670 153.200,322.000 153.341,322.000 153.514 C 322.000 153.846,324.379 155.379,324.915 155.392 C 325.088 155.396,325.358 155.604,325.515 155.854 C 325.672 156.103,326.160 156.380,326.600 156.468 C 327.092 156.567,327.355 156.893,327.282 157.315 C 327.203 157.776,327.431 158.000,327.979 158.000 C 328.427 158.000,329.271 158.535,329.853 159.189 C 330.436 159.843,331.067 160.282,331.256 160.165 C 331.445 160.048,331.600 160.233,331.600 160.576 C 331.600 161.147,332.080 161.385,332.930 161.237 C 333.111 161.206,333.153 161.352,333.023 161.563 C 332.893 161.773,333.162 162.208,333.621 162.530 C 334.228 162.955,334.312 163.172,333.928 163.326 C 333.573 163.468,333.625 163.547,334.086 163.568 C 334.784 163.601,335.858 165.099,335.662 165.768 C 335.603 165.970,335.864 165.880,336.242 165.568 C 336.838 165.076,336.904 165.078,336.739 165.579 C 336.633 165.900,337.306 166.962,338.248 167.959 C 339.183 168.949,339.860 169.904,339.751 170.080 C 339.642 170.256,339.743 170.400,339.976 170.400 C 340.209 170.400,340.400 170.782,340.400 171.249 C 340.400 171.972,340.492 172.021,341.023 171.581 C 341.365 171.297,341.597 171.230,341.539 171.432 C 341.374 172.000,342.866 174.884,343.901 176.000 C 344.411 176.550,344.749 177.315,344.652 177.701 C 344.554 178.086,344.638 178.300,344.837 178.177 C 345.037 178.054,345.200 178.143,345.200 178.376 C 345.200 179.158,345.317 179.397,345.960 179.930 C 346.463 180.346,346.472 180.403,346.000 180.195 C 345.670 180.050,345.829 180.280,346.354 180.708 C 346.993 181.229,347.158 181.579,346.851 181.768 C 346.525 181.970,346.573 182.230,347.020 182.677 C 347.364 183.021,347.544 183.570,347.418 183.896 C 347.262 184.305,347.379 184.417,347.795 184.257 C 348.231 184.090,348.400 184.293,348.400 184.984 C 348.400 185.511,348.625 186.181,348.900 186.471 C 349.175 186.762,349.415 187.315,349.433 187.700 C 349.524 189.608,349.640 190.000,350.113 190.000 C 350.416 190.000,350.607 190.443,350.579 191.081 C 350.553 191.676,350.763 192.608,351.045 193.153 C 351.328 193.697,351.455 194.311,351.328 194.516 C 351.201 194.721,351.305 195.018,351.558 195.174 C 351.812 195.331,352.044 196.113,352.074 196.911 C 352.104 197.710,352.359 198.452,352.641 198.561 C 352.951 198.679,353.080 199.169,352.966 199.796 C 352.859 200.389,353.020 201.077,353.342 201.399 C 353.659 201.717,353.855 202.538,353.791 203.281 C 353.728 204.007,353.870 204.835,354.106 205.123 C 354.343 205.411,354.555 206.491,354.578 207.523 C 354.602 208.555,354.785 209.663,354.986 209.985 C 355.188 210.307,355.311 211.176,355.261 211.918 C 355.204 212.765,355.325 213.170,355.585 213.009 C 355.813 212.868,356.000 212.928,356.000 213.143 C 356.000 213.358,355.794 213.602,355.543 213.686 C 355.208 213.797,355.202 214.056,355.519 214.649 C 355.758 215.095,355.993 216.571,356.042 217.930 C 356.094 219.381,356.310 220.403,356.566 220.406 C 356.811 220.410,356.773 220.556,356.479 220.743 C 355.922 221.096,355.967 222.031,356.561 222.461 C 356.760 222.605,356.893 224.639,356.858 226.981 C 356.820 229.447,356.978 231.586,357.233 232.063 C 357.533 232.622,357.543 233.017,357.266 233.294 C 357.004 233.556,356.991 234.049,357.228 234.674 C 357.488 235.358,357.468 235.565,357.159 235.375 C 356.853 235.186,356.858 235.361,357.175 235.954 C 357.801 237.122,357.797 348.431,357.172 348.817 C 356.938 348.962,356.704 349.368,356.653 349.721 C 356.601 350.073,356.239 350.714,355.849 351.146 C 355.459 351.577,355.091 352.261,355.032 352.665 C 354.972 353.069,354.722 353.400,354.475 353.400 C 354.228 353.400,353.660 353.713,353.213 354.096 C 352.766 354.479,352.400 354.682,352.400 354.547 C 352.400 354.412,352.142 354.516,351.827 354.777 C 351.397 355.134,344.958 355.243,325.983 355.214 C 307.443 355.186,300.563 355.299,300.156 355.637 C 299.850 355.890,299.600 355.926,299.600 355.716 C 299.600 355.505,299.375 355.314,299.100 355.290 C 298.825 355.266,298.330 355.165,298.000 355.065 C 295.995 354.455,295.600 354.269,295.600 353.930 C 295.600 353.722,295.420 353.664,295.200 353.800 C 294.980 353.936,294.800 353.887,294.800 353.691 C 294.800 353.495,294.356 353.098,293.814 352.807 C 293.271 352.517,292.922 352.127,293.037 351.940 C 293.153 351.753,293.046 351.600,292.800 351.600 C 292.554 351.600,292.456 351.432,292.583 351.228 C 292.709 351.023,292.627 350.740,292.400 350.600 C 292.173 350.460,292.114 350.132,292.270 349.872 C 292.463 349.551,292.355 349.561,291.931 349.904 C 291.394 350.339,291.326 350.258,291.429 349.312 C 291.496 348.709,291.384 348.114,291.181 347.988 C 290.959 347.851,290.804 325.714,290.792 292.380 C 290.779 257.294,290.632 237.220,290.392 237.600 C 290.058 238.128,290.012 238.126,290.006 237.580 C 290.003 237.239,290.216 236.744,290.480 236.480 C 290.851 236.109,290.852 236.000,290.482 236.000 C 290.163 236.000,290.021 235.269,290.054 233.804 C 290.083 232.559,289.888 231.347,289.604 231.004 C 289.198 230.515,289.207 230.399,289.651 230.394 C 290.115 230.389,290.114 230.333,289.649 230.039 C 289.346 229.847,289.209 229.510,289.344 229.290 C 289.480 229.070,289.317 228.663,288.981 228.384 C 288.598 228.066,288.438 227.455,288.551 226.739 C 288.649 226.113,288.604 225.600,288.451 225.600 C 288.297 225.600,288.152 225.285,288.128 224.900 C 288.064 223.880,287.692 222.471,287.335 221.898 C 287.164 221.624,287.077 220.994,287.141 220.499 C 287.210 219.965,287.001 219.498,286.629 219.356 C 286.283 219.223,286.000 218.898,286.000 218.633 C 286.000 218.368,285.685 217.802,285.300 217.375 C 284.915 216.949,284.538 216.247,284.463 215.816 C 284.304 214.906,282.847 212.939,282.474 213.130 C 282.334 213.202,282.147 213.041,282.058 212.774 C 281.965 212.496,282.089 212.408,282.348 212.568 C 282.861 212.885,282.904 212.736,282.558 211.835 C 282.425 211.488,282.155 211.304,281.958 211.426 C 281.761 211.548,281.600 211.446,281.600 211.200 C 281.600 210.954,281.420 210.864,281.200 211.000 C 280.980 211.136,280.800 211.033,280.800 210.771 C 280.800 210.508,280.428 209.971,279.974 209.577 C 279.519 209.183,279.119 208.712,279.084 208.530 C 278.976 207.968,277.844 206.800,277.407 206.800 C 277.179 206.800,276.502 206.346,275.904 205.791 C 275.306 205.237,274.727 204.771,274.617 204.756 C 273.656 204.629,272.800 204.240,272.800 203.930 C 272.800 203.722,272.620 203.664,272.400 203.800 C 272.180 203.936,272.000 203.846,272.000 203.600 C 272.000 203.354,271.832 203.256,271.628 203.383 C 271.423 203.509,271.140 203.427,271.000 203.200 C 270.860 202.973,270.577 202.891,270.372 203.017 C 270.168 203.144,270.000 203.060,270.000 202.831 C 270.000 202.602,269.505 202.297,268.900 202.152 C 268.295 202.008,267.540 201.690,267.223 201.445 C 266.784 201.106,266.718 201.119,266.947 201.500 C 267.112 201.775,267.067 202.000,266.847 202.000 C 266.627 202.000,266.331 201.813,266.190 201.584 C 266.048 201.355,265.589 201.277,265.169 201.410 C 264.608 201.588,264.465 201.497,264.629 201.067 C 264.814 200.587,264.334 200.485,261.927 200.496 C 260.317 200.504,258.550 200.327,258.000 200.102 C 257.450 199.878,256.829 199.796,256.620 199.920 C 256.110 200.224,254.400 200.285,254.400 199.999 C 254.400 199.874,254.053 199.771,253.629 199.771 C 253.206 199.771,252.932 199.890,253.021 200.035 C 253.111 200.179,252.423 200.398,251.492 200.520 C 249.304 200.808,248.109 201.085,247.537 201.439 C 247.241 201.622,247.186 201.547,247.382 201.229 C 247.579 200.910,247.246 200.963,246.448 201.375 C 245.766 201.728,245.071 202.020,244.904 202.026 C 243.948 202.055,242.836 202.535,243.024 202.838 C 243.143 203.032,242.952 203.080,242.598 202.944 C 242.212 202.796,241.639 203.037,241.162 203.549 C 240.461 204.301,239.650 204.597,238.700 204.447 C 238.535 204.421,238.400 204.700,238.400 205.067 C 238.400 205.433,238.297 205.631,238.172 205.505 C 237.631 204.964,232.400 208.922,232.400 209.872 C 232.400 210.149,232.175 210.288,231.900 210.183 C 231.620 210.075,231.164 210.522,230.865 211.198 C 230.571 211.861,230.166 212.303,229.965 212.179 C 229.764 212.054,229.600 212.206,229.600 212.516 C 229.600 212.826,229.090 213.783,228.468 214.643 C 227.845 215.503,227.418 216.455,227.520 216.759 C 227.622 217.065,227.521 217.199,227.294 217.058 C 226.826 216.769,226.282 217.885,226.622 218.436 C 226.746 218.636,226.567 218.800,226.224 218.800 C 225.881 218.800,225.600 219.065,225.600 219.388 C 225.600 219.968,224.297 222.529,223.508 223.500 C 223.285 223.775,223.213 224.000,223.348 224.000 C 223.483 224.000,223.327 224.675,223.002 225.500 C 222.677 226.325,222.331 227.450,222.235 228.000 C 222.138 228.550,222.046 229.045,222.030 229.100 C 222.013 229.155,221.987 229.335,221.971 229.500 C 221.956 229.665,221.672 230.099,221.342 230.464 C 220.928 230.922,220.792 231.703,220.905 232.969 C 221.011 234.149,220.888 234.961,220.562 235.231 C 220.283 235.463,220.071 236.198,220.089 236.864 C 220.108 237.531,219.961 238.194,219.761 238.338 C 219.562 238.482,219.367 239.500,219.328 240.600 C 219.290 241.700,219.230 242.600,219.196 242.600 C 218.546 242.600,218.126 345.388,218.773 346.167 C 219.009 346.451,219.013 346.850,218.783 347.213 C 218.143 348.225,218.320 349.059,218.987 348.176 C 219.310 347.749,219.580 347.529,219.587 347.686 C 219.594 347.843,219.041 348.608,218.359 349.386 C 217.676 350.164,217.271 350.804,217.459 350.809 C 217.646 350.814,217.350 351.189,216.800 351.644 C 216.250 352.098,216.025 352.353,216.300 352.211 C 216.575 352.069,216.800 352.143,216.800 352.376 C 216.800 352.609,216.530 352.800,216.200 352.800 C 215.870 352.800,215.600 352.980,215.600 353.200 C 215.600 353.420,215.218 353.600,214.751 353.600 C 214.089 353.600,214.000 353.718,214.344 354.133 C 214.692 354.551,214.595 354.649,213.893 354.587 C 213.402 354.544,212.799 354.666,212.554 354.858 C 211.809 355.443,159.600 355.496,159.600 354.913 C 159.600 354.644,159.349 354.522,159.042 354.639 C 158.732 354.758,158.193 354.440,157.834 353.927 C 157.477 353.417,157.008 353.000,156.792 353.000 C 156.577 353.000,156.393 352.870,156.384 352.711 C 156.375 352.551,155.747 351.478,154.988 350.326 C 154.101 348.980,153.747 348.093,153.995 347.845 C 154.243 347.597,154.235 347.283,153.971 346.965 C 153.691 346.627,153.694 346.389,153.981 346.212 C 154.272 346.032,154.370 317.048,154.301 251.476 L 154.203 157.000 153.997 251.200 L 153.792 345.400 153.796 250.200 C 153.800 155.773,153.806 154.988,154.600 153.493 C 155.792 151.248,158.137 148.405,158.651 148.582 C 158.899 148.668,159.313 148.527,159.571 148.269 C 159.829 148.011,160.616 147.782,161.320 147.759 C 162.087 147.735,162.558 147.528,162.494 147.242 C 162.416 146.892,162.594 146.876,163.168 147.183 C 164.240 147.757,208.554 147.760,209.626 147.186 C 210.181 146.889,210.400 146.901,210.400 147.229 C 210.400 147.480,210.670 147.582,211.000 147.455 C 211.330 147.329,211.600 147.407,211.600 147.630 C 211.600 147.853,211.825 147.990,212.100 147.935 C 213.182 147.717,214.874 148.431,214.651 149.012 C 214.529 149.330,214.557 149.549,214.714 149.498 C 215.250 149.326,216.685 150.598,216.969 151.498 C 217.125 151.991,217.541 152.683,217.893 153.036 C 218.245 153.388,218.533 154.199,218.533 154.838 C 218.533 155.477,218.690 156.000,218.881 156.000 C 219.072 156.000,219.042 156.348,218.814 156.774 C 218.561 157.246,218.434 160.478,218.487 165.074 L 218.573 172.600 218.800 165.000 L 219.027 157.400 219.163 164.500 C 219.315 172.354,219.316 172.389,219.600 172.426 C 220.253 172.510,221.200 171.817,221.200 171.253 C 221.200 170.890,221.567 170.363,222.016 170.083 C 222.464 169.803,222.735 169.419,222.618 169.229 C 222.501 169.039,222.674 168.781,223.002 168.654 C 223.331 168.528,223.600 168.183,223.600 167.888 C 223.600 167.592,224.145 166.948,224.811 166.455 C 225.477 165.963,225.917 165.389,225.788 165.180 C 225.658 164.971,225.742 164.800,225.973 164.800 C 226.205 164.800,226.871 164.265,227.453 163.611 C 228.036 162.957,228.712 162.542,228.956 162.688 C 229.200 162.834,229.165 162.663,228.877 162.308 C 228.420 161.744,228.470 161.688,229.277 161.866 C 230.014 162.029,230.079 161.983,229.600 161.641 C 229.085 161.273,229.102 161.211,229.724 161.206 C 230.122 161.203,230.336 161.020,230.200 160.800 C 230.064 160.580,230.199 160.400,230.501 160.400 C 230.802 160.400,231.796 159.593,232.708 158.606 C 233.796 157.432,234.582 156.895,234.989 157.051 C 235.455 157.230,235.541 157.112,235.337 156.579 C 235.157 156.111,235.215 155.962,235.507 156.143 C 235.751 156.294,236.136 156.098,236.363 155.708 C 236.590 155.319,236.784 155.180,236.794 155.400 C 236.804 155.620,236.987 155.530,237.200 155.200 C 237.509 154.722,237.589 154.713,237.594 155.154 C 237.597 155.468,237.960 155.251,238.432 154.650 C 238.890 154.068,239.406 153.680,239.580 153.788 C 239.754 153.895,240.308 153.627,240.810 153.192 C 241.312 152.756,241.977 152.400,242.288 152.400 C 242.599 152.400,243.442 151.951,244.162 151.402 C 244.882 150.853,245.585 150.519,245.726 150.659 C 245.866 150.799,246.253 150.688,246.585 150.412 C 246.918 150.136,247.471 150.019,247.816 150.151 C 248.160 150.283,248.343 150.232,248.223 150.037 C 248.018 149.706,248.798 149.207,249.876 148.979 C 252.614 148.399,255.910 147.379,255.771 147.153 C 255.675 146.998,256.042 146.919,256.587 146.979 C 257.132 147.039,257.482 146.933,257.365 146.744 C 257.137 146.375,258.174 146.244,260.364 146.364 C 261.115 146.405,261.847 146.248,261.991 146.014 C 262.136 145.780,263.232 145.570,264.427 145.548 C 265.622 145.525,266.860 145.302,267.177 145.053 C 267.636 144.692,267.691 144.722,267.447 145.200 C 267.175 145.733,267.200 145.733,267.670 145.200 C 268.069 144.748,268.928 144.626,271.151 144.707 C 272.816 144.767,274.326 144.628,274.615 144.387 C 274.972 144.091,275.208 144.089,275.388 144.381 C 275.531 144.611,276.222 144.797,276.924 144.794 C 277.895 144.789,278.057 144.695,277.600 144.400 C 277.087 144.069,277.102 144.011,277.700 144.006 C 278.085 144.003,278.400 144.186,278.400 144.414 C 278.400 144.696,278.641 144.699,279.154 144.425 C 280.070 143.935,282.800 143.986,282.800 144.493 C 282.800 144.693,283.085 144.573,283.432 144.225 C 283.780 143.877,284.249 143.707,284.475 143.846 C 284.736 144.007,284.688 144.225,284.343 144.444 M91.492 147.600 C 103.541 147.589,113.490 147.600,113.600 147.624 C 114.641 147.848,115.600 147.805,115.600 147.533 C 115.600 147.350,115.791 147.200,116.024 147.200 C 116.257 147.200,116.317 147.411,116.158 147.668 C 115.960 147.989,116.092 148.050,116.579 147.863 C 117.099 147.664,117.229 147.747,117.065 148.175 C 116.922 148.548,117.032 148.686,117.369 148.557 C 117.659 148.445,118.177 148.634,118.520 148.977 C 118.863 149.320,119.346 149.600,119.595 149.600 C 119.844 149.600,119.936 149.780,119.800 150.000 C 119.664 150.220,119.833 150.400,120.176 150.400 C 120.519 150.400,120.800 150.591,120.800 150.824 C 120.800 151.057,120.960 151.149,121.155 151.028 C 121.491 150.820,121.875 151.646,122.251 153.383 C 122.344 153.813,122.641 154.302,122.910 154.468 C 123.294 154.706,123.400 175.271,123.400 249.885 C 123.400 344.238,123.365 349.349,122.729 348.956 C 122.548 348.844,122.400 349.033,122.400 349.376 C 122.400 349.719,122.201 350.000,121.957 350.000 C 121.714 350.000,121.607 350.241,121.720 350.536 C 121.833 350.831,121.765 351.326,121.569 351.636 C 121.373 351.946,121.209 352.003,121.206 351.762 C 121.203 351.521,120.475 352.014,119.588 352.857 C 118.701 353.701,117.531 354.502,116.988 354.639 C 116.445 354.775,116.000 355.030,116.000 355.206 C 116.000 355.381,115.622 355.426,115.159 355.305 C 114.666 355.176,114.172 355.316,113.965 355.643 C 113.707 356.050,113.611 356.064,113.606 355.694 C 113.601 355.291,108.705 355.196,89.618 355.229 C 76.428 355.251,65.403 355.122,65.118 354.941 C 64.603 354.614,64.388 354.546,63.576 354.450 C 63.343 354.423,63.283 354.189,63.442 353.932 C 63.632 353.624,63.519 353.545,63.112 353.702 C 62.481 353.944,59.884 351.450,60.316 351.017 C 60.436 350.898,60.323 350.800,60.067 350.800 C 59.810 350.800,59.600 350.545,59.600 350.233 C 59.600 349.922,59.389 349.596,59.132 349.511 C 58.849 349.416,58.693 348.613,58.735 347.477 C 58.775 346.445,58.670 345.600,58.503 345.600 C 58.336 345.600,58.245 303.255,58.300 251.500 C 58.354 199.745,58.416 157.400,58.436 157.400 C 58.457 157.400,58.505 156.757,58.543 155.972 C 58.582 155.187,58.944 154.040,59.348 153.423 C 59.823 152.698,59.892 152.400,59.541 152.580 C 59.244 152.734,59.315 152.601,59.700 152.286 C 60.085 151.970,60.400 151.550,60.400 151.352 C 60.400 151.154,60.767 150.763,61.216 150.483 C 61.664 150.203,61.909 149.776,61.760 149.535 C 61.598 149.274,61.713 149.175,62.044 149.291 C 62.350 149.398,63.112 149.127,63.737 148.689 C 64.363 148.251,65.486 147.871,66.232 147.846 C 66.979 147.821,67.679 147.567,67.789 147.283 C 67.938 146.894,68.187 146.872,68.786 147.192 C 69.324 147.481,76.697 147.613,91.492 147.600 M219.100 320.700 C 219.042 334.505,218.994 323.210,218.994 295.600 C 218.994 267.990,219.042 256.695,219.100 270.500 C 219.158 284.305,219.158 306.895,219.100 320.700 " stroke="none" fill="#047cb5" fill-rule="evenodd"></path><path id="path2" d="M25.830 0.849 C 25.926 1.004,25.779 1.226,25.502 1.341 C 25.226 1.455,25.440 1.499,25.979 1.438 C 27.150 1.305,27.601 0.420,26.453 0.506 C 26.015 0.539,25.734 0.693,25.830 0.849 M372.895 0.886 C 372.976 1.129,373.483 1.377,374.021 1.438 C 374.560 1.499,374.774 1.455,374.498 1.341 C 374.221 1.226,374.074 1.004,374.170 0.849 C 374.266 0.693,373.985 0.539,373.547 0.506 C 373.108 0.473,372.815 0.644,372.895 0.886 M20.914 2.542 C 21.126 3.179,21.867 3.285,21.867 2.678 C 21.867 2.378,21.622 2.133,21.322 2.133 C 21.023 2.133,20.839 2.317,20.914 2.542 M378.133 2.678 C 378.133 3.285,378.874 3.179,379.086 2.542 C 379.161 2.317,378.977 2.133,378.678 2.133 C 378.378 2.133,378.133 2.378,378.133 2.678 M13.400 7.200 C 13.264 7.420,13.423 7.600,13.753 7.600 C 14.083 7.600,14.464 7.420,14.600 7.200 C 14.736 6.980,14.577 6.800,14.247 6.800 C 13.917 6.800,13.536 6.980,13.400 7.200 M385.400 7.200 C 385.536 7.420,385.917 7.600,386.247 7.600 C 386.577 7.600,386.736 7.420,386.600 7.200 C 386.464 6.980,386.083 6.800,385.753 6.800 C 385.423 6.800,385.264 6.980,385.400 7.200 M12.108 8.372 C 12.140 8.797,12.309 9.056,12.483 8.949 C 12.927 8.675,12.880 7.600,12.425 7.600 C 12.219 7.600,12.076 7.948,12.108 8.372 M387.200 8.176 C 387.200 9.067,387.826 9.244,387.892 8.372 C 387.924 7.948,387.781 7.600,387.575 7.600 C 387.369 7.600,387.200 7.859,387.200 8.176 M9.802 9.998 C 9.403 10.439,9.262 10.800,9.489 10.800 C 9.992 10.800,10.990 9.657,10.721 9.388 C 10.615 9.282,10.202 9.556,9.802 9.998 M389.200 9.489 C 389.200 9.992,390.343 10.990,390.612 10.721 C 390.718 10.615,390.444 10.202,390.002 9.802 C 389.561 9.403,389.200 9.262,389.200 9.489 M7.600 12.425 C 7.600 12.880,8.675 12.927,8.949 12.483 C 9.056 12.309,8.797 12.140,8.372 12.108 C 7.948 12.076,7.600 12.219,7.600 12.425 M391.051 12.483 C 391.325 12.927,392.400 12.880,392.400 12.425 C 392.400 12.219,392.052 12.076,391.628 12.108 C 391.203 12.140,390.944 12.309,391.051 12.483 M7.092 13.442 C 6.931 13.602,6.800 14.009,6.800 14.347 C 6.800 14.797,6.918 14.842,7.245 14.515 C 7.490 14.270,7.621 13.863,7.537 13.610 C 7.452 13.357,7.252 13.281,7.092 13.442 M392.400 13.753 C 392.400 14.083,392.580 14.464,392.800 14.600 C 393.020 14.736,393.200 14.577,393.200 14.247 C 393.200 13.917,393.020 13.536,392.800 13.400 C 392.580 13.264,392.400 13.423,392.400 13.753 M2.133 21.322 C 2.133 21.622,2.378 21.867,2.678 21.867 C 3.285 21.867,3.179 21.126,2.542 20.914 C 2.317 20.839,2.133 21.023,2.133 21.322 M397.067 21.067 C 396.636 21.497,396.759 21.867,397.333 21.867 C 397.627 21.867,397.867 21.627,397.867 21.333 C 397.867 20.759,397.497 20.636,397.067 21.067 M1.200 25.624 C 1.200 25.857,1.057 25.959,0.883 25.851 C 0.709 25.744,0.539 26.015,0.506 26.453 C 0.425 27.529,1.291 27.189,1.461 26.079 C 1.535 25.595,1.506 25.200,1.397 25.200 C 1.289 25.200,1.200 25.391,1.200 25.624 M398.562 25.979 C 398.695 27.150,399.580 27.601,399.494 26.453 C 399.461 26.015,399.307 25.734,399.151 25.830 C 398.996 25.926,398.774 25.779,398.659 25.502 C 398.545 25.226,398.501 25.440,398.562 25.979 M84.239 44.694 C 83.758 45.176,84.020 45.549,84.800 45.490 C 85.240 45.457,85.600 45.307,85.600 45.158 C 85.600 44.773,84.526 44.407,84.239 44.694 M96.444 44.773 C 95.771 45.189,96.250 45.440,97.900 45.537 C 98.615 45.578,99.200 45.435,99.200 45.219 C 99.200 45.002,98.928 44.930,98.595 45.057 C 98.262 45.185,97.761 45.100,97.481 44.868 C 97.198 44.632,96.739 44.590,96.444 44.773 M71.306 49.025 C 70.911 49.447,70.989 49.537,71.708 49.489 C 72.973 49.404,73.858 48.500,72.677 48.500 C 72.192 48.500,71.576 48.736,71.306 49.025 M110.238 49.754 C 110.338 50.015,110.773 50.229,111.204 50.229 C 111.714 50.229,111.852 50.092,111.598 49.838 C 111.024 49.264,110.026 49.202,110.238 49.754 M64.406 53.679 C 63.916 54.341,63.764 54.854,64.014 55.008 C 64.237 55.147,64.370 55.021,64.310 54.730 C 64.249 54.438,64.425 54.245,64.700 54.300 C 64.980 54.356,65.203 54.004,65.206 53.500 C 65.210 52.997,65.342 52.787,65.506 53.025 C 65.710 53.319,66.107 53.291,66.800 52.935 C 67.800 52.421,67.800 52.421,66.503 52.510 C 65.623 52.571,64.948 52.947,64.406 53.679 M116.000 53.324 C 116.000 53.649,116.283 54.023,116.629 54.156 C 117.068 54.324,117.219 54.196,117.129 53.732 C 116.965 52.885,116.000 52.537,116.000 53.324 M119.144 55.637 C 119.391 55.987,119.460 56.421,119.297 56.601 C 119.133 56.781,119.206 56.810,119.458 56.666 C 119.710 56.522,120.016 56.664,120.138 56.981 C 120.259 57.299,120.953 57.846,121.679 58.198 C 122.592 58.641,122.785 58.666,122.306 58.280 C 121.925 57.972,121.712 57.622,121.833 57.501 C 121.954 57.379,121.861 57.161,121.627 57.016 C 121.392 56.871,121.200 56.946,121.200 57.183 C 121.200 57.419,120.637 57.025,119.948 56.306 C 119.259 55.588,118.898 55.287,119.144 55.637 M124.825 62.200 C 124.825 62.420,125.090 62.949,125.413 63.376 C 125.736 63.804,126.000 63.973,126.000 63.753 C 126.000 63.533,125.736 63.004,125.413 62.576 C 125.090 62.149,124.825 61.980,124.825 62.200 M55.214 63.974 C 54.707 64.921,54.684 65.319,55.152 65.030 C 55.505 64.812,56.055 63.200,55.777 63.200 C 55.695 63.200,55.442 63.548,55.214 63.974 M126.000 64.800 C 126.000 65.020,126.146 65.200,126.325 65.200 C 126.504 65.200,126.895 65.822,127.193 66.582 C 127.491 67.342,127.885 67.871,128.068 67.758 C 128.250 67.645,128.400 68.013,128.400 68.576 C 128.400 69.139,128.541 69.600,128.714 69.600 C 129.317 69.600,129.023 67.823,128.300 67.100 C 127.899 66.699,127.695 66.170,127.847 65.924 C 128.004 65.669,127.944 65.587,127.707 65.734 C 127.478 65.875,127.197 65.633,127.083 65.196 C 126.872 64.387,126.000 64.069,126.000 64.800 M53.292 66.875 C 53.491 67.473,54.400 67.802,54.400 67.276 C 54.400 67.061,54.115 66.776,53.767 66.643 C 53.377 66.493,53.194 66.582,53.292 66.875 M52.414 69.574 C 51.896 70.541,51.893 70.800,52.400 70.800 C 52.620 70.800,52.800 70.455,52.800 70.033 C 52.800 69.612,53.025 69.176,53.300 69.065 C 53.677 68.913,53.680 68.855,53.314 68.832 C 53.047 68.814,52.642 69.148,52.414 69.574 M130.063 72.200 C 130.062 72.420,130.303 73.230,130.600 74.000 C 130.897 74.770,131.145 75.130,131.152 74.800 C 131.158 74.470,130.917 73.660,130.614 73.000 C 130.312 72.340,130.064 71.980,130.063 72.200 M131.600 78.953 C 131.600 79.283,131.780 79.664,132.000 79.800 C 132.220 79.936,132.400 79.777,132.400 79.447 C 132.400 79.117,132.220 78.736,132.000 78.600 C 131.780 78.464,131.600 78.623,131.600 78.953 M48.678 91.223 C 48.549 91.716,48.637 91.988,48.897 91.901 C 49.402 91.733,49.682 90.400,49.211 90.400 C 49.036 90.400,48.796 90.770,48.678 91.223 M131.338 96.203 C 130.984 96.966,130.987 97.200,131.350 97.200 C 131.612 97.200,131.863 96.750,131.908 96.200 C 132.012 94.950,131.919 94.951,131.338 96.203 M53.600 106.538 C 53.600 106.834,53.960 107.402,54.400 107.800 C 54.840 108.198,55.200 108.335,55.200 108.105 C 55.200 107.874,54.911 107.575,54.558 107.439 C 54.192 107.299,54.015 106.937,54.146 106.597 C 54.272 106.268,54.201 106.000,53.987 106.000 C 53.774 106.000,53.600 106.242,53.600 106.538 M55.600 109.475 C 55.600 109.930,55.870 110.526,56.200 110.800 C 57.014 111.476,57.005 110.505,56.187 109.424 C 55.610 108.660,55.600 108.661,55.600 109.475 M125.549 109.700 C 125.298 110.191,125.389 111.530,125.662 111.362 C 125.855 111.242,125.897 110.957,125.755 110.728 C 125.614 110.498,125.746 110.153,126.049 109.961 C 126.448 109.709,126.462 109.611,126.100 109.606 C 125.825 109.603,125.577 109.645,125.549 109.700 M124.111 111.700 C 123.258 112.803,123.206 113.128,123.898 113.029 C 124.284 112.973,124.658 112.539,124.728 112.064 C 124.873 111.086,124.676 110.970,124.111 111.700 M64.105 119.129 C 64.135 119.535,64.394 119.867,64.680 119.867 C 65.347 119.867,65.335 119.678,64.625 118.967 C 64.124 118.467,64.056 118.488,64.105 119.129 M111.100 122.957 C 110.328 123.543,110.190 124.000,110.786 124.000 C 110.998 124.000,111.365 123.640,111.600 123.200 C 112.099 122.268,112.043 122.241,111.100 122.957 M72.769 124.100 C 72.427 125.218,72.557 125.483,73.343 125.268 C 74.067 125.069,74.090 125.010,73.495 124.886 C 73.107 124.805,72.893 124.573,73.019 124.370 C 73.144 124.166,73.147 124.000,73.024 124.000 C 72.901 124.000,72.786 124.045,72.769 124.100 M106.520 125.242 C 105.816 125.446,105.111 125.820,104.954 126.074 C 104.755 126.396,104.901 126.443,105.434 126.229 C 105.855 126.061,106.427 125.884,106.704 125.837 C 106.981 125.790,107.422 125.538,107.684 125.276 C 108.221 124.739,108.256 124.740,106.520 125.242 M74.629 125.589 C 74.842 125.802,75.373 126.032,75.809 126.100 C 76.244 126.168,76.841 126.373,77.135 126.557 C 77.449 126.753,77.862 126.697,78.135 126.421 C 78.489 126.064,78.443 126.012,77.940 126.204 C 77.578 126.342,77.160 126.259,77.013 126.021 C 76.865 125.782,76.590 125.683,76.400 125.800 C 76.210 125.917,75.942 125.830,75.804 125.607 C 75.666 125.383,75.257 125.200,74.896 125.200 C 74.472 125.200,74.377 125.337,74.629 125.589 M99.846 127.317 C 99.210 127.782,99.260 127.833,100.336 127.819 C 101.250 127.806,101.435 127.684,101.118 127.301 C 100.612 126.691,100.703 126.690,99.846 127.317 M84.406 128.100 C 84.402 128.582,84.712 128.800,85.400 128.800 C 85.950 128.800,86.400 128.626,86.400 128.413 C 86.400 128.199,86.112 128.136,85.760 128.271 C 85.407 128.406,84.960 128.265,84.766 127.958 C 84.483 127.511,84.411 127.540,84.406 128.100 M93.200 128.800 C 93.200 129.269,93.507 129.269,94.600 128.800 C 95.309 128.495,95.275 128.453,94.300 128.428 C 93.695 128.413,93.200 128.580,93.200 128.800 M279.212 144.393 C 278.991 144.529,279.708 144.638,280.805 144.636 C 281.902 144.633,282.800 144.525,282.800 144.397 C 282.800 144.083,279.719 144.079,279.212 144.393 M295.400 145.200 L 294.200 145.505 295.500 145.553 C 296.215 145.579,296.800 145.420,296.800 145.200 C 296.800 144.980,296.755 144.821,296.700 144.847 C 296.645 144.873,296.060 145.032,295.400 145.200 M257.400 146.800 C 257.536 147.020,257.917 147.200,258.247 147.200 C 258.577 147.200,258.736 147.020,258.600 146.800 C 258.464 146.580,258.083 146.400,257.753 146.400 C 257.423 146.400,257.264 146.580,257.400 146.800 M67.751 147.279 C 67.585 147.548,67.659 147.611,67.938 147.438 C 68.192 147.281,68.400 147.343,68.400 147.576 C 68.400 147.809,68.580 148.000,68.800 148.000 C 69.412 148.000,69.276 147.315,68.613 147.060 C 68.290 146.936,67.902 147.035,67.751 147.279 M116.812 147.838 C 116.792 148.549,118.281 149.715,118.584 149.226 C 118.729 148.992,118.576 148.800,118.243 148.800 C 117.911 148.800,117.456 148.485,117.232 148.100 C 117.008 147.715,116.819 147.597,116.812 147.838 M213.357 148.633 C 213.491 148.981,213.600 149.341,213.600 149.433 C 213.600 149.525,213.791 149.600,214.024 149.600 C 214.257 149.600,214.336 149.420,214.200 149.200 C 214.064 148.980,214.188 148.797,214.476 148.794 C 214.857 148.789,214.836 148.682,214.400 148.400 C 213.508 147.824,213.083 147.919,213.357 148.633 M252.200 148.402 C 251.510 148.700,251.551 148.739,252.500 148.687 C 253.105 148.653,253.600 148.485,253.600 148.313 C 253.600 147.929,253.242 147.952,252.200 148.402 M61.688 149.662 C 61.749 149.958,61.562 150.151,61.270 150.090 C 60.979 150.030,60.855 150.165,60.994 150.390 C 61.133 150.616,61.057 150.800,60.824 150.800 C 60.591 150.800,60.400 151.070,60.400 151.400 C 60.400 152.290,60.952 152.127,61.420 151.100 C 61.645 150.605,62.065 150.251,62.352 150.313 C 63.000 150.452,62.734 149.511,62.063 149.287 C 61.794 149.198,61.626 149.367,61.688 149.662 M314.460 150.380 C 314.632 150.896,315.181 150.988,315.230 150.510 C 315.247 150.351,315.044 150.148,314.780 150.060 C 314.516 149.972,314.372 150.116,314.460 150.380 M244.389 151.222 C 243.435 151.955,243.430 151.983,244.251 151.991 C 245.163 152.001,246.257 151.006,245.708 150.667 C 245.526 150.555,244.933 150.804,244.389 151.222 M121.100 151.865 C 121.375 151.976,121.600 152.311,121.600 152.610 C 121.600 152.908,121.764 153.254,121.965 153.378 C 122.166 153.502,122.296 153.378,122.254 153.102 C 122.129 152.278,121.584 151.598,121.076 151.632 C 120.733 151.654,120.739 151.719,121.100 151.865 M241.200 152.818 C 240.762 153.115,240.924 153.152,241.800 152.956 C 243.271 152.627,243.590 152.398,242.567 152.406 C 242.145 152.409,241.530 152.595,241.200 152.818 M238.757 154.251 C 238.488 154.575,238.528 154.825,238.881 155.029 C 239.166 155.193,239.261 155.175,239.091 154.988 C 238.920 154.801,239.280 154.431,239.891 154.166 C 240.903 153.726,240.919 153.688,240.077 153.729 C 239.569 153.753,238.975 153.989,238.757 154.251 M322.302 154.266 C 322.579 154.377,322.726 154.596,322.630 154.751 C 322.534 154.907,322.824 155.062,323.275 155.096 C 324.066 155.155,324.069 155.138,323.347 154.591 C 322.936 154.280,322.420 154.034,322.200 154.044 C 321.980 154.055,322.026 154.154,322.302 154.266 M153.785 157.300 C 153.680 157.575,153.641 200.100,153.698 251.800 L 153.800 345.800 154.000 251.300 C 154.110 199.325,154.149 156.800,154.087 156.800 C 154.026 156.800,153.889 157.025,153.785 157.300 M218.800 164.760 C 218.800 168.930,218.974 172.378,219.206 172.811 C 219.669 173.677,220.667 173.485,220.667 172.530 C 220.667 171.965,220.613 171.968,220.181 172.559 C 219.393 173.635,219.274 172.698,219.218 164.975 C 219.190 161.047,219.084 157.751,218.983 157.650 C 218.882 157.549,218.800 160.749,218.800 164.760 M123.397 251.400 C 123.397 302.880,123.443 323.881,123.500 298.068 C 123.557 272.255,123.557 230.135,123.500 204.468 C 123.443 178.801,123.397 199.920,123.397 251.400 M332.750 161.400 C 332.443 162.627,333.058 163.629,333.916 163.300 C 334.287 163.158,334.199 162.935,333.611 162.523 C 333.158 162.205,332.890 161.778,333.017 161.573 C 333.144 161.368,333.147 161.200,333.024 161.200 C 332.901 161.200,332.778 161.290,332.750 161.400 M224.600 166.000 C 224.464 166.220,224.498 166.403,224.676 166.406 C 224.854 166.409,224.756 166.567,224.457 166.756 C 224.079 166.996,224.049 167.183,224.357 167.374 C 224.601 167.524,224.814 167.502,224.831 167.324 C 224.847 167.146,224.922 166.685,224.995 166.300 C 225.144 165.520,224.976 165.392,224.600 166.000 M223.302 168.575 C 222.809 168.848,222.511 169.178,222.641 169.308 C 222.771 169.438,222.500 169.780,222.039 170.069 C 221.578 170.357,221.200 170.931,221.200 171.345 C 221.200 171.966,221.304 172.012,221.796 171.604 C 222.123 171.332,222.299 170.961,222.187 170.779 C 222.075 170.598,222.212 170.303,222.492 170.125 C 223.017 169.789,224.649 167.970,224.362 168.039 C 224.273 168.061,223.796 168.302,223.302 168.575 M345.859 180.304 C 345.756 180.472,345.908 180.933,346.197 181.328 C 346.532 181.786,346.819 181.893,346.987 181.621 C 347.132 181.386,346.970 181.087,346.628 180.955 C 346.285 180.824,346.104 180.555,346.226 180.358 C 346.348 180.161,346.357 180.000,346.247 180.000 C 346.137 180.000,345.963 180.137,345.859 180.304 M258.832 200.300 C 258.851 200.722,258.944 200.801,259.066 200.498 C 259.177 200.221,259.433 200.097,259.634 200.221 C 259.835 200.345,260.000 200.257,260.000 200.024 C 260.000 199.791,259.730 199.600,259.400 199.600 C 259.070 199.600,258.814 199.915,258.832 200.300 M243.824 201.813 C 243.396 202.136,243.227 202.400,243.447 202.400 C 243.667 202.400,244.196 202.136,244.624 201.813 C 245.051 201.490,245.220 201.225,245.000 201.225 C 244.780 201.225,244.251 201.490,243.824 201.813 M352.860 201.980 C 353.032 202.496,353.581 202.588,353.630 202.110 C 353.647 201.951,353.444 201.748,353.180 201.660 C 352.916 201.572,352.772 201.716,352.860 201.980 M240.400 203.356 C 240.400 203.661,240.104 203.886,239.743 203.856 C 239.382 203.825,239.008 204.070,238.913 204.400 C 238.809 204.757,238.873 204.838,239.070 204.600 C 239.251 204.380,239.625 204.182,239.900 204.160 C 241.035 204.069,241.200 203.973,241.200 203.400 C 241.200 203.070,241.020 202.800,240.800 202.800 C 240.580 202.800,240.400 203.050,240.400 203.356 M273.028 203.955 C 272.908 204.150,273.154 204.399,273.575 204.509 C 274.111 204.649,274.276 204.543,274.127 204.155 C 273.886 203.525,273.354 203.428,273.028 203.955 M230.419 210.977 C 230.147 211.305,230.017 211.804,230.131 212.087 C 230.266 212.423,230.348 212.370,230.368 211.933 C 230.386 211.567,230.625 211.186,230.900 211.088 C 231.175 210.990,231.291 210.791,231.157 210.645 C 231.023 210.500,230.691 210.649,230.419 210.977 M282.800 212.424 C 282.800 212.657,282.597 212.722,282.348 212.568 C 282.081 212.403,281.967 212.501,282.070 212.809 C 282.360 213.681,283.533 213.631,283.305 212.757 C 283.090 211.935,282.800 211.743,282.800 212.424 M228.628 213.245 C 228.779 213.489,228.654 213.847,228.351 214.039 C 227.974 214.278,227.953 214.390,228.286 214.394 C 228.553 214.397,228.965 214.040,229.200 213.600 C 229.545 212.956,229.504 212.800,228.990 212.800 C 228.624 212.800,228.470 212.989,228.628 213.245 M355.200 215.110 C 355.200 215.573,355.371 216.058,355.579 216.187 C 355.789 216.317,355.884 216.036,355.792 215.557 C 355.562 214.362,355.200 214.089,355.200 215.110 M284.479 215.652 C 284.581 216.879,285.607 218.050,285.587 216.916 C 285.580 216.522,285.309 215.849,284.985 215.421 C 284.418 214.670,284.399 214.679,284.479 215.652 M356.267 222.667 C 355.763 223.171,356.001 224.000,356.649 224.000 C 357.147 224.000,357.194 223.875,356.852 223.463 C 356.607 223.168,356.525 222.808,356.670 222.663 C 356.815 222.518,356.843 222.400,356.733 222.400 C 356.623 222.400,356.413 222.520,356.267 222.667 M222.406 225.700 C 222.411 226.428,222.486 226.485,222.800 226.000 C 223.301 225.224,223.301 224.800,222.800 224.800 C 222.580 224.800,222.403 225.205,222.406 225.700 M288.492 227.002 C 288.450 227.504,288.687 228.140,289.019 228.416 C 289.536 228.845,289.608 228.739,289.526 227.668 C 289.415 226.200,288.601 225.677,288.492 227.002 M220.148 234.592 C 219.810 235.472,220.181 235.746,220.762 235.045 C 221.090 234.651,221.107 234.389,220.817 234.210 C 220.584 234.067,220.283 234.238,220.148 234.592 M290.500 236.665 C 290.225 236.776,290.014 237.167,290.032 237.533 C 290.051 237.953,290.138 238.014,290.266 237.698 C 290.377 237.421,290.633 237.297,290.834 237.421 C 291.035 237.545,291.200 237.367,291.200 237.024 C 291.200 236.681,291.155 236.414,291.100 236.432 C 291.045 236.449,290.775 236.554,290.500 236.665 M219.700 237.065 C 219.134 237.293,219.012 238.400,219.553 238.400 C 219.748 238.400,220.001 238.040,220.116 237.600 C 220.231 237.160,220.297 236.814,220.263 236.832 C 220.228 236.849,219.975 236.954,219.700 237.065 M218.994 295.600 C 218.994 323.210,219.042 334.505,219.100 320.700 C 219.158 306.895,219.158 284.305,219.100 270.500 C 219.042 256.695,218.994 267.990,218.994 295.600 M153.969 346.900 C 153.702 347.773,153.769 348.479,154.172 349.030 C 154.620 349.642,154.667 349.644,154.667 349.053 C 154.667 348.694,154.527 348.400,154.356 348.400 C 154.186 348.400,154.115 348.040,154.200 347.600 C 154.318 346.985,154.124 346.395,153.969 346.900 M218.794 348.411 C 218.555 348.857,218.189 349.117,217.980 348.988 C 217.771 348.858,217.600 348.958,217.600 349.210 C 217.600 349.461,217.810 349.597,218.066 349.511 C 218.572 349.343,219.846 347.600,219.463 347.600 C 219.334 347.600,219.033 347.965,218.794 348.411 M121.054 350.713 C 120.943 350.892,120.996 351.270,121.171 351.553 C 121.419 351.954,121.541 351.931,121.727 351.446 C 121.979 350.790,121.398 350.157,121.054 350.713 M216.460 351.068 C 215.734 351.853,216.025 352.064,216.925 351.406 C 217.322 351.115,217.502 350.788,217.324 350.680 C 217.146 350.572,216.757 350.747,216.460 351.068 M157.690 353.578 C 158.295 354.600,159.417 355.252,159.140 354.420 C 159.052 354.156,158.857 353.999,158.707 354.070 C 158.557 354.142,158.137 353.840,157.773 353.400 C 157.142 352.636,157.138 352.644,157.690 353.578 M351.200 354.600 C 350.472 355.016,350.384 355.176,350.876 355.186 C 351.248 355.194,351.666 355.017,351.804 354.793 C 351.942 354.570,352.251 354.508,352.489 354.655 C 352.749 354.815,352.809 354.737,352.638 354.462 C 352.298 353.911,352.428 353.898,351.200 354.600 M115.417 354.772 C 115.291 354.977,115.370 355.258,115.593 355.396 C 115.817 355.534,116.000 355.470,116.000 355.253 C 116.000 355.036,116.315 354.776,116.700 354.676 C 117.241 354.534,117.200 354.482,116.524 354.446 C 116.042 354.421,115.544 354.568,115.417 354.772 M0.506 373.547 C 0.539 373.985,0.693 374.266,0.849 374.170 C 1.004 374.074,1.226 374.221,1.341 374.498 C 1.455 374.774,1.499 374.560,1.438 374.021 C 1.305 372.850,0.420 372.399,0.506 373.547 M398.770 372.900 C 398.600 373.475,398.502 374.876,398.659 374.498 C 398.774 374.221,398.996 374.074,399.151 374.170 C 399.307 374.266,399.460 373.997,399.492 373.572 C 399.537 372.979,398.918 372.402,398.770 372.900 M2.133 378.678 C 2.133 379.285,2.874 379.179,3.086 378.542 C 3.161 378.317,2.977 378.133,2.678 378.133 C 2.378 378.133,2.133 378.378,2.133 378.678 M396.914 378.542 C 397.126 379.179,397.867 379.285,397.867 378.678 C 397.867 378.378,397.622 378.133,397.322 378.133 C 397.023 378.133,396.839 378.317,396.914 378.542 M6.800 385.753 C 6.800 386.083,6.980 386.464,7.200 386.600 C 7.420 386.736,7.600 386.577,7.600 386.247 C 7.600 385.917,7.420 385.536,7.200 385.400 C 6.980 385.264,6.800 385.423,6.800 385.753 M392.692 385.442 C 392.531 385.602,392.400 386.009,392.400 386.347 C 392.400 386.797,392.518 386.842,392.845 386.515 C 393.090 386.270,393.221 385.863,393.137 385.610 C 393.052 385.357,392.852 385.281,392.692 385.442 M7.600 387.575 C 7.600 387.781,7.948 387.924,8.372 387.892 C 8.797 387.860,9.056 387.691,8.949 387.517 C 8.675 387.073,7.600 387.120,7.600 387.575 M391.051 387.517 C 390.944 387.691,391.203 387.860,391.628 387.892 C 392.052 387.924,392.400 387.781,392.400 387.575 C 392.400 387.120,391.325 387.073,391.051 387.517 M9.802 390.002 C 10.202 390.444,10.615 390.718,10.721 390.612 C 10.990 390.343,9.992 389.200,9.489 389.200 C 9.262 389.200,9.403 389.561,9.802 390.002 M389.592 389.810 C 388.819 390.741,389.371 390.917,390.198 390.002 C 390.597 389.561,390.738 389.200,390.511 389.200 C 390.284 389.200,389.870 389.474,389.592 389.810 M12.108 391.628 C 12.076 392.052,12.219 392.400,12.425 392.400 C 12.880 392.400,12.927 391.325,12.483 391.051 C 12.309 390.944,12.140 391.203,12.108 391.628 M387.467 391.067 C 387.069 391.465,387.145 392.400,387.575 392.400 C 387.781 392.400,387.923 392.040,387.890 391.600 C 387.822 390.696,387.829 390.705,387.467 391.067 M13.400 392.800 C 13.536 393.020,13.917 393.200,14.247 393.200 C 14.577 393.200,14.736 393.020,14.600 392.800 C 14.464 392.580,14.083 392.400,13.753 392.400 C 13.423 392.400,13.264 392.580,13.400 392.800 M385.400 392.800 C 385.264 393.020,385.423 393.200,385.753 393.200 C 386.083 393.200,386.464 393.020,386.600 392.800 C 386.736 392.580,386.577 392.400,386.247 392.400 C 385.917 392.400,385.536 392.580,385.400 392.800 M21.067 397.067 C 20.636 397.497,20.759 397.867,21.333 397.867 C 21.627 397.867,21.867 397.627,21.867 397.333 C 21.867 396.759,21.497 396.636,21.067 397.067 M378.133 397.322 C 378.133 397.622,378.378 397.867,378.678 397.867 C 379.285 397.867,379.179 397.126,378.542 396.914 C 378.317 396.839,378.133 397.023,378.133 397.322 M25.502 398.659 C 25.779 398.774,25.926 398.996,25.830 399.151 C 25.734 399.307,26.015 399.461,26.453 399.494 C 27.601 399.580,27.150 398.695,25.979 398.562 C 25.440 398.501,25.226 398.545,25.502 398.659 M372.980 398.753 C 372.558 399.175,372.856 399.546,373.572 399.492 C 373.997 399.460,374.266 399.307,374.170 399.151 C 374.074 398.996,374.221 398.781,374.498 398.675 C 374.774 398.569,374.586 398.502,374.080 398.527 C 373.574 398.553,373.079 398.654,372.980 398.753 " stroke="none" fill="#0474bc" fill-rule="evenodd"></path><path id="path3" d="" stroke="none" fill="#0874b4" fill-rule="evenodd"></path><path id="path4" d="" stroke="none" fill="#0874b4" fill-rule="evenodd"></path></g></svg>