<svg id="svg" version="1.1" width="400" height="400" viewBox="0 0 400 400" xmlns="http://www.w3.org/2000/svg" xmlns:xlink="http://www.w3.org/1999/xlink"><g id="svgg"><path id="path0" d="M355.600 42.237 C 355.600 42.449,355.950 42.876,356.379 43.185 C 356.807 43.493,357.074 43.880,356.972 44.045 C 356.870 44.210,356.957 44.450,357.166 44.579 C 358.125 45.172,357.846 44.002,356.786 42.986 C 356.134 42.362,355.600 42.024,355.600 42.237 M37.843 49.433 C 37.693 49.823,37.782 50.006,38.075 49.908 C 38.673 49.709,39.002 48.800,38.476 48.800 C 38.261 48.800,37.976 49.085,37.843 49.433 M338.821 49.103 C 321.713 49.183,316.563 49.320,316.291 49.703 C 316.011 50.098,315.897 50.097,315.736 49.699 C 315.402 48.875,39.482 48.978,38.798 49.802 C 38.525 50.131,37.960 50.400,37.541 50.400 C 36.784 50.400,35.789 52.092,35.953 53.100 C 35.998 53.375,35.761 53.600,35.427 53.600 C 35.092 53.600,34.504 54.095,34.119 54.700 C 33.734 55.305,33.190 55.944,32.910 56.120 C 32.629 56.296,32.397 56.926,32.394 57.520 C 32.389 58.364,32.303 58.469,32.000 58.000 C 31.727 57.578,31.610 57.553,31.606 57.914 C 31.603 58.197,31.292 58.898,30.916 59.473 C 30.539 60.047,30.176 60.881,30.108 61.326 C 30.040 61.771,29.625 62.387,29.185 62.695 C 28.746 63.003,28.478 63.402,28.589 63.582 C 28.700 63.762,28.541 64.117,28.235 64.371 C 27.929 64.625,27.442 65.635,27.152 66.616 C 26.862 67.597,26.465 68.400,26.270 68.400 C 26.074 68.400,26.011 68.653,26.130 68.961 C 26.248 69.270,26.093 69.855,25.786 70.261 C 25.478 70.668,25.107 71.855,24.962 72.900 C 24.816 73.945,24.559 74.800,24.390 74.800 C 24.102 74.800,23.892 75.828,23.347 79.900 C 23.222 80.835,22.958 81.600,22.760 81.600 C 22.562 81.600,22.400 82.500,22.400 83.600 C 22.400 84.700,22.220 85.600,22.000 85.600 C 21.778 85.600,21.600 86.667,21.600 88.000 C 21.600 89.333,21.422 90.400,21.200 90.400 C 20.967 90.400,20.800 91.725,20.800 93.576 C 20.800 95.323,20.620 96.864,20.400 97.000 C 20.160 97.148,20.000 99.804,20.000 103.624 C 20.000 107.608,19.850 110.000,19.600 110.000 C 19.344 110.000,19.200 113.667,19.200 120.200 L 19.200 130.400 200.000 130.400 L 380.800 130.400 380.800 120.200 C 380.800 113.667,380.656 110.000,380.400 110.000 C 380.150 110.000,380.000 107.600,380.000 103.600 C 380.000 99.600,379.850 97.200,379.600 97.200 C 379.365 97.200,379.200 95.800,379.200 93.800 C 379.200 91.800,379.035 90.400,378.800 90.400 C 378.578 90.400,378.400 89.333,378.400 88.000 C 378.400 86.667,378.222 85.600,378.000 85.600 C 377.780 85.600,377.600 84.715,377.600 83.633 C 377.600 82.552,377.437 81.607,377.237 81.533 C 377.037 81.460,376.816 80.770,376.746 80.000 C 376.675 79.230,376.484 78.503,376.321 78.384 C 376.159 78.266,375.982 77.603,375.930 76.912 C 375.877 76.221,375.691 75.744,375.517 75.851 C 375.343 75.959,375.200 75.550,375.200 74.943 C 375.200 73.499,373.918 69.200,373.488 69.200 C 373.304 69.200,373.256 69.032,373.383 68.828 C 373.509 68.623,373.427 68.340,373.200 68.200 C 372.973 68.060,372.889 67.779,373.014 67.578 C 373.139 67.376,372.872 66.814,372.420 66.330 C 371.969 65.845,371.600 65.151,371.600 64.786 C 371.600 63.899,370.433 61.600,369.983 61.600 C 369.786 61.600,369.740 61.300,369.881 60.934 C 370.052 60.487,369.983 60.364,369.668 60.558 C 369.393 60.728,369.200 60.609,369.200 60.269 C 369.200 59.287,368.111 57.481,367.874 58.072 C 367.758 58.362,367.643 58.150,367.619 57.600 C 367.570 56.500,366.747 55.200,366.099 55.200 C 365.871 55.200,365.578 54.921,365.447 54.579 C 365.311 54.223,365.378 54.063,365.605 54.203 C 366.517 54.767,365.878 53.894,364.150 52.213 C 363.132 51.224,362.162 50.500,361.995 50.603 C 361.828 50.707,361.483 50.541,361.229 50.234 C 360.877 49.811,360.885 49.638,361.264 49.512 C 362.600 49.067,359.365 49.008,338.821 49.103 M19.200 219.202 C 19.200 219.998,19.600 220.000,200.000 220.000 C 380.400 220.000,380.800 219.998,380.800 219.202 C 380.800 218.405,380.400 218.404,200.000 218.404 C 19.600 218.404,19.200 218.405,19.200 219.202 M19.200 300.800 C 19.200 302.533,19.307 302.800,20.000 302.800 C 20.533 302.800,20.800 302.533,20.800 302.000 C 20.800 301.201,21.067 301.200,200.000 301.200 C 378.933 301.200,379.200 301.201,379.200 302.000 C 379.200 302.533,379.467 302.800,380.000 302.800 C 380.693 302.800,380.800 302.533,380.800 300.800 C 380.800 299.700,380.620 298.800,380.400 298.800 C 380.180 298.800,380.000 298.980,380.000 299.200 C 380.000 299.466,319.733 299.600,200.000 299.600 C 80.267 299.600,20.000 299.466,20.000 299.200 C 20.000 298.980,19.820 298.800,19.600 298.800 C 19.380 298.800,19.200 299.700,19.200 300.800 " stroke="none" fill="#fcd324" fill-rule="evenodd"></path><path id="path1" d="M19.200 174.600 L 19.200 218.000 200.000 218.000 L 380.800 218.000 380.800 174.600 L 380.800 131.200 200.000 131.200 L 19.200 131.200 19.200 174.600 M27.971 153.054 C 29.627 155.159,28.511 158.000,26.029 158.000 C 24.593 158.000,23.200 156.398,23.200 154.746 C 23.200 152.177,26.391 151.045,27.971 153.054 M39.874 152.870 C 41.053 153.977,41.114 156.086,40.000 157.200 C 38.174 159.026,35.200 157.509,35.200 154.753 C 35.200 152.191,37.966 151.077,39.874 152.870 M51.971 153.054 C 53.627 155.159,52.511 158.000,50.029 158.000 C 48.593 158.000,47.200 156.398,47.200 154.746 C 47.200 152.177,50.391 151.045,51.971 153.054 M63.984 152.875 C 65.746 154.766,64.512 158.000,62.029 158.000 C 60.593 158.000,59.200 156.398,59.200 154.746 C 59.200 152.295,62.311 151.079,63.984 152.875 M75.971 153.054 C 77.020 154.388,77.033 156.167,76.000 157.200 C 74.246 158.954,71.200 157.514,71.200 154.930 C 71.200 152.186,74.322 150.958,75.971 153.054 M87.971 153.054 C 89.627 155.159,88.511 158.000,86.029 158.000 C 84.593 158.000,83.200 156.398,83.200 154.746 C 83.200 152.177,86.391 151.045,87.971 153.054 M99.984 152.875 C 101.133 154.109,101.094 156.549,99.911 157.377 C 97.787 158.865,95.200 157.424,95.200 154.753 C 95.200 152.194,98.238 151.001,99.984 152.875 M111.971 153.054 C 113.627 155.159,112.511 158.000,110.029 158.000 C 108.593 158.000,107.200 156.398,107.200 154.746 C 107.200 152.177,110.391 151.045,111.971 153.054 M123.971 153.054 C 125.627 155.159,124.511 158.000,122.029 158.000 C 120.593 158.000,119.200 156.398,119.200 154.746 C 119.200 152.177,122.391 151.045,123.971 153.054 M135.874 152.870 C 137.140 154.059,137.160 156.502,135.911 157.377 C 133.787 158.865,131.200 157.424,131.200 154.753 C 131.200 152.191,133.966 151.077,135.874 152.870 M147.971 153.054 C 149.627 155.159,148.511 158.000,146.029 158.000 C 144.593 158.000,143.200 156.398,143.200 154.746 C 143.200 152.177,146.391 151.045,147.971 153.054 M159.971 153.054 C 161.627 155.159,160.511 158.000,158.029 158.000 C 156.593 158.000,155.200 156.398,155.200 154.746 C 155.200 152.177,158.391 151.045,159.971 153.054 M171.874 152.870 C 173.140 154.059,173.160 156.502,171.911 157.377 C 169.787 158.865,167.200 157.424,167.200 154.753 C 167.200 152.191,169.966 151.077,171.874 152.870 M183.971 153.054 C 185.627 155.159,184.511 158.000,182.029 158.000 C 180.593 158.000,179.200 156.398,179.200 154.746 C 179.200 152.177,182.391 151.045,183.971 153.054 M195.874 152.870 C 197.053 153.977,197.114 156.086,196.000 157.200 C 194.246 158.954,191.200 157.514,191.200 154.930 C 191.200 152.309,193.975 151.085,195.874 152.870 M207.971 153.054 C 209.020 154.388,209.033 156.167,208.000 157.200 C 206.246 158.954,203.200 157.514,203.200 154.930 C 203.200 152.186,206.322 150.958,207.971 153.054 M219.971 153.054 C 221.627 155.159,220.511 158.000,218.029 158.000 C 216.593 158.000,215.200 156.398,215.200 154.746 C 215.200 152.177,218.391 151.045,219.971 153.054 M231.984 152.875 C 233.708 154.726,232.520 158.000,230.126 158.000 C 227.548 158.000,226.051 154.050,228.089 152.623 C 229.350 151.740,231.028 151.848,231.984 152.875 M243.971 153.054 C 245.627 155.159,244.511 158.000,242.029 158.000 C 240.593 158.000,239.200 156.398,239.200 154.746 C 239.200 152.177,242.391 151.045,243.971 153.054 M255.971 153.054 C 257.627 155.159,256.511 158.000,254.029 158.000 C 252.593 158.000,251.200 156.398,251.200 154.746 C 251.200 152.177,254.391 151.045,255.971 153.054 M267.984 152.875 C 269.133 154.109,269.094 156.549,267.911 157.377 C 265.787 158.865,263.200 157.424,263.200 154.753 C 263.200 152.194,266.238 151.001,267.984 152.875 M279.971 153.054 C 281.627 155.159,280.511 158.000,278.029 158.000 C 276.593 158.000,275.200 156.398,275.200 154.746 C 275.200 152.177,278.391 151.045,279.971 153.054 M291.971 153.054 C 293.627 155.159,292.511 158.000,290.029 158.000 C 288.593 158.000,287.200 156.398,287.200 154.746 C 287.200 152.177,290.391 151.045,291.971 153.054 M303.874 152.870 C 305.140 154.059,305.160 156.502,303.911 157.377 C 301.787 158.865,299.200 157.424,299.200 154.753 C 299.200 152.191,301.966 151.077,303.874 152.870 M315.971 153.054 C 317.627 155.159,316.511 158.000,314.029 158.000 C 312.593 158.000,311.200 156.398,311.200 154.746 C 311.200 152.177,314.391 151.045,315.971 153.054 M327.971 153.054 C 329.627 155.159,328.511 158.000,326.029 158.000 C 324.593 158.000,323.200 156.398,323.200 154.746 C 323.200 152.177,326.391 151.045,327.971 153.054 M339.874 152.870 C 341.053 153.977,341.114 156.086,340.000 157.200 C 338.174 159.026,335.200 157.509,335.200 154.753 C 335.200 152.191,337.966 151.077,339.874 152.870 M351.971 153.054 C 353.627 155.159,352.511 158.000,350.029 158.000 C 348.593 158.000,347.200 156.398,347.200 154.746 C 347.200 152.177,350.391 151.045,351.971 153.054 M363.984 152.875 C 365.746 154.766,364.512 158.000,362.029 158.000 C 360.593 158.000,359.200 156.398,359.200 154.746 C 359.200 152.295,362.311 151.079,363.984 152.875 M375.971 153.054 C 377.020 154.388,377.033 156.167,376.000 157.200 C 374.246 158.954,371.200 157.514,371.200 154.930 C 371.200 152.186,374.322 150.958,375.971 153.054 M19.200 254.876 C 19.200 277.029,19.338 288.838,19.600 289.000 C 19.830 289.142,20.000 291.257,20.000 293.981 C 20.000 297.928,20.105 298.755,20.633 298.957 C 21.460 299.275,378.540 299.275,379.367 298.957 C 379.899 298.753,380.000 297.891,380.000 293.557 C 380.000 290.386,380.154 288.400,380.400 288.400 C 380.664 288.400,380.800 276.900,380.800 254.700 L 380.800 221.000 200.000 221.000 L 19.200 221.000 19.200 254.876 M20.800 305.576 C 20.800 307.323,20.980 308.864,21.200 309.000 C 21.420 309.136,21.600 310.407,21.600 311.824 C 21.600 313.275,21.775 314.400,22.000 314.400 C 22.220 314.400,22.400 315.390,22.400 316.600 C 22.400 317.810,22.580 318.800,22.800 318.800 C 23.020 318.800,23.200 319.610,23.200 320.600 C 23.200 321.590,23.380 322.400,23.600 322.400 C 23.820 322.400,24.000 323.030,24.000 323.800 C 24.000 324.570,24.180 325.200,24.400 325.200 C 24.620 325.200,24.800 325.596,24.800 326.080 C 24.800 327.313,26.112 331.600,26.489 331.600 C 26.660 331.600,26.800 331.888,26.800 332.239 C 26.800 333.097,29.987 339.600,30.886 340.575 C 31.279 341.002,31.600 341.587,31.600 341.875 C 31.600 342.164,31.780 342.400,32.000 342.400 C 32.220 342.400,32.400 342.720,32.400 343.112 C 32.400 343.503,32.760 344.083,33.200 344.400 C 33.640 344.717,34.000 345.209,34.000 345.492 C 34.000 345.775,34.540 346.572,35.200 347.263 C 35.860 347.954,36.400 348.690,36.400 348.899 C 36.400 349.108,36.940 349.783,37.600 350.400 C 38.260 351.017,38.800 351.719,38.800 351.960 C 38.800 352.202,38.980 352.400,39.200 352.400 C 39.420 352.400,39.600 352.595,39.600 352.832 C 39.600 353.367,46.588 360.400,47.119 360.400 C 47.331 360.400,48.245 361.120,49.152 362.000 C 50.059 362.880,50.954 363.600,51.141 363.600 C 51.328 363.600,52.046 364.140,52.737 364.800 C 53.428 365.460,54.225 366.000,54.508 366.000 C 54.791 366.000,55.283 366.360,55.600 366.800 C 55.917 367.240,56.497 367.600,56.888 367.600 C 57.280 367.600,57.600 367.780,57.600 368.000 C 57.600 368.220,57.836 368.400,58.125 368.400 C 58.413 368.400,58.998 368.721,59.425 369.114 C 60.400 370.013,66.903 373.200,67.761 373.200 C 68.112 373.200,68.400 373.340,68.400 373.511 C 68.400 373.888,72.687 375.200,73.920 375.200 C 74.404 375.200,74.800 375.380,74.800 375.600 C 74.800 375.820,75.419 376.000,76.176 376.000 C 76.933 376.000,77.664 376.180,77.800 376.400 C 77.936 376.620,78.847 376.800,79.824 376.800 C 80.801 376.800,81.600 376.980,81.600 377.200 C 81.600 377.420,82.500 377.600,83.600 377.600 C 84.700 377.600,85.600 377.780,85.600 378.000 C 85.600 378.229,86.800 378.400,88.400 378.400 C 90.000 378.400,91.200 378.571,91.200 378.800 C 91.200 379.035,92.592 379.200,94.576 379.200 C 96.433 379.200,98.064 379.380,98.200 379.600 C 98.349 379.842,101.196 380.000,105.400 380.000 C 109.604 380.000,112.451 380.158,112.600 380.400 C 112.764 380.665,142.196 380.800,199.600 380.800 C 257.004 380.800,286.436 380.665,286.600 380.400 C 286.749 380.158,289.596 380.000,293.800 380.000 C 298.004 380.000,300.851 379.842,301.000 379.600 C 301.136 379.380,302.767 379.200,304.624 379.200 C 306.608 379.200,308.000 379.035,308.000 378.800 C 308.000 378.571,309.200 378.400,310.800 378.400 C 312.400 378.400,313.600 378.229,313.600 378.000 C 313.600 377.780,314.500 377.600,315.600 377.600 C 316.700 377.600,317.600 377.420,317.600 377.200 C 317.600 376.980,318.410 376.800,319.400 376.800 C 320.390 376.800,321.200 376.620,321.200 376.400 C 321.200 376.180,321.819 376.000,322.576 376.000 C 323.333 376.000,324.064 375.820,324.200 375.600 C 324.336 375.380,324.874 375.200,325.396 375.200 C 326.560 375.200,332.949 373.147,333.133 372.713 C 333.207 372.541,333.612 372.400,334.033 372.400 C 334.455 372.400,334.800 372.220,334.800 372.000 C 334.800 371.780,335.053 371.600,335.362 371.600 C 335.916 371.600,339.210 370.020,339.600 369.568 C 339.710 369.440,340.385 369.081,341.100 368.770 C 341.815 368.459,342.400 368.069,342.400 367.902 C 342.400 367.736,342.636 367.600,342.925 367.600 C 343.213 367.600,343.836 367.240,344.308 366.800 C 344.780 366.360,345.372 366.000,345.623 366.000 C 345.874 366.000,346.583 365.460,347.200 364.800 C 347.817 364.140,348.519 363.600,348.760 363.600 C 349.002 363.600,349.941 362.880,350.848 362.000 C 351.755 361.120,352.678 360.400,352.901 360.400 C 353.413 360.400,361.200 352.505,361.200 351.986 C 361.200 351.774,361.920 350.859,362.800 349.952 C 363.680 349.045,364.400 348.095,364.400 347.840 C 364.400 347.585,364.760 347.117,365.200 346.800 C 365.640 346.483,366.000 345.943,366.000 345.600 C 366.000 345.257,366.360 344.717,366.800 344.400 C 367.240 344.083,367.600 343.586,367.600 343.295 C 367.600 343.004,367.936 342.406,368.346 341.966 C 368.757 341.525,369.522 340.318,370.046 339.282 C 370.571 338.247,371.135 337.340,371.300 337.267 C 371.465 337.193,371.600 336.895,371.600 336.604 C 371.600 336.314,371.986 335.294,372.457 334.338 C 374.171 330.860,375.200 327.654,375.200 325.786 C 375.200 325.024,375.380 324.400,375.600 324.400 C 375.820 324.400,376.000 323.770,376.000 323.000 C 376.000 322.230,376.180 321.600,376.400 321.600 C 376.620 321.600,376.800 320.891,376.800 320.024 C 376.800 319.157,376.980 318.336,377.200 318.200 C 377.420 318.064,377.600 316.973,377.600 315.776 C 377.600 314.579,377.780 313.600,378.000 313.600 C 378.222 313.600,378.400 312.533,378.400 311.200 C 378.400 309.867,378.578 308.800,378.800 308.800 C 379.033 308.800,379.200 307.467,379.200 305.600 L 379.200 302.400 200.000 302.400 L 20.800 302.400 20.800 305.576 " stroke="none" fill="#fbfbfb" fill-rule="evenodd"></path><path id="path2" d="M109.500 131.100 C 159.275 131.156,240.725 131.156,290.500 131.100 C 340.275 131.044,299.550 130.998,200.000 130.998 C 100.450 130.998,59.725 131.044,109.500 131.100 M24.096 153.595 C 22.673 155.873,25.642 158.815,27.495 156.962 C 28.264 156.193,28.330 154.280,27.618 153.421 C 26.868 152.518,24.702 152.624,24.096 153.595 M36.096 153.595 C 35.237 154.971,36.458 157.600,37.958 157.600 C 38.831 157.600,40.400 155.980,40.400 155.079 C 40.400 153.083,37.122 151.953,36.096 153.595 M48.480 153.280 C 47.818 153.942,47.877 156.334,48.571 157.029 C 49.981 158.438,52.000 157.307,52.000 155.109 C 52.000 153.491,51.401 152.800,50.000 152.800 C 49.428 152.800,48.744 153.016,48.480 153.280 M60.100 153.386 C 58.961 154.707,60.561 157.862,62.205 157.539 C 63.700 157.246,64.656 155.317,63.915 154.089 C 63.152 152.827,60.934 152.418,60.100 153.386 M72.179 153.776 C 71.228 155.227,72.372 157.600,74.023 157.600 C 75.229 157.600,76.400 156.376,76.400 155.116 C 76.400 152.975,73.340 152.004,72.179 153.776 M84.480 153.280 C 83.845 153.915,83.890 156.021,84.557 156.900 C 85.785 158.518,88.000 157.366,88.000 155.109 C 88.000 153.491,87.401 152.800,86.000 152.800 C 85.428 152.800,84.744 153.016,84.480 153.280 M96.096 153.595 C 95.188 155.049,96.471 157.600,98.112 157.600 C 98.777 157.600,100.400 155.940,100.400 155.260 C 100.400 153.152,97.156 151.897,96.096 153.595 M108.500 153.065 C 107.812 153.343,107.865 156.322,108.571 157.029 C 109.981 158.438,112.000 157.307,112.000 155.109 C 112.000 153.099,110.536 152.244,108.500 153.065 M120.480 153.280 C 119.751 154.009,119.901 156.187,120.731 156.938 C 122.274 158.334,124.000 157.367,124.000 155.109 C 124.000 153.491,123.401 152.800,122.000 152.800 C 121.428 152.800,120.744 153.016,120.480 153.280 M132.096 153.595 C 131.177 155.067,132.380 157.600,134.000 157.600 C 134.779 157.600,136.400 155.845,136.400 155.002 C 136.400 153.073,133.096 151.993,132.096 153.595 M144.500 153.065 C 143.812 153.343,143.865 156.322,144.571 157.029 C 145.981 158.438,148.000 157.307,148.000 155.109 C 148.000 153.099,146.536 152.244,144.500 153.065 M156.093 153.756 C 155.112 155.909,157.854 158.603,159.427 157.030 C 160.197 156.260,160.300 154.243,159.612 153.414 C 158.782 152.414,156.608 152.625,156.093 153.756 M168.096 153.595 C 167.237 154.971,168.458 157.600,169.958 157.600 C 170.831 157.600,172.400 155.980,172.400 155.079 C 172.400 153.083,169.122 151.953,168.096 153.595 M180.480 153.280 C 179.818 153.942,179.877 156.334,180.571 157.029 C 181.981 158.438,184.000 157.307,184.000 155.109 C 184.000 153.491,183.401 152.800,182.000 152.800 C 181.428 152.800,180.744 153.016,180.480 153.280 M192.100 153.398 C 190.954 154.700,192.393 157.600,194.186 157.600 C 195.634 157.600,196.579 155.506,195.806 154.011 C 195.107 152.660,193.050 152.320,192.100 153.398 M204.053 153.844 C 203.448 155.171,204.561 157.331,205.953 157.532 C 207.116 157.701,208.400 156.552,208.400 155.343 C 208.400 152.934,205.001 151.762,204.053 153.844 M216.480 153.280 C 215.845 153.915,215.890 156.021,216.557 156.900 C 217.785 158.518,220.000 157.366,220.000 155.109 C 220.000 153.491,219.401 152.800,218.000 152.800 C 217.428 152.800,216.744 153.016,216.480 153.280 M228.096 153.595 C 227.188 155.049,228.471 157.600,230.112 157.600 C 230.777 157.600,232.400 155.940,232.400 155.260 C 232.400 153.152,229.156 151.897,228.096 153.595 M240.502 153.129 C 239.114 154.010,240.233 157.600,241.896 157.600 C 243.796 157.600,244.862 154.920,243.577 153.372 C 243.064 152.755,241.310 152.616,240.502 153.129 M252.480 153.280 C 251.751 154.009,251.901 156.187,252.731 156.938 C 254.274 158.334,256.000 157.367,256.000 155.109 C 256.000 153.491,255.401 152.800,254.000 152.800 C 253.428 152.800,252.744 153.016,252.480 153.280 M264.096 153.595 C 263.177 155.067,264.380 157.600,266.000 157.600 C 266.693 157.600,268.400 155.881,268.400 155.183 C 268.400 153.142,265.132 151.936,264.096 153.595 M276.500 153.065 C 275.812 153.343,275.865 156.322,276.571 157.029 C 277.981 158.438,280.000 157.307,280.000 155.109 C 280.000 153.099,278.536 152.244,276.500 153.065 M288.480 153.280 C 287.313 154.447,288.460 157.600,290.051 157.600 C 291.243 157.600,292.000 156.632,292.000 155.109 C 292.000 153.491,291.401 152.800,290.000 152.800 C 289.428 152.800,288.744 153.016,288.480 153.280 M300.400 153.400 C 300.400 153.730,300.220 154.000,300.000 154.000 C 299.337 154.000,299.548 155.204,300.427 156.438 C 301.426 157.841,302.367 157.912,303.530 156.674 C 304.579 155.558,304.631 154.679,303.711 153.605 C 302.871 152.623,300.400 152.471,300.400 153.400 M312.500 153.065 C 311.812 153.343,311.865 156.322,312.571 157.029 C 313.981 158.438,316.000 157.307,316.000 155.109 C 316.000 153.099,314.536 152.244,312.500 153.065 M324.096 153.595 C 322.673 155.873,325.642 158.815,327.495 156.962 C 328.264 156.193,328.330 154.280,327.618 153.421 C 326.868 152.518,324.702 152.624,324.096 153.595 M336.096 153.595 C 335.237 154.971,336.458 157.600,337.958 157.600 C 338.831 157.600,340.400 155.980,340.400 155.079 C 340.400 153.083,337.122 151.953,336.096 153.595 M348.480 153.280 C 347.818 153.942,347.877 156.334,348.571 157.029 C 349.981 158.438,352.000 157.307,352.000 155.109 C 352.000 153.491,351.401 152.800,350.000 152.800 C 349.428 152.800,348.744 153.016,348.480 153.280 M360.100 153.386 C 358.961 154.707,360.561 157.862,362.205 157.539 C 363.700 157.246,364.656 155.317,363.915 154.089 C 363.152 152.827,360.934 152.418,360.100 153.386 M372.179 153.776 C 371.228 155.227,372.372 157.600,374.023 157.600 C 375.229 157.600,376.400 156.376,376.400 155.116 C 376.400 152.975,373.340 152.004,372.179 153.776 M19.268 218.202 C 19.379 218.313,100.709 218.404,200.000 218.404 C 299.291 218.404,380.621 218.313,380.732 218.202 C 380.843 218.091,299.513 218.000,200.000 218.000 C 100.487 218.000,19.157 218.091,19.268 218.202 M19.200 220.400 C 19.200 220.666,79.733 220.800,200.000 220.800 C 320.267 220.800,380.800 220.666,380.800 220.400 C 380.800 220.134,320.267 220.000,200.000 220.000 C 79.733 220.000,19.200 220.134,19.200 220.400 M109.900 299.500 C 159.455 299.556,240.545 299.556,290.100 299.500 C 339.655 299.444,299.110 299.398,200.000 299.398 C 100.890 299.398,60.345 299.444,109.900 299.500 M20.800 301.700 C 20.800 302.099,56.907 302.200,200.000 302.200 C 343.093 302.200,379.200 302.099,379.200 301.700 C 379.200 301.301,343.093 301.200,200.000 301.200 C 56.907 301.200,20.800 301.301,20.800 301.700 " stroke="none" fill="#bcb69f" fill-rule="evenodd"></path><path id="path3" d="M113.200 19.598 C 113.200 19.852,110.628 20.000,106.224 20.000 C 102.004 20.000,99.150 20.158,99.000 20.400 C 98.864 20.620,97.233 20.800,95.376 20.800 C 93.392 20.800,92.000 20.965,92.000 21.200 C 92.000 21.429,90.800 21.600,89.200 21.600 C 87.600 21.600,86.400 21.771,86.400 22.000 C 86.400 22.220,85.500 22.400,84.400 22.400 C 83.300 22.400,82.400 22.580,82.400 22.800 C 82.400 23.020,81.691 23.200,80.824 23.200 C 79.957 23.200,79.136 23.380,79.000 23.600 C 78.864 23.820,78.223 24.000,77.576 24.000 C 76.929 24.000,76.400 24.180,76.400 24.400 C 76.400 24.620,75.974 24.800,75.452 24.800 C 74.931 24.800,73.176 25.254,71.552 25.808 C 69.929 26.362,68.420 26.864,68.200 26.922 C 66.970 27.246,64.003 28.644,64.001 28.900 C 64.001 29.065,63.766 29.200,63.480 29.200 C 62.744 29.200,60.807 30.141,60.803 30.500 C 60.801 30.665,60.522 30.800,60.183 30.800 C 59.844 30.800,59.180 31.160,58.708 31.600 C 58.236 32.040,57.613 32.400,57.325 32.400 C 57.036 32.400,56.800 32.580,56.800 32.800 C 56.800 33.020,56.480 33.200,56.088 33.200 C 55.697 33.200,55.117 33.560,54.800 34.000 C 54.483 34.440,53.993 34.800,53.712 34.800 C 53.430 34.800,53.200 34.980,53.200 35.200 C 53.200 35.420,53.012 35.600,52.782 35.600 C 52.552 35.600,51.928 36.036,51.395 36.569 C 50.862 37.102,50.057 37.655,49.607 37.798 C 49.157 37.941,48.892 38.225,49.018 38.429 C 49.144 38.633,49.102 38.800,48.924 38.801 C 48.350 38.803,45.796 41.211,45.910 41.642 C 45.970 41.872,45.835 41.945,45.610 41.806 C 45.384 41.667,45.197 41.878,45.194 42.276 C 45.189 42.890,45.129 42.909,44.800 42.400 C 44.476 41.898,44.411 41.925,44.406 42.567 C 44.403 42.988,44.296 43.229,44.169 43.103 C 43.805 42.738,41.587 45.255,41.870 45.713 C 42.010 45.940,41.929 46.004,41.689 45.855 C 41.164 45.531,39.932 47.166,40.278 47.727 C 40.416 47.949,40.321 47.998,40.062 47.838 C 39.808 47.681,39.600 47.754,39.600 48.000 C 39.600 48.246,39.433 48.344,39.229 48.218 C 39.024 48.091,38.799 48.396,38.728 48.894 C 38.647 49.469,38.344 49.780,37.900 49.744 C 37.515 49.714,37.200 49.849,37.200 50.044 C 37.200 50.615,38.257 50.454,38.798 49.802 C 39.482 48.978,315.402 48.875,315.736 49.699 C 315.897 50.095,316.012 50.097,316.289 49.706 C 316.644 49.206,361.026 48.892,361.520 49.387 C 361.637 49.504,361.501 49.600,361.218 49.600 C 360.806 49.600,360.802 49.721,361.196 50.196 C 361.468 50.523,361.838 50.700,362.018 50.589 C 362.198 50.478,362.458 50.570,362.596 50.793 C 362.734 51.017,363.018 51.200,363.227 51.200 C 363.436 51.200,363.389 50.852,363.123 50.426 C 362.857 50.000,362.496 49.741,362.320 49.849 C 362.144 49.958,362.000 49.779,362.000 49.451 C 362.000 49.122,361.640 48.740,361.200 48.600 C 360.753 48.458,360.400 47.995,360.400 47.549 C 360.400 47.111,360.220 46.864,360.000 47.000 C 359.780 47.136,359.600 47.033,359.600 46.772 C 359.600 45.958,350.194 37.030,348.286 36.032 C 347.689 35.720,347.200 35.315,347.200 35.132 C 347.200 34.950,346.919 34.800,346.576 34.800 C 346.207 34.800,346.069 34.612,346.238 34.338 C 346.409 34.062,346.349 33.985,346.088 34.146 C 345.848 34.294,345.227 34.007,344.708 33.508 C 344.188 33.008,343.502 32.542,343.182 32.470 C 342.862 32.399,342.540 32.174,342.467 31.970 C 342.393 31.767,342.112 31.600,341.842 31.600 C 341.572 31.600,340.957 31.233,340.475 30.784 C 339.994 30.336,339.600 30.094,339.600 30.246 C 339.600 30.399,339.285 30.256,338.900 29.929 C 338.515 29.602,337.480 29.021,336.600 28.638 C 335.720 28.254,334.460 27.703,333.800 27.413 C 331.149 26.245,330.528 25.998,328.800 25.417 C 327.810 25.084,326.606 24.809,326.124 24.806 C 325.642 24.803,325.136 24.620,325.000 24.400 C 324.864 24.180,324.033 24.000,323.153 24.000 C 322.188 24.000,321.651 23.841,321.800 23.600 C 321.951 23.356,321.337 23.200,320.224 23.200 C 319.221 23.200,318.400 23.020,318.400 22.800 C 318.400 22.580,317.399 22.400,316.176 22.400 C 314.796 22.400,314.047 22.248,314.200 22.000 C 314.356 21.748,313.404 21.600,311.624 21.600 C 310.008 21.600,308.800 21.429,308.800 21.200 C 308.800 20.963,307.341 20.800,305.224 20.800 C 303.257 20.800,301.536 20.620,301.400 20.400 C 301.251 20.159,298.463 20.000,294.376 20.000 C 290.166 20.000,287.600 19.850,287.600 19.604 C 287.600 19.343,257.742 19.205,200.400 19.202 C 142.276 19.198,113.200 19.330,113.200 19.598 M34.800 53.200 C 34.800 53.420,35.070 53.600,35.400 53.600 C 35.730 53.600,36.000 53.420,36.000 53.200 C 36.000 52.980,35.730 52.800,35.400 52.800 C 35.070 52.800,34.800 52.980,34.800 53.200 M109.500 130.700 C 159.275 130.756,240.725 130.756,290.500 130.700 C 340.275 130.644,299.550 130.598,200.000 130.598 C 100.450 130.598,59.725 130.644,109.500 130.700 " stroke="none" fill="#fcdc4c" fill-rule="evenodd"></path><path id="path4" d="M24.000 152.800 C 22.302 154.498,23.669 158.000,26.029 158.000 C 28.511 158.000,29.627 155.159,27.971 153.054 C 26.957 151.764,25.151 151.649,24.000 152.800 M36.089 152.623 C 34.840 153.498,34.860 155.941,36.126 157.130 C 38.025 158.915,40.800 157.691,40.800 155.070 C 40.800 152.576,38.133 151.191,36.089 152.623 M48.000 152.800 C 46.302 154.498,47.669 158.000,50.029 158.000 C 52.511 158.000,53.627 155.159,51.971 153.054 C 50.957 151.764,49.151 151.649,48.000 152.800 M60.000 152.800 C 58.967 153.833,58.980 155.612,60.029 156.946 C 61.675 159.039,64.800 157.814,64.800 155.075 C 64.800 152.420,61.802 150.998,60.000 152.800 M72.000 152.800 C 70.886 153.914,70.947 156.023,72.126 157.130 C 74.878 159.716,78.332 156.055,75.971 153.054 C 74.957 151.764,73.151 151.649,72.000 152.800 M84.000 152.800 C 82.302 154.498,83.669 158.000,86.029 158.000 C 88.511 158.000,89.627 155.159,87.971 153.054 C 86.957 151.764,85.151 151.649,84.000 152.800 M96.089 152.623 C 94.840 153.498,94.860 155.941,96.126 157.130 C 98.032 158.921,100.800 157.809,100.800 155.253 C 100.800 152.510,98.268 151.097,96.089 152.623 M108.000 152.800 C 106.302 154.498,107.669 158.000,110.029 158.000 C 112.511 158.000,113.627 155.159,111.971 153.054 C 110.957 151.764,109.151 151.649,108.000 152.800 M120.000 152.800 C 118.302 154.498,119.669 158.000,122.029 158.000 C 124.511 158.000,125.627 155.159,123.971 153.054 C 122.957 151.764,121.151 151.649,120.000 152.800 M132.089 152.623 C 130.840 153.498,130.860 155.941,132.126 157.130 C 134.034 158.923,136.800 157.809,136.800 155.247 C 136.800 152.576,134.213 151.135,132.089 152.623 M144.000 152.800 C 142.302 154.498,143.669 158.000,146.029 158.000 C 148.511 158.000,149.627 155.159,147.971 153.054 C 146.957 151.764,145.151 151.649,144.000 152.800 M156.000 152.800 C 154.302 154.498,155.669 158.000,158.029 158.000 C 160.511 158.000,161.627 155.159,159.971 153.054 C 158.957 151.764,157.151 151.649,156.000 152.800 M168.089 152.623 C 166.840 153.498,166.860 155.941,168.126 157.130 C 170.034 158.923,172.800 157.809,172.800 155.247 C 172.800 152.576,170.213 151.135,168.089 152.623 M180.000 152.800 C 178.302 154.498,179.669 158.000,182.029 158.000 C 184.511 158.000,185.627 155.159,183.971 153.054 C 182.957 151.764,181.151 151.649,180.000 152.800 M192.000 152.800 C 190.886 153.914,190.947 156.023,192.126 157.130 C 194.025 158.915,196.800 157.691,196.800 155.070 C 196.800 152.486,193.754 151.046,192.000 152.800 M204.000 152.800 C 202.886 153.914,202.947 156.023,204.126 157.130 C 206.878 159.716,210.332 156.055,207.971 153.054 C 206.957 151.764,205.151 151.649,204.000 152.800 M216.000 152.800 C 214.302 154.498,215.669 158.000,218.029 158.000 C 220.511 158.000,221.627 155.159,219.971 153.054 C 218.957 151.764,217.151 151.649,216.000 152.800 M228.089 152.623 C 226.840 153.498,226.860 155.941,228.126 157.130 C 230.023 158.912,232.800 157.691,232.800 155.075 C 232.800 152.511,230.189 151.151,228.089 152.623 M240.000 152.800 C 238.302 154.498,239.669 158.000,242.029 158.000 C 244.511 158.000,245.627 155.159,243.971 153.054 C 242.957 151.764,241.151 151.649,240.000 152.800 M252.000 152.800 C 250.302 154.498,251.669 158.000,254.029 158.000 C 256.511 158.000,257.627 155.159,255.971 153.054 C 254.957 151.764,253.151 151.649,252.000 152.800 M264.089 152.623 C 262.840 153.498,262.860 155.941,264.126 157.130 C 266.032 158.921,268.800 157.809,268.800 155.253 C 268.800 152.510,266.268 151.097,264.089 152.623 M276.000 152.800 C 274.302 154.498,275.669 158.000,278.029 158.000 C 280.511 158.000,281.627 155.159,279.971 153.054 C 278.957 151.764,277.151 151.649,276.000 152.800 M288.000 152.800 C 286.302 154.498,287.669 158.000,290.029 158.000 C 292.511 158.000,293.627 155.159,291.971 153.054 C 290.957 151.764,289.151 151.649,288.000 152.800 M300.089 152.623 C 298.840 153.498,298.860 155.941,300.126 157.130 C 302.034 158.923,304.800 157.809,304.800 155.247 C 304.800 152.576,302.213 151.135,300.089 152.623 M312.000 152.800 C 310.302 154.498,311.669 158.000,314.029 158.000 C 316.511 158.000,317.627 155.159,315.971 153.054 C 314.957 151.764,313.151 151.649,312.000 152.800 M324.000 152.800 C 322.302 154.498,323.669 158.000,326.029 158.000 C 328.511 158.000,329.627 155.159,327.971 153.054 C 326.957 151.764,325.151 151.649,324.000 152.800 M336.089 152.623 C 334.840 153.498,334.860 155.941,336.126 157.130 C 338.025 158.915,340.800 157.691,340.800 155.070 C 340.800 152.576,338.133 151.191,336.089 152.623 M348.000 152.800 C 346.302 154.498,347.669 158.000,350.029 158.000 C 352.511 158.000,353.627 155.159,351.971 153.054 C 350.957 151.764,349.151 151.649,348.000 152.800 M360.000 152.800 C 358.967 153.833,358.980 155.612,360.029 156.946 C 361.675 159.039,364.800 157.814,364.800 155.075 C 364.800 152.420,361.802 150.998,360.000 152.800 M372.000 152.800 C 370.886 153.914,370.947 156.023,372.126 157.130 C 374.878 159.716,378.332 156.055,375.971 153.054 C 374.957 151.764,373.151 151.649,372.000 152.800 M27.618 153.421 C 28.822 154.872,27.831 157.600,26.101 157.600 C 25.237 157.600,23.600 155.893,23.600 154.992 C 23.600 153.064,26.410 151.966,27.618 153.421 M39.711 153.605 C 40.922 155.019,39.790 157.600,37.958 157.600 C 37.251 157.600,35.600 155.662,35.600 154.833 C 35.600 152.914,38.403 152.077,39.711 153.605 M51.520 153.280 C 52.182 153.942,52.123 156.334,51.429 157.029 C 50.019 158.438,48.000 157.307,48.000 155.109 C 48.000 153.491,48.599 152.800,50.000 152.800 C 50.572 152.800,51.256 153.016,51.520 153.280 M63.915 154.089 C 64.656 155.317,63.700 157.246,62.205 157.539 C 61.314 157.714,59.600 155.913,59.600 154.801 C 59.600 152.603,62.707 152.090,63.915 154.089 M75.711 153.605 C 77.062 155.183,76.041 157.600,74.023 157.600 C 72.372 157.600,71.228 155.227,72.179 153.776 C 72.976 152.560,74.743 152.474,75.711 153.605 M87.520 153.280 C 88.182 153.942,88.123 156.334,87.429 157.029 C 86.018 158.439,84.036 157.250,84.013 154.980 C 83.997 153.489,84.626 152.800,86.000 152.800 C 86.572 152.800,87.256 153.016,87.520 153.280 M99.754 153.786 C 100.607 155.088,100.570 155.568,99.530 156.674 C 97.616 158.712,94.593 156.001,96.096 153.595 C 96.832 152.417,98.929 152.527,99.754 153.786 M111.520 153.280 C 112.808 154.568,111.742 157.600,110.000 157.600 C 108.290 157.600,106.991 153.674,108.500 153.065 C 109.440 152.686,111.040 152.800,111.520 153.280 M123.520 153.280 C 125.479 155.239,122.774 158.787,120.731 156.938 C 119.174 155.529,120.011 152.800,122.000 152.800 C 122.572 152.800,123.256 153.016,123.520 153.280 M135.711 153.605 C 136.866 154.954,135.733 157.600,134.000 157.600 C 133.217 157.600,131.600 155.843,131.600 154.992 C 131.600 152.928,134.340 152.003,135.711 153.605 M147.520 153.280 C 148.808 154.568,147.742 157.600,146.000 157.600 C 144.290 157.600,142.991 153.674,144.500 153.065 C 145.440 152.686,147.040 152.800,147.520 153.280 M159.612 153.414 C 160.300 154.243,160.197 156.260,159.427 157.030 C 157.854 158.603,155.112 155.909,156.093 153.756 C 156.608 152.625,158.782 152.414,159.612 153.414 M171.711 153.605 C 172.922 155.019,171.790 157.600,169.958 157.600 C 169.251 157.600,167.600 155.662,167.600 154.833 C 167.600 152.914,170.403 152.077,171.711 153.605 M183.520 153.280 C 184.182 153.942,184.123 156.334,183.429 157.029 C 182.019 158.438,180.000 157.307,180.000 155.109 C 180.000 153.491,180.599 152.800,182.000 152.800 C 182.572 152.800,183.256 153.016,183.520 153.280 M195.806 154.011 C 196.579 155.506,195.634 157.600,194.186 157.600 C 193.161 157.600,191.600 155.897,191.600 154.780 C 191.600 152.552,194.753 151.975,195.806 154.011 M207.711 153.605 C 209.123 155.253,207.972 157.824,205.953 157.532 C 204.561 157.331,203.448 155.171,204.053 153.844 C 204.654 152.524,206.673 152.392,207.711 153.605 M219.520 153.280 C 220.182 153.942,220.123 156.334,219.429 157.029 C 218.018 158.439,216.036 157.250,216.013 154.980 C 215.997 153.489,216.626 152.800,218.000 152.800 C 218.572 152.800,219.256 153.016,219.520 153.280 M231.754 153.786 C 232.607 155.088,232.570 155.568,231.530 156.674 C 229.616 158.712,226.593 156.001,228.096 153.595 C 228.832 152.417,230.929 152.527,231.754 153.786 M243.577 153.372 C 244.862 154.920,243.796 157.600,241.896 157.600 C 240.233 157.600,239.114 154.010,240.502 153.129 C 241.310 152.616,243.064 152.755,243.577 153.372 M255.520 153.280 C 257.479 155.239,254.774 158.787,252.731 156.938 C 251.174 155.529,252.011 152.800,254.000 152.800 C 254.572 152.800,255.256 153.016,255.520 153.280 M267.754 153.786 C 268.597 155.073,268.571 155.397,267.528 156.597 C 265.624 158.786,262.539 156.087,264.096 153.595 C 264.832 152.417,266.929 152.527,267.754 153.786 M279.520 153.280 C 280.808 154.568,279.742 157.600,278.000 157.600 C 276.290 157.600,274.991 153.674,276.500 153.065 C 277.440 152.686,279.040 152.800,279.520 153.280 M291.520 153.280 C 292.182 153.942,292.123 156.334,291.429 157.029 C 290.080 158.377,288.000 157.019,288.000 154.791 C 288.000 153.478,288.681 152.800,290.000 152.800 C 290.572 152.800,291.256 153.016,291.520 153.280 M303.711 153.605 C 304.631 154.679,304.579 155.558,303.530 156.674 C 302.367 157.912,301.426 157.841,300.427 156.438 C 299.548 155.204,299.337 154.000,300.000 154.000 C 300.220 154.000,300.400 153.730,300.400 153.400 C 300.400 152.471,302.871 152.623,303.711 153.605 M315.520 153.280 C 316.808 154.568,315.742 157.600,314.000 157.600 C 312.290 157.600,310.991 153.674,312.500 153.065 C 313.440 152.686,315.040 152.800,315.520 153.280 M327.618 153.421 C 328.822 154.872,327.831 157.600,326.101 157.600 C 325.237 157.600,323.600 155.893,323.600 154.992 C 323.600 153.064,326.410 151.966,327.618 153.421 M339.711 153.605 C 340.922 155.019,339.790 157.600,337.958 157.600 C 337.251 157.600,335.600 155.662,335.600 154.833 C 335.600 152.914,338.403 152.077,339.711 153.605 M351.520 153.280 C 352.182 153.942,352.123 156.334,351.429 157.029 C 350.019 158.438,348.000 157.307,348.000 155.109 C 348.000 153.491,348.599 152.800,350.000 152.800 C 350.572 152.800,351.256 153.016,351.520 153.280 M363.915 154.089 C 364.656 155.317,363.700 157.246,362.205 157.539 C 361.314 157.714,359.600 155.913,359.600 154.801 C 359.600 152.603,362.707 152.090,363.915 154.089 M375.711 153.605 C 377.062 155.183,376.041 157.600,374.023 157.600 C 372.372 157.600,371.228 155.227,372.179 153.776 C 372.976 152.560,374.743 152.474,375.711 153.605 M109.700 221.100 C 159.365 221.156,240.635 221.156,290.300 221.100 C 339.965 221.044,299.330 220.998,200.000 220.998 C 100.670 220.998,60.035 221.044,109.700 221.100 M110.500 302.300 C 159.725 302.356,240.275 302.356,289.500 302.300 C 338.725 302.244,298.450 302.198,200.000 302.198 C 101.550 302.198,61.275 302.244,110.500 302.300 " stroke="none" fill="#bcbcbc" fill-rule="evenodd"></path></g></svg>