<svg id="svg" version="1.1" width="400" height="400" viewBox="0 0 400 400" xmlns="http://www.w3.org/2000/svg" xmlns:xlink="http://www.w3.org/1999/xlink"><g id="svgg"><path id="path0" d="M68.488 0.296 C 67.034 0.379,66.076 0.599,66.212 0.819 C 66.348 1.039,65.667 1.200,64.600 1.200 C 63.470 1.200,62.849 1.355,63.000 1.600 C 63.151 1.844,62.545 2.000,61.447 2.000 C 60.457 2.000,59.536 2.180,59.400 2.400 C 59.264 2.620,58.623 2.800,57.976 2.800 C 57.329 2.800,56.800 2.980,56.800 3.200 C 56.800 3.420,56.461 3.600,56.046 3.600 C 55.631 3.600,54.798 3.856,54.196 4.168 C 53.593 4.481,52.853 4.642,52.550 4.526 C 52.248 4.409,52.000 4.514,52.000 4.757 C 52.000 5.001,51.640 5.200,51.200 5.200 C 50.760 5.200,50.400 5.380,50.400 5.600 C 50.400 5.820,50.135 6.000,49.812 6.000 C 49.022 6.000,44.910 7.898,44.595 8.408 C 44.457 8.631,44.200 8.724,44.024 8.615 C 43.848 8.506,43.297 8.769,42.800 9.200 C 42.303 9.631,41.740 9.887,41.548 9.768 C 41.357 9.650,41.200 9.734,41.200 9.957 C 41.200 10.179,40.300 10.773,39.200 11.278 C 38.100 11.782,37.200 12.331,37.200 12.498 C 37.200 12.664,36.911 12.800,36.558 12.800 C 36.204 12.800,35.560 13.252,35.126 13.804 C 34.691 14.356,34.186 14.715,34.003 14.602 C 33.821 14.489,33.161 14.937,32.537 15.598 C 31.913 16.259,31.205 16.800,30.963 16.800 C 30.358 16.800,25.193 21.860,25.492 22.159 C 25.625 22.292,25.425 22.400,25.048 22.400 C 24.163 22.400,22.400 24.163,22.400 25.048 C 22.400 25.425,22.292 25.625,22.159 25.492 C 21.860 25.193,16.800 30.358,16.800 30.963 C 16.800 31.205,16.259 31.913,15.598 32.537 C 14.937 33.161,14.489 33.821,14.602 34.003 C 14.715 34.186,14.356 34.691,13.804 35.126 C 13.252 35.560,12.800 36.204,12.800 36.558 C 12.800 36.911,12.664 37.200,12.498 37.200 C 12.331 37.200,11.782 38.100,11.278 39.200 C 10.773 40.300,10.179 41.200,9.957 41.200 C 9.734 41.200,9.650 41.357,9.768 41.548 C 9.887 41.740,9.631 42.303,9.200 42.800 C 8.769 43.297,8.506 43.848,8.615 44.024 C 8.724 44.200,8.631 44.457,8.408 44.595 C 7.898 44.910,6.000 49.022,6.000 49.812 C 6.000 50.135,5.820 50.400,5.600 50.400 C 5.380 50.400,5.200 50.760,5.200 51.200 C 5.200 51.640,5.001 52.000,4.757 52.000 C 4.514 52.000,4.409 52.248,4.526 52.550 C 4.642 52.853,4.481 53.593,4.168 54.196 C 3.856 54.798,3.600 55.631,3.600 56.046 C 3.600 56.461,3.420 56.800,3.200 56.800 C 2.980 56.800,2.800 57.329,2.800 57.976 C 2.800 58.623,2.620 59.264,2.400 59.400 C 2.180 59.536,2.000 60.457,2.000 61.447 C 2.000 62.545,1.844 63.151,1.600 63.000 C 1.355 62.849,1.200 63.470,1.200 64.600 C 1.200 65.616,1.047 66.352,0.859 66.236 C 0.084 65.757,-0.000 78.841,-0.000 200.000 C -0.000 321.159,0.084 334.243,0.859 333.764 C 1.047 333.648,1.200 334.384,1.200 335.400 C 1.200 336.530,1.355 337.151,1.600 337.000 C 1.844 336.849,2.000 337.455,2.000 338.553 C 2.000 339.543,2.180 340.464,2.400 340.600 C 2.620 340.736,2.800 341.377,2.800 342.024 C 2.800 342.671,2.980 343.200,3.200 343.200 C 3.420 343.200,3.600 343.539,3.600 343.954 C 3.600 344.369,3.856 345.202,4.168 345.804 C 4.481 346.407,4.642 347.147,4.526 347.450 C 4.409 347.752,4.514 348.000,4.757 348.000 C 5.001 348.000,5.200 348.360,5.200 348.800 C 5.200 349.240,5.380 349.600,5.600 349.600 C 5.820 349.600,6.000 349.865,6.000 350.188 C 6.000 350.978,7.898 355.090,8.408 355.405 C 8.631 355.543,8.724 355.800,8.615 355.976 C 8.506 356.152,8.769 356.703,9.200 357.200 C 9.631 357.697,9.887 358.260,9.768 358.452 C 9.650 358.643,9.734 358.800,9.957 358.800 C 10.179 358.800,10.773 359.700,11.278 360.800 C 11.782 361.900,12.331 362.800,12.498 362.800 C 12.664 362.800,12.800 363.089,12.800 363.442 C 12.800 363.796,13.252 364.440,13.804 364.874 C 14.356 365.309,14.715 365.814,14.602 365.997 C 14.489 366.179,14.937 366.839,15.598 367.463 C 16.259 368.087,16.800 368.795,16.800 369.037 C 16.800 369.642,21.860 374.807,22.159 374.508 C 22.292 374.375,22.400 374.575,22.400 374.952 C 22.400 375.837,24.163 377.600,25.048 377.600 C 25.425 377.600,25.625 377.708,25.492 377.841 C 25.193 378.140,30.358 383.200,30.963 383.200 C 31.205 383.200,31.913 383.741,32.537 384.402 C 33.161 385.063,33.821 385.511,34.003 385.398 C 34.186 385.285,34.691 385.644,35.126 386.196 C 35.560 386.748,36.204 387.200,36.558 387.200 C 36.911 387.200,37.200 387.336,37.200 387.502 C 37.200 387.669,38.100 388.218,39.200 388.722 C 40.300 389.227,41.200 389.821,41.200 390.043 C 41.200 390.266,41.357 390.350,41.548 390.232 C 41.740 390.113,42.303 390.369,42.800 390.800 C 43.297 391.231,43.848 391.494,44.024 391.385 C 44.200 391.276,44.457 391.369,44.595 391.592 C 44.910 392.102,49.022 394.000,49.812 394.000 C 50.135 394.000,50.400 394.180,50.400 394.400 C 50.400 394.620,50.760 394.800,51.200 394.800 C 51.640 394.800,52.000 394.999,52.000 395.243 C 52.000 395.486,52.248 395.591,52.550 395.474 C 52.853 395.358,53.593 395.519,54.196 395.832 C 54.798 396.144,55.631 396.400,56.046 396.400 C 56.461 396.400,56.800 396.580,56.800 396.800 C 56.800 397.020,57.329 397.200,57.976 397.200 C 58.623 397.200,59.264 397.380,59.400 397.600 C 59.536 397.820,60.457 398.000,61.447 398.000 C 62.545 398.000,63.151 398.156,63.000 398.400 C 62.849 398.645,63.470 398.800,64.600 398.800 C 65.616 398.800,66.352 398.953,66.236 399.141 C 65.780 399.880,75.635 400.000,136.660 400.000 L 199.997 400.000 200.099 340.700 L 200.200 281.400 197.876 279.893 C 196.598 279.064,195.169 278.029,194.701 277.593 C 194.232 277.157,193.653 276.800,193.413 276.800 C 193.173 276.800,192.717 276.440,192.400 276.000 C 192.083 275.560,191.627 275.200,191.387 275.200 C 191.147 275.200,190.602 274.880,190.175 274.489 C 189.749 274.098,188.770 273.342,188.000 272.808 C 187.230 272.275,186.510 271.737,186.400 271.614 C 186.290 271.490,184.845 270.362,183.189 269.107 C 181.534 267.853,179.823 266.505,179.389 266.113 C 178.955 265.721,177.911 264.886,177.070 264.257 C 176.229 263.628,174.961 262.548,174.253 261.857 C 173.544 261.166,171.802 259.614,170.382 258.408 C 161.433 250.812,149.188 238.567,141.592 229.618 C 140.386 228.198,138.834 226.456,138.143 225.747 C 137.452 225.039,136.372 223.771,135.743 222.930 C 135.114 222.089,134.279 221.045,133.887 220.611 C 133.495 220.177,132.147 218.466,130.893 216.811 C 129.638 215.155,128.510 213.710,128.386 213.600 C 128.263 213.490,127.725 212.770,127.192 212.000 C 126.658 211.230,125.902 210.251,125.511 209.825 C 125.120 209.398,124.800 208.853,124.800 208.613 C 124.800 208.373,124.440 207.917,124.000 207.600 C 123.560 207.283,123.200 206.827,123.200 206.587 C 123.200 206.347,122.848 205.773,122.419 205.312 C 121.664 204.502,115.595 195.464,113.614 192.200 C 112.628 190.574,112.304 190.004,110.701 187.057 C 110.206 186.146,109.710 185.310,109.599 185.200 C 109.489 185.090,109.129 184.460,108.800 183.800 C 108.471 183.140,108.107 182.510,107.991 182.400 C 107.726 182.149,101.470 169.491,100.675 167.600 C 100.352 166.830,99.553 164.940,98.899 163.400 C 98.245 161.860,97.124 158.800,96.408 156.600 C 95.692 154.400,94.961 152.240,94.783 151.800 C 94.393 150.835,94.009 149.126,93.726 147.097 C 93.610 146.271,93.355 145.495,93.158 145.374 C 92.961 145.252,92.800 144.544,92.800 143.800 C 92.800 143.056,92.620 142.336,92.400 142.200 C 92.180 142.064,92.000 141.009,92.000 139.856 C 92.000 138.703,91.839 137.589,91.643 137.380 C 91.327 137.044,90.728 129.419,90.764 126.200 C 90.800 122.933,91.315 117.757,91.637 117.420 C 91.837 117.211,92.000 116.547,92.000 115.944 C 92.000 115.341,92.180 114.736,92.400 114.600 C 92.620 114.464,92.800 113.867,92.800 113.272 C 92.800 109.012,98.700 101.101,104.408 97.708 C 106.714 96.338,108.780 95.078,109.000 94.908 C 110.136 94.033,114.633 92.000,115.433 92.000 C 115.939 92.000,116.464 91.820,116.600 91.600 C 116.926 91.072,125.874 91.072,126.200 91.600 C 126.336 91.820,126.799 92.000,127.229 92.000 C 127.659 92.000,128.368 92.180,128.805 92.400 C 129.242 92.620,129.960 92.980,130.400 93.200 C 133.344 94.672,135.719 96.646,137.756 99.315 C 138.550 100.356,139.200 101.308,139.200 101.431 C 139.200 101.555,139.740 102.441,140.400 103.400 C 141.060 104.359,141.600 105.337,141.600 105.572 C 141.600 105.807,141.759 106.000,141.953 106.000 C 142.148 106.000,142.407 106.315,142.529 106.700 C 142.746 107.385,144.004 109.604,144.400 110.000 C 144.796 110.396,146.054 112.615,146.271 113.300 C 146.393 113.685,146.652 114.000,146.847 114.000 C 147.041 114.000,147.200 114.193,147.200 114.428 C 147.200 114.663,147.740 115.641,148.400 116.600 C 149.060 117.559,149.600 118.424,149.600 118.521 C 149.600 118.618,150.586 120.341,151.791 122.349 C 154.537 126.926,155.600 129.116,155.600 130.195 C 155.600 130.660,155.792 131.232,156.026 131.466 C 156.553 131.993,156.315 139.950,155.708 142.099 C 155.002 144.601,153.271 147.542,150.618 150.751 C 147.930 154.000,145.600 157.656,145.600 158.623 C 145.600 158.946,145.442 159.523,145.249 159.905 C 144.039 162.300,143.412 170.789,144.400 171.400 C 144.620 171.536,144.800 172.089,144.800 172.629 C 144.800 173.169,144.956 173.923,145.148 174.305 C 145.339 174.687,145.989 175.990,146.594 177.200 C 148.333 180.683,149.239 181.648,175.317 207.800 C 188.919 221.440,204.124 236.695,209.105 241.700 C 214.086 246.705,218.269 250.800,218.401 250.800 C 218.532 250.800,214.445 246.620,209.320 241.511 L 200.000 232.223 200.000 116.111 L 200.000 0.000 135.500 0.077 C 100.025 0.119,69.870 0.218,68.488 0.296 M274.000 246.179 C 274.000 246.289,274.540 246.659,275.200 247.000 C 275.860 247.341,276.400 247.531,276.400 247.421 C 276.400 247.311,275.860 246.941,275.200 246.600 C 274.540 246.259,274.000 246.069,274.000 246.179 M277.400 248.207 C 277.840 248.566,278.560 249.035,279.000 249.251 L 279.800 249.644 279.000 248.993 C 278.560 248.634,277.840 248.165,277.400 247.949 L 276.600 247.556 277.400 248.207 M281.400 250.607 C 281.840 250.966,282.560 251.435,283.000 251.651 L 283.800 252.044 283.000 251.393 C 282.560 251.034,281.840 250.565,281.400 250.349 L 280.600 249.956 281.400 250.607 M284.200 252.290 C 284.420 252.500,285.320 253.076,286.200 253.570 C 287.080 254.065,287.440 254.170,287.000 253.804 C 286.106 253.061,283.572 251.691,284.200 252.290 M221.600 252.979 C 221.600 253.089,222.140 253.459,222.800 253.800 C 223.460 254.141,224.000 254.331,224.000 254.221 C 224.000 254.111,223.460 253.741,222.800 253.400 C 222.140 253.059,221.600 252.869,221.600 252.979 M308.028 273.476 C 308.118 274.515,308.744 275.396,308.772 274.524 C 308.787 274.042,308.620 273.536,308.400 273.400 C 308.180 273.264,308.013 273.298,308.028 273.476 M202.407 282.936 C 205.128 284.764,206.000 285.290,206.000 285.103 C 206.000 284.850,201.695 282.000,201.313 282.000 C 201.149 282.000,201.641 282.421,202.407 282.936 M225.200 295.798 C 225.200 296.067,229.249 298.084,229.429 297.905 C 229.511 297.823,228.593 297.273,227.389 296.682 C 226.185 296.092,225.200 295.694,225.200 295.798 M301.414 296.635 C 301.041 297.204,300.805 297.738,300.889 297.822 C 300.973 297.907,301.358 297.441,301.744 296.788 C 302.606 295.328,302.348 295.209,301.414 296.635 M230.000 298.183 C 230.000 298.424,232.463 299.600,232.961 299.598 C 233.203 299.596,232.950 299.362,232.400 299.076 C 231.072 298.387,230.000 297.988,230.000 298.183 M298.400 300.684 C 296.606 302.534,296.606 302.536,298.200 301.209 C 299.567 300.071,300.718 298.770,300.320 298.813 C 300.254 298.820,299.390 299.662,298.400 300.684 M233.800 299.909 C 234.020 300.113,235.010 300.591,236.000 300.970 C 236.990 301.350,237.620 301.495,237.400 301.291 C 237.180 301.087,236.190 300.609,235.200 300.230 C 234.210 299.850,233.580 299.705,233.800 299.909 M262.200 308.400 C 262.336 308.620,262.842 308.787,263.324 308.772 C 264.169 308.745,264.171 308.731,263.400 308.400 C 262.299 307.927,261.908 307.927,262.200 308.400 M269.876 309.258 C 270.796 309.621,275.181 309.631,276.084 309.272 C 276.461 309.122,275.055 308.994,272.960 308.986 C 270.866 308.979,269.478 309.101,269.876 309.258 " stroke="none" fill="#84e494" fill-rule="evenodd"></path><path id="path1" d="M116.791 92.171 C 111.412 93.725,101.511 99.732,98.794 103.091 C 88.279 116.086,89.225 138.872,101.476 167.726 C 105.514 177.237,122.000 205.459,124.769 207.600 C 124.911 207.710,125.857 208.970,126.871 210.400 C 128.943 213.322,137.837 224.503,139.412 226.165 C 139.639 226.404,141.729 228.760,144.056 231.400 C 149.495 237.568,162.432 250.505,168.600 255.944 C 171.240 258.271,173.596 260.361,173.835 260.588 C 175.497 262.163,186.678 271.057,189.600 273.129 C 191.030 274.143,192.290 275.082,192.400 275.215 C 192.914 275.839,209.020 286.400,209.456 286.400 C 209.577 286.400,210.154 286.739,210.738 287.153 C 211.322 287.567,212.475 288.287,213.300 288.753 C 214.125 289.219,215.475 289.991,216.300 290.470 C 220.427 292.863,230.566 297.742,235.664 299.787 C 238.819 301.053,241.760 302.240,242.200 302.424 C 242.640 302.608,244.260 303.152,245.800 303.632 C 247.340 304.112,248.960 304.648,249.400 304.822 C 249.840 304.997,250.740 305.251,251.400 305.388 C 252.060 305.524,253.320 305.818,254.200 306.040 C 261.249 307.819,263.753 308.107,272.400 308.127 C 280.423 308.145,284.203 307.843,284.633 307.147 C 284.751 306.956,285.289 306.800,285.829 306.800 C 286.369 306.800,287.123 306.641,287.505 306.447 C 288.178 306.104,288.750 305.859,291.500 304.736 C 292.215 304.444,292.800 304.069,292.800 303.902 C 292.800 303.736,293.003 303.600,293.251 303.600 C 296.393 303.600,307.600 287.998,307.600 283.625 C 307.600 283.039,307.794 282.366,308.032 282.128 C 308.753 281.407,308.178 274.517,307.203 272.200 C 307.018 271.760,306.628 270.815,306.336 270.100 C 306.044 269.385,305.669 268.800,305.502 268.800 C 305.336 268.800,305.200 268.531,305.200 268.203 C 305.200 266.964,297.821 260.400,296.428 260.400 C 296.193 260.400,296.000 260.241,296.000 260.047 C 296.000 259.852,295.685 259.593,295.300 259.471 C 294.615 259.254,292.396 257.996,292.000 257.600 C 291.604 257.204,289.385 255.946,288.700 255.729 C 288.315 255.607,288.000 255.348,288.000 255.153 C 288.000 254.959,287.825 254.800,287.612 254.800 C 287.399 254.800,284.114 252.951,280.312 250.692 C 273.861 246.858,272.637 246.191,270.300 245.230 C 267.163 243.941,260.400 243.922,257.400 245.194 C 256.960 245.380,256.015 245.772,255.300 246.064 C 254.585 246.356,254.000 246.731,254.000 246.898 C 254.000 247.064,253.764 247.200,253.475 247.200 C 253.187 247.200,252.599 247.515,252.169 247.900 C 246.828 252.682,244.103 254.365,239.100 255.970 C 237.259 256.561,228.718 256.598,227.638 256.020 C 227.206 255.789,226.569 255.600,226.222 255.600 C 225.180 255.600,221.952 253.975,219.400 252.165 C 216.455 250.077,148.976 182.510,147.328 180.000 C 144.214 175.257,142.891 169.630,143.590 164.100 C 144.284 158.600,145.450 156.096,149.850 150.651 C 158.123 140.414,158.061 134.123,149.549 119.970 C 147.111 115.916,144.754 111.970,144.312 111.200 C 143.869 110.430,143.167 109.322,142.753 108.738 C 142.339 108.154,142.000 107.588,142.000 107.479 C 142.000 106.872,137.245 99.692,135.718 97.993 C 131.372 93.160,122.652 90.477,116.791 92.171 " stroke="none" fill="#f8f8f8" fill-rule="evenodd"></path><path id="path2" d="M200.000 116.118 L 200.000 232.235 209.700 241.858 C 219.210 251.291,223.051 254.400,225.198 254.400 C 225.613 254.400,226.064 254.580,226.200 254.800 C 226.336 255.020,226.966 255.200,227.600 255.200 C 228.234 255.200,228.864 255.380,229.000 255.600 C 229.324 256.124,237.076 256.124,237.400 255.600 C 237.536 255.380,238.089 255.200,238.629 255.200 C 239.169 255.200,239.923 255.036,240.305 254.835 C 240.687 254.634,242.045 253.986,243.323 253.394 C 244.600 252.803,247.140 251.087,248.967 249.582 C 252.388 246.762,256.472 244.400,257.926 244.400 C 258.381 244.400,258.864 244.220,259.000 244.000 C 259.331 243.465,268.800 243.465,268.800 244.000 C 268.800 244.220,269.218 244.400,269.729 244.400 C 271.062 244.400,274.515 246.167,281.600 250.477 C 285.010 252.551,288.250 254.508,288.800 254.824 C 289.350 255.141,289.890 255.490,290.000 255.600 C 290.110 255.710,290.605 256.025,291.100 256.300 C 291.595 256.575,292.405 257.025,292.900 257.300 C 293.395 257.575,293.890 257.890,294.000 258.000 C 294.396 258.396,296.615 259.654,297.300 259.871 C 297.685 259.993,298.000 260.252,298.000 260.447 C 298.000 260.641,298.178 260.800,298.396 260.800 C 298.613 260.800,299.828 261.593,301.096 262.561 C 304.171 264.912,306.119 267.578,307.700 271.600 C 307.916 272.150,308.252 272.913,308.447 273.295 C 308.938 274.259,308.897 283.093,308.400 283.400 C 308.180 283.536,308.000 284.061,308.000 284.567 C 308.000 285.498,305.653 290.487,305.100 290.733 C 304.935 290.807,304.800 291.038,304.800 291.247 C 304.800 291.992,299.878 299.816,298.849 300.708 C 296.870 302.422,294.543 303.939,291.973 305.193 C 290.558 305.883,289.087 306.617,288.705 306.824 C 288.323 307.031,287.569 307.200,287.029 307.200 C 286.489 307.200,285.936 307.380,285.800 307.600 C 285.664 307.820,284.933 308.000,284.176 308.000 C 283.419 308.000,282.800 308.162,282.800 308.359 C 282.800 309.458,263.366 309.463,262.220 308.364 C 262.011 308.164,260.897 308.000,259.744 308.000 C 258.591 308.000,257.536 307.820,257.400 307.600 C 257.264 307.380,256.544 307.200,255.800 307.200 C 255.056 307.200,254.336 307.020,254.200 306.800 C 254.064 306.580,253.344 306.400,252.600 306.400 C 251.856 306.400,251.136 306.220,251.000 306.000 C 250.864 305.780,250.311 305.600,249.771 305.600 C 249.231 305.600,248.477 305.441,248.095 305.246 C 247.713 305.051,246.140 304.499,244.600 304.019 C 241.332 303.000,236.956 301.407,234.400 300.306 C 232.026 299.283,217.857 292.290,217.600 292.014 C 217.490 291.895,216.862 291.529,216.205 291.199 C 215.548 290.870,213.886 289.925,212.512 289.100 C 211.138 288.275,209.914 287.600,209.791 287.600 C 209.668 287.600,209.080 287.261,208.484 286.846 C 206.558 285.507,200.378 281.600,200.186 281.600 C 200.084 281.600,200.000 308.240,200.000 340.800 L 200.000 400.000 263.139 400.000 C 323.975 400.000,333.820 399.880,333.364 399.141 C 333.248 398.953,334.288 398.797,335.676 398.794 C 337.453 398.790,338.022 398.673,337.600 398.400 C 337.152 398.111,337.372 398.011,338.467 398.006 C 339.273 398.003,339.993 397.828,340.067 397.618 C 340.140 397.407,340.875 397.190,341.700 397.136 C 342.525 397.081,343.200 396.893,343.200 396.718 C 343.200 396.543,343.562 396.400,344.005 396.400 C 344.448 396.400,345.123 396.242,345.505 396.049 C 347.618 394.981,349.306 394.418,349.689 394.655 C 349.949 394.815,350.009 394.737,349.838 394.462 C 349.657 394.169,349.860 394.000,350.393 394.000 C 350.855 394.000,351.620 393.640,352.092 393.200 C 352.564 392.760,353.204 392.400,353.514 392.400 C 353.823 392.400,354.602 392.026,355.244 391.569 C 355.886 391.111,356.623 390.808,356.881 390.894 C 357.139 390.980,357.683 390.717,358.090 390.310 C 358.496 389.904,359.003 389.678,359.215 389.809 C 359.427 389.940,359.600 389.846,359.600 389.600 C 359.600 389.354,359.747 389.244,359.927 389.355 C 360.107 389.466,360.507 389.207,360.815 388.779 C 361.124 388.350,361.529 388.000,361.716 388.000 C 362.159 388.000,365.760 385.544,365.933 385.123 C 366.007 384.945,366.320 384.800,366.630 384.800 C 366.940 384.800,367.418 384.440,367.693 384.000 C 367.968 383.560,368.419 383.200,368.696 383.200 C 368.973 383.200,369.200 383.020,369.200 382.800 C 369.200 382.580,369.470 382.400,369.800 382.400 C 370.130 382.400,370.400 382.220,370.400 382.000 C 370.400 381.780,370.601 381.600,370.847 381.600 C 371.320 381.600,373.583 379.211,373.594 378.700 C 373.597 378.535,373.960 378.400,374.400 378.400 C 374.840 378.400,375.155 378.175,375.100 377.900 C 375.045 377.625,375.180 377.415,375.400 377.433 C 375.783 377.465,377.760 375.615,377.787 375.200 C 377.794 375.090,377.935 375.045,378.100 375.100 C 378.265 375.155,378.400 374.840,378.400 374.400 C 378.400 373.960,378.535 373.597,378.700 373.594 C 379.211 373.583,381.600 371.320,381.600 370.847 C 381.600 370.601,381.780 370.400,382.000 370.400 C 382.220 370.400,382.400 370.130,382.400 369.800 C 382.400 369.470,382.580 369.200,382.800 369.200 C 383.020 369.200,383.200 368.973,383.200 368.696 C 383.200 368.419,383.560 367.968,384.000 367.693 C 384.440 367.418,384.800 366.940,384.800 366.630 C 384.800 366.320,384.945 366.007,385.123 365.933 C 385.544 365.760,388.000 362.159,388.000 361.716 C 388.000 361.529,388.350 361.124,388.779 360.815 C 389.207 360.507,389.466 360.107,389.355 359.927 C 389.244 359.747,389.354 359.600,389.600 359.600 C 389.846 359.600,389.940 359.427,389.809 359.215 C 389.678 359.003,389.904 358.496,390.310 358.090 C 390.717 357.683,390.980 357.139,390.894 356.881 C 390.808 356.623,391.111 355.886,391.569 355.244 C 392.026 354.602,392.400 353.823,392.400 353.514 C 392.400 353.204,392.760 352.564,393.200 352.092 C 393.640 351.620,394.000 350.855,394.000 350.393 C 394.000 349.860,394.169 349.657,394.462 349.838 C 394.737 350.009,394.815 349.949,394.655 349.689 C 394.418 349.306,394.981 347.618,396.049 345.505 C 396.242 345.123,396.400 344.448,396.400 344.005 C 396.400 343.562,396.543 343.200,396.718 343.200 C 396.893 343.200,397.081 342.525,397.136 341.700 C 397.190 340.875,397.407 340.140,397.618 340.067 C 397.828 339.993,398.003 339.273,398.006 338.467 C 398.011 337.372,398.111 337.152,398.400 337.600 C 398.673 338.022,398.790 337.453,398.794 335.676 C 398.797 334.288,398.953 333.248,399.141 333.364 C 399.916 333.842,400.000 320.779,400.000 200.000 C 400.000 79.221,399.916 66.158,399.141 66.636 C 398.953 66.752,398.797 65.712,398.794 64.324 C 398.790 62.547,398.673 61.978,398.400 62.400 C 398.111 62.848,398.011 62.628,398.006 61.533 C 398.003 60.727,397.828 60.007,397.618 59.933 C 397.407 59.860,397.190 59.125,397.136 58.300 C 397.081 57.475,396.893 56.800,396.718 56.800 C 396.543 56.800,396.400 56.438,396.400 55.995 C 396.400 55.552,396.242 54.877,396.049 54.495 C 394.981 52.382,394.418 50.694,394.655 50.311 C 394.815 50.051,394.737 49.991,394.462 50.162 C 394.169 50.343,394.000 50.140,394.000 49.607 C 394.000 49.145,393.640 48.380,393.200 47.908 C 392.760 47.436,392.400 46.796,392.400 46.486 C 392.400 46.177,392.026 45.398,391.569 44.756 C 391.111 44.114,390.808 43.377,390.894 43.119 C 390.980 42.861,390.717 42.317,390.310 41.910 C 389.904 41.504,389.678 40.997,389.809 40.785 C 389.940 40.573,389.846 40.400,389.600 40.400 C 389.354 40.400,389.244 40.253,389.355 40.073 C 389.466 39.893,389.207 39.493,388.779 39.185 C 388.350 38.876,388.000 38.471,388.000 38.284 C 388.000 37.841,385.544 34.240,385.123 34.067 C 384.945 33.993,384.800 33.680,384.800 33.370 C 384.800 33.060,384.440 32.582,384.000 32.307 C 383.560 32.032,383.200 31.581,383.200 31.304 C 383.200 31.027,383.020 30.800,382.800 30.800 C 382.580 30.800,382.400 30.530,382.400 30.200 C 382.400 29.870,382.220 29.600,382.000 29.600 C 381.780 29.600,381.600 29.399,381.600 29.153 C 381.600 28.680,379.211 26.417,378.700 26.406 C 378.535 26.403,378.400 26.040,378.400 25.600 C 378.400 25.160,378.265 24.845,378.100 24.900 C 377.935 24.955,377.710 24.827,377.600 24.615 C 377.201 23.847,375.790 22.534,375.400 22.567 C 375.180 22.585,375.045 22.375,375.100 22.100 C 375.155 21.825,374.840 21.600,374.400 21.600 C 373.960 21.600,373.597 21.465,373.594 21.300 C 373.583 20.789,371.320 18.400,370.847 18.400 C 370.601 18.400,370.400 18.220,370.400 18.000 C 370.400 17.780,370.130 17.600,369.800 17.600 C 369.470 17.600,369.200 17.420,369.200 17.200 C 369.200 16.980,368.973 16.800,368.696 16.800 C 368.419 16.800,367.968 16.440,367.693 16.000 C 367.418 15.560,366.940 15.200,366.630 15.200 C 366.320 15.200,366.007 15.055,365.933 14.877 C 365.760 14.456,362.159 12.000,361.716 12.000 C 361.529 12.000,361.124 11.650,360.815 11.221 C 360.507 10.793,360.107 10.534,359.927 10.645 C 359.747 10.756,359.600 10.646,359.600 10.400 C 359.600 10.154,359.427 10.060,359.215 10.191 C 359.003 10.322,358.496 10.096,358.090 9.690 C 357.683 9.283,357.139 9.020,356.881 9.106 C 356.623 9.192,355.886 8.889,355.244 8.431 C 354.602 7.974,353.823 7.600,353.514 7.600 C 353.204 7.600,352.564 7.240,352.092 6.800 C 351.620 6.360,350.855 6.000,350.393 6.000 C 349.860 6.000,349.657 5.831,349.838 5.538 C 350.009 5.263,349.949 5.185,349.689 5.345 C 349.306 5.582,347.618 5.019,345.505 3.951 C 345.123 3.758,344.448 3.600,344.005 3.600 C 343.562 3.600,343.200 3.457,343.200 3.282 C 343.200 3.107,342.525 2.919,341.700 2.864 C 340.875 2.810,340.140 2.593,340.067 2.382 C 339.993 2.172,339.273 1.997,338.467 1.994 C 337.372 1.989,337.152 1.889,337.600 1.600 C 338.022 1.327,337.453 1.210,335.676 1.206 C 334.288 1.203,333.248 1.047,333.364 0.859 C 333.820 0.120,323.975 0.000,263.139 0.000 L 200.000 0.000 200.000 116.118 " stroke="none" fill="#64cc74" fill-rule="evenodd"></path><path id="path3" d="M116.600 91.600 C 116.308 92.073,116.699 92.073,117.800 91.600 C 118.571 91.269,118.569 91.255,117.724 91.228 C 117.242 91.213,116.736 91.380,116.600 91.600 M124.033 91.344 C 124.505 91.750,126.443 91.993,126.210 91.616 C 126.068 91.387,125.483 91.200,124.910 91.200 C 124.336 91.200,123.942 91.265,124.033 91.344 M132.433 94.520 C 132.525 94.587,133.757 95.712,135.171 97.020 C 136.585 98.329,137.473 99.001,137.143 98.514 C 136.446 97.483,133.021 94.400,132.572 94.400 C 132.404 94.400,132.342 94.454,132.433 94.520 M105.284 97.066 C 104.340 97.635,103.648 98.181,103.747 98.280 C 103.924 98.457,107.200 96.433,107.200 96.147 C 107.200 95.921,107.117 95.960,105.284 97.066 M101.308 99.567 C 100.422 100.209,98.852 101.874,97.820 103.267 C 96.417 105.161,96.329 105.346,97.472 104.000 C 99.539 101.566,101.199 99.919,102.400 99.113 C 102.950 98.744,103.292 98.433,103.160 98.421 C 103.028 98.409,102.195 98.925,101.308 99.567 M138.206 100.512 C 138.592 101.124,139.009 101.524,139.132 101.401 C 139.255 101.278,138.939 100.778,138.430 100.289 L 137.504 99.400 138.206 100.512 M142.986 108.300 C 143.335 109.015,143.706 109.600,143.810 109.600 C 144.208 109.600,143.952 108.963,143.167 108.000 L 142.352 107.000 142.986 108.300 M145.386 112.300 C 145.735 113.015,146.106 113.600,146.210 113.600 C 146.608 113.600,146.352 112.963,145.567 112.000 L 144.752 111.000 145.386 112.300 M147.910 116.400 C 149.834 119.816,152.885 124.800,153.051 124.800 C 153.232 124.800,151.658 121.936,150.414 120.000 C 150.060 119.450,149.545 118.550,149.268 118.000 C 148.991 117.450,148.394 116.550,147.942 116.000 L 147.121 115.000 147.910 116.400 M91.467 117.467 C 91.320 117.613,91.221 118.378,91.246 119.167 L 91.292 120.600 91.604 119.000 C 91.931 117.319,91.905 117.028,91.467 117.467 M90.620 125.300 C 90.501 126.015,90.565 127.230,90.761 128.000 C 91.079 129.246,91.123 129.103,91.159 126.700 C 91.203 123.802,90.970 123.196,90.620 125.300 M153.878 126.595 C 154.244 127.362,154.614 127.919,154.701 127.832 C 154.884 127.649,153.670 125.200,153.396 125.200 C 153.295 125.200,153.512 125.828,153.878 126.595 M155.840 132.266 C 156.208 133.799,156.400 133.944,156.400 132.690 C 156.400 132.117,156.213 131.532,155.984 131.390 C 155.711 131.221,155.662 131.523,155.840 132.266 M91.240 135.876 C 91.218 136.578,91.380 137.264,91.600 137.400 C 92.060 137.684,92.060 137.036,91.600 135.600 C 91.294 134.645,91.278 134.657,91.240 135.876 M155.829 139.829 C 155.681 140.415,155.651 140.984,155.761 141.094 C 155.871 141.204,156.081 140.815,156.229 140.229 C 156.376 139.642,156.406 139.073,156.296 138.963 C 156.186 138.853,155.976 139.242,155.829 139.829 M92.000 140.910 C 92.000 141.483,92.187 142.068,92.416 142.210 C 92.689 142.379,92.738 142.077,92.560 141.334 C 92.192 139.801,92.000 139.656,92.000 140.910 M153.215 146.773 C 152.987 147.198,151.551 149.075,150.024 150.943 C 147.555 153.964,145.239 157.600,145.784 157.600 C 145.894 157.600,146.341 156.900,146.777 156.044 C 147.214 155.189,148.818 152.963,150.343 151.098 C 152.989 147.861,154.261 146.000,153.828 146.000 C 153.718 146.000,153.442 146.348,153.215 146.773 M93.612 147.600 C 93.612 147.930,93.787 148.470,94.000 148.800 C 94.345 149.333,94.388 149.333,94.388 148.800 C 94.388 148.470,94.213 147.930,94.000 147.600 C 93.655 147.067,93.612 147.067,93.612 147.600 M95.212 153.200 C 95.212 153.530,95.387 154.070,95.600 154.400 C 95.945 154.933,95.988 154.933,95.988 154.400 C 95.988 154.070,95.813 153.530,95.600 153.200 C 95.255 152.667,95.212 152.667,95.212 153.200 M145.246 158.267 C 145.221 158.524,145.084 159.064,144.941 159.467 C 144.740 160.036,144.794 160.097,145.179 159.742 C 145.452 159.491,145.589 158.951,145.484 158.542 C 145.379 158.134,145.272 158.010,145.246 158.267 M97.628 160.092 C 97.582 160.565,98.886 163.648,99.058 163.475 C 99.145 163.388,98.866 162.525,98.437 161.558 C 98.008 160.591,97.644 159.931,97.628 160.092 M99.830 165.600 C 100.209 166.590,100.687 167.580,100.891 167.800 C 101.095 168.020,100.950 167.390,100.570 166.400 C 100.191 165.410,99.713 164.420,99.509 164.200 C 99.305 163.980,99.450 164.610,99.830 165.600 M143.693 166.800 C 143.693 167.570,143.775 167.885,143.876 167.500 C 143.976 167.115,143.976 166.485,143.876 166.100 C 143.775 165.715,143.693 166.030,143.693 166.800 M102.000 170.547 C 102.000 170.980,103.988 174.800,104.213 174.800 C 104.323 174.800,103.939 173.855,103.359 172.700 C 102.243 170.479,102.000 170.094,102.000 170.547 M144.028 171.476 C 144.118 172.515,144.744 173.396,144.772 172.524 C 144.787 172.042,144.620 171.536,144.400 171.400 C 144.180 171.264,144.013 171.298,144.028 171.476 M146.844 178.500 C 148.143 180.980,153.363 186.404,179.271 212.200 C 194.739 227.600,205.595 238.340,203.397 236.066 C 201.199 233.792,188.146 220.652,174.390 206.866 C 160.354 192.798,148.785 180.879,148.023 179.700 C 146.624 177.536,146.012 176.913,146.844 178.500 M111.400 188.400 C 111.741 189.060,112.111 189.600,112.221 189.600 C 112.331 189.600,112.141 189.060,111.800 188.400 C 111.459 187.740,111.089 187.200,110.979 187.200 C 110.869 187.200,111.059 187.740,111.400 188.400 M112.409 190.137 C 112.404 190.322,112.760 190.931,113.200 191.491 C 113.640 192.050,113.996 192.349,113.991 192.154 C 113.979 191.687,112.420 189.700,112.409 190.137 M115.012 194.400 C 115.624 195.514,119.306 200.997,119.713 201.400 C 120.310 201.990,119.752 201.044,117.475 197.600 C 115.604 194.771,114.249 193.011,115.012 194.400 M120.837 203.200 C 121.996 204.996,122.000 205.001,121.998 204.567 C 121.997 204.365,121.532 203.660,120.965 203.000 L 119.934 201.800 120.837 203.200 M124.822 208.600 C 124.827 209.129,125.942 210.591,126.169 210.365 C 126.266 210.268,126.002 209.741,125.582 209.194 C 125.161 208.647,124.820 208.380,124.822 208.600 M129.540 215.116 C 130.033 215.809,130.644 216.504,130.897 216.660 C 131.150 216.817,130.954 216.377,130.460 215.684 C 129.967 214.991,129.356 214.296,129.103 214.140 C 128.850 213.983,129.046 214.423,129.540 215.116 M131.824 217.973 C 132.767 219.365,134.400 221.241,134.399 220.931 C 134.398 220.749,133.723 219.868,132.899 218.973 C 132.075 218.079,131.591 217.629,131.824 217.973 M135.529 222.600 C 136.693 224.293,138.375 226.160,138.561 225.965 C 138.647 225.874,137.815 224.810,136.711 223.600 C 135.608 222.390,135.076 221.940,135.529 222.600 M141.200 229.325 C 141.200 229.394,141.773 229.979,142.474 230.625 L 143.749 231.800 142.774 230.522 C 141.947 229.437,141.200 228.869,141.200 229.325 M146.200 234.760 C 149.387 238.378,160.870 250.043,162.974 251.800 C 163.238 252.020,164.264 252.920,165.254 253.800 C 166.244 254.680,164.460 252.880,161.290 249.800 C 158.120 246.720,153.068 241.667,150.063 238.572 C 147.058 235.476,145.320 233.761,146.200 234.760 M213.400 246.400 C 215.371 248.380,217.073 250.000,217.183 250.000 C 217.293 250.000,215.771 248.380,213.800 246.400 C 211.829 244.420,210.127 242.800,210.017 242.800 C 209.907 242.800,211.429 244.420,213.400 246.400 M231.100 256.295 C 232.255 256.376,234.145 256.376,235.300 256.295 C 236.455 256.214,235.510 256.148,233.200 256.148 C 230.890 256.148,229.945 256.214,231.100 256.295 M169.371 257.497 C 170.015 258.209,170.630 258.704,170.738 258.596 C 170.845 258.488,170.858 258.355,170.767 258.300 C 170.675 258.245,170.060 257.751,169.400 257.201 L 168.200 256.203 169.371 257.497 M293.200 258.020 C 294.587 258.961,295.378 259.235,294.400 258.436 C 293.850 257.986,293.220 257.617,293.000 257.615 C 292.780 257.613,292.870 257.796,293.200 258.020 M174.000 261.430 C 174.000 261.739,175.622 263.223,177.300 264.450 C 179.084 265.755,178.564 265.094,176.200 263.053 C 174.990 262.009,174.000 261.278,174.000 261.430 M301.600 263.325 C 301.600 263.394,302.185 263.979,302.900 264.625 L 304.200 265.800 303.025 264.500 C 301.930 263.288,301.600 263.016,301.600 263.325 M180.069 266.676 C 182.312 268.488,182.737 268.677,181.027 267.101 C 180.132 266.277,179.251 265.602,179.069 265.601 C 178.887 265.600,179.337 266.084,180.069 266.676 M183.340 269.103 C 183.496 269.356,184.191 269.967,184.884 270.460 C 185.577 270.954,186.017 271.150,185.860 270.897 C 185.704 270.644,185.009 270.033,184.316 269.540 C 183.623 269.046,183.183 268.850,183.340 269.103 M189.600 273.895 C 189.600 274.284,191.214 275.319,191.451 275.082 C 191.547 274.986,191.169 274.610,190.612 274.245 C 190.056 273.880,189.600 273.722,189.600 273.895 M308.544 278.800 C 308.544 280.890,308.612 281.745,308.694 280.700 C 308.776 279.655,308.776 277.945,308.694 276.900 C 308.612 275.855,308.544 276.710,308.544 278.800 M195.233 278.130 C 195.325 278.201,196.030 278.666,196.800 279.163 L 198.200 280.066 197.000 279.035 C 196.340 278.468,195.635 278.003,195.433 278.002 C 195.232 278.001,195.142 278.058,195.233 278.130 M259.300 307.876 C 259.685 307.976,260.315 307.976,260.700 307.876 C 261.085 307.775,260.770 307.693,260.000 307.693 C 259.230 307.693,258.915 307.775,259.300 307.876 M265.100 308.689 C 265.815 308.778,266.985 308.778,267.700 308.689 C 268.415 308.601,267.830 308.528,266.400 308.528 C 264.970 308.528,264.385 308.601,265.100 308.689 M278.500 308.687 C 279.105 308.778,280.095 308.778,280.700 308.687 C 281.305 308.595,280.810 308.520,279.600 308.520 C 278.390 308.520,277.895 308.595,278.500 308.687 M272.100 309.087 C 272.705 309.178,273.695 309.178,274.300 309.087 C 274.905 308.995,274.410 308.920,273.200 308.920 C 271.990 308.920,271.495 308.995,272.100 309.087 " stroke="none" fill="#a1e7a9" fill-rule="evenodd"></path><path id="path4" d="M116.670 91.826 C 114.500 92.418,110.214 94.382,109.000 95.341 C 108.560 95.688,109.739 95.214,111.619 94.286 C 120.473 89.919,129.740 91.344,135.718 97.993 C 137.245 99.692,142.000 106.872,142.000 107.479 C 142.000 107.588,142.339 108.154,142.753 108.738 C 143.167 109.322,143.866 110.430,144.307 111.200 C 146.142 114.411,148.880 118.800,149.048 118.800 C 149.305 118.800,148.891 118.072,144.621 111.024 C 142.519 107.555,140.800 104.638,140.800 104.541 C 140.800 103.844,136.471 98.180,134.707 96.567 C 129.744 92.031,122.701 90.180,116.670 91.826 M106.081 96.972 C 105.356 97.484,104.636 98.039,104.481 98.203 C 104.064 98.647,106.473 97.359,107.400 96.643 C 108.675 95.659,107.537 95.942,106.081 96.972 M101.792 99.576 C 99.976 100.864,96.614 104.968,95.378 107.406 C 93.508 111.095,93.055 112.472,91.829 118.200 C 91.141 121.413,90.978 132.797,91.576 135.869 C 91.782 136.931,92.159 139.060,92.414 140.600 C 92.668 142.140,93.032 143.940,93.224 144.600 C 93.416 145.260,93.677 146.316,93.806 146.947 C 93.934 147.578,94.130 148.003,94.241 147.892 C 94.353 147.781,94.074 146.163,93.623 144.296 C 91.043 133.622,90.939 122.106,93.346 113.500 C 94.625 108.928,99.616 100.854,101.567 100.199 C 102.417 99.914,104.305 98.415,103.800 98.427 C 103.580 98.432,102.676 98.949,101.792 99.576 M149.750 120.200 C 150.074 120.860,150.631 121.760,150.989 122.200 C 151.597 122.948,151.601 122.922,151.050 121.800 C 150.726 121.140,150.169 120.240,149.811 119.800 C 149.203 119.052,149.199 119.078,149.750 120.200 M152.786 125.278 C 153.472 126.532,154.373 128.512,154.788 129.678 C 155.202 130.845,155.555 131.473,155.571 131.074 C 155.606 130.201,153.174 124.927,152.216 123.800 C 151.843 123.360,152.099 124.025,152.786 125.278 M155.791 135.921 C 155.796 138.147,155.922 139.660,156.072 139.284 C 156.419 138.412,156.404 134.101,156.051 132.837 C 155.902 132.307,155.785 133.694,155.791 135.921 M155.254 140.867 C 155.225 141.234,155.084 141.864,154.941 142.267 C 154.741 142.833,154.795 142.896,155.175 142.546 C 155.446 142.297,155.587 141.667,155.488 141.146 C 155.390 140.626,155.284 140.500,155.254 140.867 M152.868 146.575 C 152.411 147.350,150.858 149.408,149.418 151.148 C 147.978 152.889,146.800 154.448,146.800 154.612 C 146.800 154.980,151.209 149.647,152.869 147.272 C 153.534 146.321,153.992 145.459,153.888 145.355 C 153.784 145.251,153.325 145.800,152.868 146.575 M94.446 148.933 C 94.362 150.266,99.420 164.713,99.829 164.305 C 99.929 164.205,99.714 163.420,99.352 162.561 C 98.664 160.932,95.044 150.392,94.694 149.000 C 94.517 148.296,94.487 148.288,94.446 148.933 M145.440 157.300 C 144.917 158.455,144.262 160.117,143.985 160.994 C 143.343 163.021,143.334 171.226,143.972 172.251 C 144.386 172.916,144.408 172.890,144.168 172.024 C 143.176 168.440,144.160 160.460,146.059 156.700 C 146.475 155.875,146.721 155.200,146.604 155.200 C 146.487 155.200,145.963 156.145,145.440 157.300 M100.800 167.121 C 100.800 167.506,108.277 182.508,109.511 184.600 C 109.901 185.260,110.988 187.105,111.927 188.700 C 112.867 190.295,113.724 191.600,113.832 191.600 C 114.076 191.600,113.758 191.005,111.373 186.998 C 108.954 182.934,101.600 168.466,101.600 167.771 C 101.600 167.483,101.420 167.136,101.200 167.000 C 100.980 166.864,100.800 166.919,100.800 167.121 M144.428 173.704 C 144.392 174.609,145.813 177.695,147.327 180.000 C 148.451 181.711,215.060 248.807,218.000 251.190 C 218.770 251.814,204.041 236.997,185.269 218.262 C 147.127 180.198,147.095 180.163,144.980 174.422 C 144.692 173.640,144.444 173.317,144.428 173.704 M114.000 192.123 C 114.000 192.511,121.621 203.943,124.185 207.400 C 125.326 208.940,126.691 210.830,127.217 211.600 C 127.743 212.370,128.407 213.241,128.693 213.535 C 128.978 213.829,129.703 214.729,130.303 215.535 C 132.113 217.965,136.393 223.226,138.972 226.191 C 140.307 227.726,141.850 229.518,142.400 230.172 C 146.853 235.473,164.527 253.147,169.828 257.600 C 170.482 258.150,172.274 259.693,173.809 261.028 C 176.774 263.607,182.035 267.887,184.465 269.697 C 185.271 270.297,186.171 271.022,186.465 271.307 C 186.759 271.593,187.630 272.257,188.400 272.783 C 189.170 273.309,191.060 274.673,192.600 275.814 C 196.562 278.750,202.835 282.899,203.025 282.709 C 203.112 282.621,200.912 281.037,198.134 279.188 C 195.357 277.340,192.885 275.637,192.642 275.405 C 192.399 275.173,191.030 274.151,189.600 273.134 C 186.661 271.045,175.479 262.146,173.835 260.588 C 173.596 260.361,171.240 258.271,168.600 255.944 C 162.432 250.505,149.495 237.568,144.056 231.400 C 141.729 228.760,139.639 226.404,139.412 226.165 C 137.837 224.503,128.943 213.322,126.871 210.400 C 125.857 208.970,124.911 207.710,124.769 207.600 C 124.626 207.490,122.303 204.070,119.604 200.000 C 114.642 192.514,114.000 191.612,114.000 192.123 M262.905 243.887 C 263.514 243.979,264.414 243.977,264.905 243.882 C 265.397 243.787,264.900 243.711,263.800 243.714 C 262.700 243.717,262.297 243.795,262.905 243.887 M259.000 244.400 L 257.800 244.705 259.000 244.747 C 259.660 244.769,260.470 244.613,260.800 244.400 C 261.543 243.920,260.887 243.920,259.000 244.400 M267.200 244.400 C 267.530 244.613,268.250 244.773,268.800 244.754 L 269.800 244.720 268.800 244.400 C 267.258 243.906,266.436 243.906,267.200 244.400 M256.600 245.094 C 255.600 245.347,254.057 246.400,254.687 246.400 C 254.943 246.400,255.264 246.220,255.400 246.000 C 255.536 245.780,255.986 245.600,256.400 245.600 C 256.814 245.600,257.264 245.420,257.400 245.200 C 257.536 244.980,257.592 244.821,257.524 244.846 C 257.456 244.872,257.040 244.984,256.600 245.094 M270.200 245.200 C 270.336 245.420,270.696 245.600,270.999 245.600 C 271.553 245.600,275.334 247.545,277.200 248.789 C 278.904 249.926,282.000 251.643,282.000 251.451 C 282.000 251.212,275.812 247.493,272.902 245.983 C 270.511 244.742,269.788 244.533,270.200 245.200 M252.600 247.237 C 251.940 247.695,251.670 247.964,252.000 247.835 C 252.330 247.706,252.915 247.489,253.300 247.354 C 253.685 247.218,254.000 246.948,254.000 246.753 C 254.000 246.276,253.972 246.286,252.600 247.237 M248.074 250.828 C 246.465 252.133,245.295 253.200,245.474 253.200 C 245.653 253.199,247.121 252.119,248.736 250.800 C 250.350 249.480,251.520 248.413,251.336 248.428 C 251.151 248.444,249.683 249.524,248.074 250.828 M283.000 252.211 C 283.440 252.569,284.340 253.126,285.000 253.450 C 286.122 254.001,286.148 253.997,285.400 253.389 C 284.960 253.031,284.060 252.474,283.400 252.150 C 282.278 251.599,282.252 251.603,283.000 252.211 M237.600 256.000 C 237.067 256.345,237.067 256.388,237.600 256.388 C 237.930 256.388,238.470 256.213,238.800 256.000 C 239.333 255.655,239.333 255.612,238.800 255.612 C 238.470 255.612,237.930 255.787,237.600 256.000 M297.400 260.653 C 297.620 260.867,298.846 261.828,300.123 262.788 C 301.401 263.748,302.796 264.978,303.223 265.521 C 303.651 266.064,304.000 266.314,304.000 266.077 C 304.000 265.570,300.136 262.166,298.286 261.043 C 297.579 260.614,297.180 260.438,297.400 260.653 M304.569 266.800 C 304.696 267.130,304.911 267.715,305.046 268.100 C 305.182 268.485,305.459 268.800,305.661 268.800 C 306.024 268.800,305.675 268.006,304.783 266.800 C 304.388 266.267,304.365 266.267,304.569 266.800 M307.634 273.800 C 307.622 274.240,307.787 274.870,308.000 275.200 C 308.514 275.995,308.514 274.996,308.000 273.800 L 307.656 273.000 307.634 273.800 M307.867 282.267 C 307.720 282.413,307.611 282.908,307.625 283.367 C 307.649 284.133,307.682 284.123,308.034 283.242 C 308.426 282.263,308.344 281.789,307.867 282.267 M203.600 282.920 C 203.600 283.279,210.084 287.371,214.000 289.483 C 215.489 290.286,215.627 290.313,214.800 289.636 C 214.250 289.186,213.652 288.814,213.472 288.809 C 213.292 288.804,212.359 288.260,211.400 287.600 C 210.441 286.940,209.543 286.400,209.406 286.400 C 209.269 286.400,208.131 285.711,206.878 284.870 C 204.094 282.999,203.600 282.706,203.600 282.920 M305.829 288.061 C 305.104 289.515,305.061 289.733,305.561 289.424 C 305.926 289.198,306.884 286.800,306.608 286.800 C 306.526 286.800,306.175 287.368,305.829 288.061 M303.930 291.500 C 303.393 292.325,302.081 294.489,301.015 296.308 C 299.161 299.472,294.766 303.600,293.251 303.600 C 293.003 303.600,292.800 303.780,292.800 304.000 C 292.800 304.220,292.541 304.400,292.224 304.400 C 291.907 304.400,291.537 304.578,291.403 304.795 C 291.022 305.412,292.397 304.801,294.400 303.464 C 297.398 301.463,299.795 299.333,300.399 298.135 C 300.714 297.511,301.272 296.550,301.639 296.000 C 302.006 295.450,302.691 294.314,303.161 293.474 C 303.631 292.635,304.302 291.510,304.654 290.974 C 305.005 290.439,305.205 290.000,305.099 290.000 C 304.993 290.000,304.467 290.675,303.930 291.500 M216.000 290.590 C 216.000 290.694,216.585 291.065,217.300 291.414 L 218.600 292.048 217.600 291.233 C 216.637 290.448,216.000 290.192,216.000 290.590 M232.168 298.748 C 232.322 298.997,232.619 299.200,232.828 299.200 C 233.037 299.200,234.062 299.578,235.104 300.040 C 236.147 300.502,237.450 301.063,238.000 301.287 C 238.550 301.510,239.313 301.852,239.695 302.047 C 240.077 302.241,240.664 302.400,241.000 302.400 C 241.336 302.400,241.923 302.576,242.305 302.791 C 243.451 303.436,249.288 305.245,249.509 305.024 C 249.622 304.911,249.464 304.749,249.157 304.663 C 247.496 304.199,242.890 302.712,242.200 302.417 C 241.760 302.229,239.429 301.293,237.019 300.338 C 234.609 299.382,232.469 298.532,232.263 298.448 C 232.057 298.365,232.014 298.500,232.168 298.748 M250.800 305.600 C 252.342 306.094,253.164 306.094,252.400 305.600 C 252.070 305.387,251.350 305.227,250.800 305.246 L 249.800 305.280 250.800 305.600 M289.200 305.595 C 288.870 305.786,288.259 306.050,287.843 306.181 C 287.426 306.312,287.185 306.518,287.307 306.640 C 287.429 306.762,288.309 306.503,289.264 306.064 C 290.219 305.626,290.730 305.263,290.400 305.257 C 290.070 305.252,289.530 305.403,289.200 305.595 M254.000 306.400 C 255.542 306.894,256.364 306.894,255.600 306.400 C 255.270 306.187,254.550 306.027,254.000 306.046 L 253.000 306.080 254.000 306.400 M256.433 306.947 C 256.525 307.028,257.320 307.214,258.200 307.362 C 259.346 307.554,259.630 307.514,259.200 307.221 C 258.660 306.853,256.032 306.593,256.433 306.947 M284.600 307.200 C 284.308 307.673,284.699 307.673,285.800 307.200 C 286.571 306.869,286.569 306.855,285.724 306.828 C 285.242 306.813,284.736 306.980,284.600 307.200 M261.233 307.747 C 261.325 307.828,262.120 308.014,263.000 308.162 C 264.146 308.354,264.430 308.314,264.000 308.021 C 263.460 307.653,260.832 307.393,261.233 307.747 M281.000 308.000 L 280.200 308.344 281.000 308.344 C 281.440 308.344,282.160 308.189,282.600 308.000 L 283.400 307.656 282.600 307.656 C 282.160 307.656,281.440 307.811,281.000 308.000 M270.900 308.696 C 272.165 308.775,274.235 308.775,275.500 308.696 C 276.765 308.616,275.730 308.551,273.200 308.551 C 270.670 308.551,269.635 308.616,270.900 308.696 " stroke="none" fill="#b9eec1" fill-rule="evenodd"></path></g></svg>