<svg id="svg" version="1.1" width="400" height="400" viewBox="0 0 400 400" xmlns="http://www.w3.org/2000/svg" xmlns:xlink="http://www.w3.org/1999/xlink"><g id="svgg"><path id="path0" d="M218.731 255.100 C 233.763 255.158,258.243 255.158,273.131 255.100 C 288.019 255.042,275.720 254.994,245.800 254.994 C 215.880 254.994,203.699 255.042,218.731 255.100 M98.700 261.482 C 99.195 261.578,100.005 261.578,100.500 261.482 C 100.995 261.387,100.590 261.309,99.600 261.309 C 98.610 261.309,98.205 261.387,98.700 261.482 M21.524 298.302 C 21.454 299.151,21.203 299.763,20.944 299.715 C 20.409 299.615,19.720 317.670,20.190 319.489 C 20.347 320.100,20.567 321.455,20.677 322.500 C 20.787 323.545,21.040 324.400,21.239 324.400 C 21.437 324.400,21.600 325.019,21.600 325.776 C 21.600 326.533,21.780 327.264,22.000 327.400 C 22.220 327.536,22.400 327.997,22.400 328.424 C 22.400 328.851,22.535 329.201,22.700 329.203 C 23.065 329.207,24.000 331.149,24.000 331.903 C 24.000 332.202,24.180 332.336,24.400 332.200 C 24.620 332.064,24.800 332.334,24.800 332.800 C 24.800 333.266,24.980 333.536,25.200 333.400 C 25.420 333.264,25.600 333.507,25.600 333.941 C 25.600 334.374,26.154 335.195,26.831 335.764 C 27.508 336.334,27.951 336.800,27.815 336.800 C 27.680 336.800,28.403 337.610,29.421 338.600 C 30.440 339.590,31.443 340.400,31.649 340.400 C 31.856 340.400,32.129 340.670,32.255 341.000 C 32.382 341.330,32.826 341.600,33.243 341.600 C 33.659 341.600,34.000 341.780,34.000 342.000 C 34.000 342.220,34.360 342.400,34.800 342.400 C 35.240 342.400,35.600 342.580,35.600 342.800 C 35.600 343.020,35.960 343.200,36.400 343.200 C 36.840 343.200,37.200 343.380,37.200 343.600 C 37.200 343.820,37.560 344.000,38.000 344.000 C 38.440 344.000,38.800 344.180,38.800 344.400 C 38.800 344.620,39.340 344.800,40.000 344.800 C 40.660 344.800,41.200 344.962,41.200 345.160 C 41.200 346.038,53.317 346.111,200.000 346.111 C 346.683 346.111,358.800 346.038,358.800 345.160 C 358.800 344.962,359.340 344.800,360.000 344.800 C 360.660 344.800,361.200 344.620,361.200 344.400 C 361.200 344.180,361.560 344.000,362.000 344.000 C 362.440 344.000,362.800 343.820,362.800 343.600 C 362.800 343.380,363.160 343.200,363.600 343.200 C 364.040 343.200,364.400 343.020,364.400 342.800 C 364.400 342.580,364.760 342.400,365.200 342.400 C 365.640 342.400,366.000 342.220,366.000 342.000 C 366.000 341.780,366.360 341.600,366.800 341.600 C 367.240 341.600,367.600 341.432,367.600 341.227 C 367.600 341.022,367.960 340.740,368.400 340.600 C 368.840 340.460,369.200 340.088,369.200 339.773 C 369.200 339.458,369.382 339.200,369.604 339.200 C 369.826 339.200,370.572 338.660,371.263 338.000 C 371.954 337.340,372.388 336.800,372.229 336.800 C 372.069 336.800,372.492 336.334,373.169 335.764 C 373.846 335.195,374.400 334.385,374.400 333.964 C 374.400 333.544,374.580 333.200,374.800 333.200 C 375.020 333.200,375.200 332.919,375.200 332.576 C 375.200 332.207,375.388 332.069,375.662 332.238 C 375.936 332.407,376.015 332.349,375.858 332.094 C 375.712 331.858,375.864 331.393,376.196 331.061 C 376.528 330.729,376.800 330.270,376.800 330.041 C 376.800 329.812,377.160 328.983,377.600 328.200 C 378.040 327.417,378.400 326.277,378.400 325.668 C 378.400 325.059,378.562 324.389,378.759 324.180 C 378.956 323.971,379.212 323.080,379.327 322.200 C 379.442 321.320,379.662 320.100,379.816 319.489 C 380.281 317.651,379.588 299.615,379.056 299.715 C 378.797 299.763,378.546 299.150,378.476 298.299 L 378.352 296.799 200.000 296.801 L 21.648 296.804 21.524 298.302 " stroke="none" fill="#8704fc" fill-rule="evenodd"></path><path id="path1" d="M44.400 53.999 C 44.070 54.213,43.215 54.391,42.500 54.394 C 41.785 54.397,41.200 54.580,41.200 54.800 C 41.200 55.020,40.761 55.200,40.224 55.200 C 39.687 55.200,39.136 55.380,39.000 55.600 C 38.864 55.820,38.403 56.000,37.976 56.000 C 37.549 56.000,37.200 56.180,37.200 56.400 C 37.200 56.620,36.840 56.800,36.400 56.800 C 35.960 56.800,35.599 56.935,35.597 57.100 C 35.593 57.437,33.675 58.400,33.009 58.400 C 32.771 58.400,32.324 58.750,32.015 59.179 C 31.707 59.607,31.307 59.866,31.127 59.755 C 30.947 59.644,30.800 59.863,30.800 60.243 C 30.800 60.623,30.685 60.818,30.544 60.677 C 30.253 60.386,27.600 63.150,27.600 63.745 C 27.600 63.959,27.487 64.021,27.349 63.883 C 27.039 63.572,25.466 65.693,24.519 67.700 C 24.130 68.525,23.674 69.200,23.506 69.200 C 23.338 69.200,23.200 69.465,23.200 69.788 C 23.200 70.111,22.840 71.017,22.400 71.800 C 21.960 72.583,21.600 73.759,21.600 74.412 C 21.600 75.065,21.420 75.600,21.200 75.600 C 20.980 75.600,20.800 76.511,20.800 77.624 C 20.800 79.136,20.674 79.571,20.300 79.347 C 20.009 79.172,20.050 79.361,20.400 79.800 C 20.730 80.214,20.789 80.427,20.531 80.272 C 20.175 80.059,20.074 83.875,20.112 96.096 C 20.155 109.947,20.195 110.941,20.393 103.200 C 20.570 96.285,20.658 95.219,20.772 98.600 C 20.872 101.574,20.998 102.481,21.160 101.400 L 21.400 99.800 200.000 99.800 L 378.600 99.800 378.840 101.400 C 379.002 102.481,379.128 101.574,379.228 98.600 C 379.343 95.212,379.430 96.269,379.609 103.200 C 379.804 110.759,379.848 109.558,379.882 95.700 C 379.906 86.102,379.772 79.200,379.562 79.200 C 379.363 79.200,379.200 78.491,379.200 77.624 C 379.200 76.757,379.020 75.936,378.800 75.800 C 378.580 75.664,378.400 74.843,378.400 73.976 C 378.400 73.109,378.265 72.399,378.100 72.397 C 377.779 72.394,376.800 70.488,376.800 69.867 C 376.800 69.662,376.485 69.203,376.100 68.847 C 375.715 68.491,375.344 67.930,375.275 67.600 C 374.946 66.027,369.441 59.600,368.422 59.600 C 368.176 59.600,367.872 59.331,367.746 59.002 C 367.619 58.674,367.370 58.495,367.190 58.606 C 367.011 58.717,366.593 58.536,366.261 58.204 C 365.929 57.872,365.374 57.600,365.029 57.600 C 364.683 57.600,364.400 57.420,364.400 57.200 C 364.400 56.980,364.040 56.800,363.600 56.800 C 363.160 56.800,362.800 56.620,362.800 56.400 C 362.800 56.180,362.440 56.000,362.000 56.000 C 361.560 56.000,361.200 55.820,361.200 55.600 C 361.200 55.380,360.660 55.200,360.000 55.200 C 359.340 55.200,358.800 55.039,358.800 54.842 C 358.800 53.834,45.951 52.996,44.400 53.999 " stroke="none" fill="#d804fc" fill-rule="evenodd"></path><path id="path2" d="M20.301 152.600 C 20.136 160.080,20.040 182.220,20.087 201.800 C 20.134 221.380,20.229 235.240,20.298 232.600 L 20.423 227.800 62.911 228.005 C 86.280 228.118,105.466 228.253,105.547 228.305 C 105.627 228.357,105.602 228.749,105.490 229.176 C 105.313 229.853,105.386 229.891,106.059 229.476 C 106.483 229.214,106.927 228.616,107.047 228.146 C 107.210 227.502,107.477 227.347,108.132 227.515 C 108.933 227.721,108.953 227.681,108.400 226.994 C 107.853 226.317,107.865 226.275,108.530 226.524 C 108.985 226.695,109.512 226.543,109.930 226.121 C 110.557 225.488,110.556 225.462,109.913 225.705 C 109.535 225.848,109.127 225.806,109.007 225.611 C 108.736 225.173,110.243 224.656,110.796 224.998 C 111.018 225.135,111.200 225.069,111.200 224.851 C 111.200 224.632,111.584 224.332,112.053 224.183 C 112.653 223.993,112.759 223.822,112.410 223.606 C 112.058 223.388,112.042 223.221,112.357 223.026 C 112.601 222.876,112.985 222.867,113.211 223.007 C 113.437 223.147,114.139 222.707,114.772 222.030 C 115.404 221.354,116.027 220.800,116.157 220.800 C 116.287 220.800,116.909 220.260,117.540 219.600 C 118.171 218.940,118.816 218.400,118.975 218.400 C 119.133 218.400,119.997 217.680,120.895 216.800 C 121.793 215.920,122.679 215.200,122.864 215.200 C 123.049 215.200,123.200 214.941,123.200 214.624 C 123.200 214.307,123.408 213.919,123.662 213.762 C 123.971 213.571,124.018 213.662,123.803 214.038 C 123.627 214.347,123.876 214.195,124.357 213.700 C 124.838 213.205,125.404 212.800,125.616 212.800 C 125.827 212.800,126.000 212.500,126.000 212.133 C 126.000 211.767,126.104 211.571,126.231 211.697 C 126.358 211.824,126.962 211.404,127.574 210.764 C 128.186 210.124,128.898 209.600,129.156 209.600 C 129.414 209.600,129.789 209.195,129.988 208.700 C 130.187 208.205,130.361 208.031,130.375 208.313 C 130.389 208.596,131.002 208.236,131.737 207.513 C 132.472 206.791,133.847 205.570,134.792 204.800 C 140.823 199.886,140.826 199.972,134.400 194.813 C 133.190 193.842,131.813 192.624,131.339 192.107 C 130.726 191.437,130.418 191.315,130.271 191.683 C 130.148 191.988,130.050 191.886,130.032 191.433 C 130.014 191.012,129.890 190.777,129.756 190.911 C 129.621 191.045,128.461 190.085,127.178 188.778 C 125.894 187.470,124.736 186.400,124.604 186.400 C 124.472 186.400,123.936 185.995,123.413 185.500 C 120.247 182.503,119.200 181.581,119.200 181.791 C 119.200 181.921,118.570 181.397,117.800 180.627 C 117.030 179.857,116.400 179.298,116.400 179.386 C 116.400 179.474,115.564 178.744,114.541 177.765 C 113.519 176.785,112.595 176.071,112.488 176.178 C 112.381 176.285,111.429 175.490,110.372 174.410 C 109.235 173.249,108.372 172.642,108.257 172.924 C 108.134 173.225,108.045 173.180,108.015 172.800 C 107.988 172.470,107.420 171.750,106.752 171.200 C 106.084 170.650,104.840 169.570,103.988 168.800 C 103.137 168.030,101.862 166.950,101.156 166.400 C 100.450 165.850,99.541 165.085,99.136 164.700 C 98.731 164.315,98.310 164.000,98.200 164.000 C 98.090 164.000,98.045 163.913,98.100 163.808 C 98.219 163.579,96.701 162.472,96.371 162.547 C 96.029 162.626,94.800 161.315,94.800 160.871 C 94.800 160.528,93.611 159.858,93.264 160.006 C 93.190 160.038,92.633 159.510,92.029 158.832 C 91.424 158.154,90.675 157.597,90.364 157.594 C 89.902 157.589,89.909 157.517,90.400 157.200 C 90.800 156.942,90.833 156.810,90.500 156.806 C 90.225 156.803,89.997 156.485,89.994 156.100 C 89.989 155.496,89.930 155.482,89.563 156.000 C 89.231 156.467,89.177 156.352,89.318 155.477 C 89.454 154.625,89.360 154.406,88.928 154.572 C 88.615 154.692,88.461 154.625,88.586 154.423 C 88.711 154.221,88.621 153.937,88.387 153.792 C 88.095 153.611,88.119 153.339,88.465 152.921 C 88.878 152.423,88.847 152.224,88.291 151.817 C 87.918 151.544,87.739 151.194,87.895 151.039 C 88.050 150.883,87.912 150.589,87.588 150.384 C 87.210 150.145,87.174 150.010,87.487 150.006 C 87.756 150.003,87.878 149.748,87.760 149.440 C 87.642 149.133,87.766 148.745,88.035 148.579 C 88.373 148.370,88.425 148.450,88.203 148.838 C 87.952 149.279,87.993 149.298,88.396 148.926 C 88.811 148.542,88.784 148.327,88.254 147.797 C 87.470 147.013,87.378 146.518,88.133 147.145 C 88.534 147.477,88.667 147.451,88.667 147.039 C 88.667 146.386,87.511 146.467,87.288 147.135 C 87.172 147.483,78.818 147.600,53.980 147.600 L 20.827 147.600 20.714 143.300 C 20.651 140.935,20.465 145.120,20.301 152.600 M379.276 143.300 L 379.200 147.600 372.300 147.602 C 368.505 147.603,309.709 147.602,241.643 147.600 C 150.413 147.597,117.744 147.715,117.343 148.047 C 117.044 148.295,116.800 148.326,116.800 148.116 C 116.800 147.905,116.547 147.733,116.238 147.733 C 115.929 147.733,115.768 147.973,115.881 148.267 C 115.993 148.560,116.347 148.800,116.666 148.800 C 116.986 148.800,117.144 148.967,117.018 149.170 C 116.888 149.381,117.497 149.491,118.432 149.424 C 119.335 149.360,119.851 149.445,119.579 149.613 C 119.224 149.832,119.299 149.982,119.842 150.143 C 120.259 150.266,120.025 150.317,119.321 150.256 C 118.618 150.195,118.133 150.292,118.245 150.472 C 118.356 150.653,118.807 150.800,119.247 150.800 C 119.687 150.800,119.952 150.954,119.836 151.142 C 119.720 151.329,120.069 151.685,120.613 151.933 C 121.156 152.180,121.600 152.577,121.600 152.815 C 121.600 153.053,121.780 153.136,122.000 153.000 C 122.220 152.864,122.400 153.123,122.400 153.576 C 122.400 154.125,122.659 154.400,123.177 154.400 C 123.605 154.400,124.206 154.759,124.513 155.197 C 124.820 155.636,125.174 155.892,125.299 155.767 C 125.425 155.642,125.646 155.913,125.790 156.370 C 125.935 156.826,126.322 157.200,126.651 157.200 C 126.979 157.200,127.136 157.380,127.000 157.600 C 126.864 157.820,127.014 158.000,127.334 158.000 C 127.653 158.000,128.028 158.296,128.167 158.657 C 128.305 159.019,128.536 159.197,128.680 159.054 C 128.823 158.910,129.809 159.695,130.871 160.797 C 131.934 161.898,132.970 162.800,133.174 162.800 C 133.379 162.800,133.665 163.174,133.810 163.630 C 133.954 164.087,134.155 164.378,134.256 164.278 C 134.463 164.071,135.556 164.953,138.484 167.691 C 139.596 168.731,140.690 169.468,140.915 169.329 C 141.149 169.184,141.202 169.273,141.038 169.538 C 140.881 169.792,140.942 170.000,141.173 170.000 C 141.405 170.000,142.075 170.540,142.663 171.200 C 143.251 171.860,143.813 172.320,143.911 172.222 C 144.009 172.125,144.535 172.574,145.080 173.222 C 145.625 173.870,146.247 174.400,146.462 174.400 C 146.676 174.400,147.729 175.300,148.800 176.400 C 149.871 177.500,150.905 178.400,151.096 178.400 C 151.287 178.400,152.532 179.449,153.863 180.731 C 155.194 182.013,156.894 183.492,157.641 184.018 C 158.389 184.543,159.199 185.160,159.443 185.387 C 159.686 185.614,161.121 186.880,162.632 188.200 C 166.894 191.924,168.400 193.483,168.400 194.169 C 168.400 194.516,168.580 194.800,168.800 194.800 C 169.020 194.800,169.200 195.239,169.200 195.776 C 169.200 196.313,169.380 196.864,169.600 197.000 C 169.820 197.136,170.000 198.486,170.000 200.000 C 170.000 201.514,169.820 202.864,169.600 203.000 C 169.380 203.136,169.200 203.614,169.200 204.062 C 169.200 205.547,166.964 208.181,162.800 211.600 C 161.595 212.590,160.247 213.770,159.804 214.222 C 159.362 214.674,158.370 215.478,157.600 216.008 C 155.750 217.284,155.200 217.841,155.200 218.438 C 155.200 218.710,155.088 218.821,154.950 218.683 C 154.813 218.546,153.828 219.301,152.762 220.362 C 151.696 221.422,150.728 222.195,150.612 222.078 C 150.495 221.962,150.400 222.087,150.400 222.357 C 150.400 222.629,150.192 222.719,149.932 222.558 C 149.620 222.365,149.547 222.484,149.712 222.914 C 149.886 223.367,149.787 223.493,149.380 223.337 C 149.013 223.196,148.800 223.365,148.800 223.795 C 148.800 224.169,148.440 224.569,148.000 224.684 C 147.560 224.799,147.200 225.052,147.200 225.247 C 147.200 225.441,146.934 225.600,146.609 225.600 C 146.284 225.600,145.724 226.050,145.363 226.600 C 145.003 227.150,144.492 227.600,144.229 227.600 C 143.575 227.600,141.392 229.925,141.729 230.262 C 141.878 230.411,142.000 230.323,142.000 230.067 C 142.000 229.810,142.281 229.600,142.624 229.600 C 142.967 229.600,143.147 229.438,143.024 229.239 C 142.667 228.661,145.638 227.078,146.139 227.579 C 146.778 228.218,194.079 228.161,194.720 227.520 C 195.093 227.147,195.200 227.147,195.200 227.520 C 195.200 228.159,225.417 228.219,225.812 227.581 C 225.993 227.288,226.225 227.289,226.579 227.583 C 226.932 227.875,250.357 227.973,303.332 227.902 L 379.577 227.800 379.702 232.600 C 379.771 235.240,379.841 219.850,379.857 198.400 C 379.873 176.950,379.766 154.810,379.619 149.200 C 379.472 143.590,379.317 140.935,379.276 143.300 M113.689 145.937 C 113.318 146.172,113.460 146.390,114.201 146.728 C 115.156 147.163,115.196 147.140,114.798 146.397 C 114.311 145.486,114.364 145.508,113.689 145.937 M140.276 230.590 C 139.878 230.883,139.706 231.219,139.895 231.335 C 140.377 231.633,141.328 230.979,141.149 230.474 C 141.053 230.205,140.742 230.246,140.276 230.590 M100.484 233.572 C 100.007 234.217,99.103 235.048,98.476 235.419 C 97.848 235.790,97.095 236.477,96.803 236.947 C 96.301 237.753,96.314 237.767,97.036 237.200 C 97.456 236.870,97.944 236.375,98.120 236.100 C 98.296 235.825,98.603 235.600,98.802 235.600 C 99.296 235.600,101.200 233.661,101.200 233.158 C 101.200 232.935,101.368 232.856,101.572 232.983 C 101.777 233.109,102.058 233.030,102.196 232.807 C 102.800 231.828,101.265 232.515,100.484 233.572 M134.706 235.372 C 134.324 235.651,134.130 235.996,134.273 236.140 C 134.669 236.536,135.278 236.450,135.021 236.034 C 134.897 235.833,135.021 235.588,135.298 235.489 C 135.574 235.390,135.710 235.210,135.599 235.087 C 135.489 234.965,135.087 235.093,134.706 235.372 M93.265 239.794 C 92.750 240.077,92.481 240.403,92.667 240.518 C 92.852 240.632,93.428 240.383,93.946 239.963 C 95.008 239.103,94.671 239.019,93.265 239.794 " stroke="none" fill="#b704fc" fill-rule="evenodd"></path><path id="path3" d="M109.257 225.156 C 108.944 225.354,108.877 225.600,109.098 225.737 C 109.309 225.868,109.824 225.716,110.241 225.400 C 111.103 224.748,110.239 224.534,109.257 225.156 M144.613 227.178 C 144.470 227.410,144.498 227.607,144.676 227.616 C 144.854 227.625,144.500 227.903,143.888 228.235 C 143.277 228.567,142.882 229.009,143.012 229.219 C 143.141 229.429,142.967 229.600,142.624 229.600 C 142.281 229.600,142.000 229.791,142.000 230.024 C 142.000 230.257,141.820 230.336,141.600 230.200 C 141.380 230.064,141.200 230.233,141.200 230.576 C 141.200 230.919,141.020 231.222,140.800 231.250 C 140.580 231.278,140.220 231.345,140.000 231.400 C 139.780 231.455,139.420 231.523,139.200 231.550 C 138.980 231.578,138.800 231.791,138.800 232.024 C 138.800 232.257,139.008 232.319,139.262 232.162 C 139.541 231.989,139.615 232.052,139.449 232.321 C 139.298 232.565,138.879 232.652,138.518 232.513 C 138.030 232.326,137.925 232.428,138.110 232.910 C 138.286 233.367,138.188 233.493,137.780 233.337 C 137.416 233.197,137.200 233.363,137.200 233.781 C 137.200 234.147,137.020 234.336,136.800 234.200 C 136.580 234.064,136.400 234.244,136.400 234.600 C 136.400 234.956,136.265 235.165,136.100 235.066 C 135.674 234.807,134.791 235.852,135.124 236.221 C 135.276 236.390,135.085 236.414,134.700 236.276 C 134.315 236.138,134.000 236.189,134.000 236.390 C 134.000 236.591,133.470 237.068,132.822 237.451 C 132.174 237.834,131.718 238.267,131.808 238.413 C 131.899 238.560,131.484 238.931,130.886 239.238 C 130.289 239.545,128.945 240.653,127.901 241.699 C 126.857 242.746,125.867 243.623,125.701 243.648 C 125.061 243.747,124.018 244.685,124.269 244.936 C 124.414 245.081,124.278 245.203,123.967 245.206 C 123.655 245.210,122.791 245.750,122.046 246.406 C 121.301 247.063,120.851 247.601,121.046 247.602 C 121.241 247.603,120.658 248.098,119.750 248.702 C 118.843 249.306,117.223 250.655,116.150 251.700 C 115.078 252.745,114.067 253.600,113.905 253.600 C 113.743 253.600,112.706 254.500,111.600 255.600 C 110.494 256.700,109.412 257.600,109.195 257.600 C 108.978 257.600,108.800 257.780,108.800 258.000 C 108.800 258.220,108.612 258.400,108.383 258.400 C 108.154 258.400,107.569 258.775,107.083 259.234 C 101.948 264.083,91.312 260.961,88.973 253.918 C 88.001 250.991,88.214 247.060,89.475 244.694 C 89.854 243.982,90.131 243.276,90.090 243.124 C 90.050 242.973,90.363 242.739,90.788 242.604 C 91.212 242.469,91.670 242.008,91.806 241.580 C 91.943 241.151,92.232 240.800,92.451 240.800 C 92.669 240.800,92.763 240.663,92.660 240.496 C 92.556 240.329,93.167 239.855,94.018 239.441 C 94.868 239.028,95.526 238.489,95.482 238.245 C 95.437 238.000,95.599 237.836,95.843 237.881 C 96.086 237.925,96.525 237.514,96.818 236.967 C 97.111 236.420,97.581 236.060,97.862 236.169 C 98.144 236.277,98.498 236.165,98.649 235.921 C 98.826 235.635,98.723 235.582,98.362 235.773 C 98.053 235.936,98.245 235.708,98.789 235.266 C 99.333 234.824,99.922 234.552,100.099 234.661 C 100.275 234.770,100.377 234.711,100.325 234.530 C 100.124 233.830,101.266 232.400,102.027 232.400 C 102.466 232.400,102.928 232.131,103.054 231.802 C 103.181 231.474,103.449 231.307,103.652 231.432 C 103.854 231.557,103.994 231.511,103.963 231.330 C 103.803 230.410,104.020 229.813,104.334 230.308 C 104.569 230.677,104.804 230.540,105.196 229.808 C 105.492 229.254,105.599 228.666,105.434 228.501 C 105.269 228.335,86.095 228.110,62.826 228.000 L 20.519 227.800 20.259 234.964 C 20.117 238.904,20.036 257.174,20.080 275.564 C 20.125 293.954,20.260 306.840,20.380 304.200 C 20.518 301.202,20.750 299.475,21.000 299.600 C 21.222 299.711,21.455 299.133,21.524 298.302 L 21.648 296.804 200.000 296.801 L 378.352 296.799 378.476 298.208 C 378.544 298.983,378.780 299.568,379.000 299.508 C 379.242 299.443,379.487 301.297,379.620 304.200 C 379.740 306.840,379.875 293.954,379.920 275.564 C 379.964 257.174,379.883 238.904,379.741 234.964 L 379.481 227.800 303.284 227.902 C 250.342 227.973,226.932 227.875,226.579 227.583 C 226.225 227.289,225.993 227.288,225.812 227.581 C 225.417 228.219,195.200 228.159,195.200 227.520 C 195.200 227.147,195.093 227.147,194.720 227.520 C 193.906 228.334,147.074 228.198,145.823 227.378 C 145.192 226.965,144.787 226.898,144.613 227.178 M303.739 255.549 C 304.102 255.851,304.400 255.971,304.400 255.816 C 304.400 254.435,310.547 260.212,310.768 261.800 C 310.798 262.020,311.032 262.920,311.287 263.800 C 311.873 265.826,311.999 267.954,311.547 268.232 C 311.356 268.351,311.200 268.954,311.200 269.573 C 311.200 272.264,308.920 275.180,305.369 277.031 L 302.742 278.400 246.130 278.400 L 189.518 278.400 186.359 276.907 C 184.281 275.925,183.200 275.187,183.200 274.750 C 183.200 274.384,182.934 273.983,182.609 273.859 C 180.783 273.158,178.916 264.317,180.400 263.400 C 180.620 263.264,180.800 262.713,180.800 262.176 C 180.800 261.639,180.950 261.200,181.132 261.200 C 181.315 261.200,181.720 260.705,182.032 260.100 C 182.733 258.743,183.037 258.424,184.800 257.206 C 185.570 256.674,186.290 256.140,186.400 256.019 C 186.632 255.765,187.137 255.636,189.600 255.201 C 193.052 254.592,302.989 254.927,303.739 255.549 " stroke="none" fill="#9704fc" fill-rule="evenodd"></path><path id="path4" d="M20.300 107.565 C 20.135 114.916,20.040 129.136,20.089 139.165 C 20.162 154.159,20.217 155.765,20.400 148.200 C 20.522 143.140,20.663 140.935,20.711 143.300 L 20.800 147.600 53.856 147.600 C 84.125 147.600,86.953 147.544,87.395 146.939 C 87.778 146.416,87.945 146.387,88.201 146.801 C 88.413 147.145,88.367 147.227,88.066 147.041 C 87.768 146.857,87.694 146.980,87.854 147.396 C 88.118 148.085,88.384 147.991,88.589 147.137 C 88.660 146.841,88.836 146.240,88.979 145.800 C 89.123 145.360,89.187 144.885,89.121 144.745 C 89.054 144.605,89.450 144.107,90.000 143.639 C 90.550 143.171,90.820 142.836,90.600 142.894 C 90.380 142.952,90.195 142.820,90.188 142.600 C 90.182 142.380,90.411 142.254,90.697 142.320 C 90.984 142.385,91.484 142.173,91.809 141.848 C 92.511 141.146,92.593 140.634,91.938 141.038 C 91.650 141.216,91.585 141.148,91.766 140.855 C 91.925 140.598,92.250 140.507,92.488 140.655 C 92.726 140.802,93.119 140.670,93.361 140.361 C 93.967 139.586,95.618 138.780,97.024 138.572 C 99.365 138.226,102.070 138.189,102.263 138.502 C 102.371 138.677,102.672 138.788,102.930 138.746 C 103.586 138.642,105.664 139.534,106.474 140.267 C 106.846 140.603,107.339 140.761,107.570 140.618 C 107.825 140.461,107.897 140.603,107.753 140.979 C 107.583 141.423,107.762 141.600,108.381 141.600 C 108.857 141.600,109.136 141.780,109.000 142.000 C 108.864 142.220,108.957 142.400,109.208 142.400 C 109.458 142.400,110.362 143.150,111.216 144.066 C 112.070 144.982,113.181 145.766,113.685 145.808 C 114.261 145.856,114.580 146.126,114.545 146.538 C 114.515 146.897,114.650 147.093,114.845 146.972 C 115.040 146.851,115.200 147.023,115.200 147.353 C 115.200 147.739,115.487 147.899,116.000 147.800 C 116.440 147.715,116.800 147.838,116.800 148.072 C 116.800 148.361,116.975 148.353,117.343 148.047 C 117.744 147.715,150.413 147.597,241.643 147.600 C 309.709 147.602,368.505 147.603,372.300 147.602 L 379.200 147.600 379.289 143.300 C 379.337 140.935,379.478 143.140,379.600 148.200 C 379.750 154.394,379.833 150.342,379.856 135.800 C 379.889 113.846,379.479 90.027,379.215 98.600 C 379.125 101.538,379.000 102.468,378.840 101.400 L 378.600 99.800 199.900 99.800 L 21.200 99.800 21.121 101.400 C 21.077 102.280,20.942 101.020,20.821 98.600 C 20.657 95.338,20.522 97.658,20.300 107.565 M87.800 148.800 C 87.664 149.020,87.664 149.380,87.800 149.600 C 87.936 149.820,87.812 150.003,87.524 150.006 C 87.113 150.011,87.119 150.087,87.551 150.361 C 87.854 150.553,87.990 150.892,87.854 151.113 C 87.717 151.335,87.883 151.623,88.223 151.754 C 88.563 151.884,88.750 151.842,88.638 151.661 C 88.526 151.480,88.389 150.672,88.335 149.866 C 88.229 148.287,88.179 148.187,87.800 148.800 M118.695 149.477 C 117.654 149.748,118.276 150.407,119.524 150.354 C 120.302 150.320,120.390 150.253,119.842 150.113 C 119.233 149.957,119.194 149.850,119.642 149.566 C 120.225 149.196,119.890 149.165,118.695 149.477 " stroke="none" fill="#cc04fc" fill-rule="evenodd"></path></g></svg>