<?xml version="1.0" encoding="UTF-8"?>
<svg version="1.1" xmlns="http://www.w3.org/2000/svg" width="225" height="225">
<path d="M0 0 C74.25 0 148.5 0 225 0 C225 74.25 225 148.5 225 225 C150.75 225 76.5 225 0 225 C0 150.75 0 76.5 0 0 Z " fill="#000000" transform="translate(0,0)"/>
<path d="M0 0 C1.12591553 0.00523682 2.25183105 0.01047363 3.41186523 0.01586914 C4.62680664 0.0190918 5.84174805 0.02231445 7.09350586 0.02563477 C8.37290039 0.03401367 9.65229492 0.04239258 10.97045898 0.05102539 C12.2537207 0.05553711 13.53698242 0.06004883 14.85913086 0.06469727 C18.04211921 0.07652994 21.22501661 0.09301471 24.40795898 0.11352539 C29.48454779 12.59142598 34.32266146 25.12737833 38.88006592 37.80392456 C40.5808789 42.53360837 42.29373735 47.25893132 44.00561523 51.98461914 C44.53771606 53.45449028 44.53771606 53.45449028 45.08056641 54.95405579 C49.26631924 66.50420837 53.52187238 78.02849702 57.78295898 89.55102539 C58.15339325 90.55373474 58.52382751 91.55644409 58.90548706 92.58953857 C59.95493281 95.42988345 61.00542022 98.26984027 62.05639648 101.10961914 C62.52250587 102.37069237 62.52250587 102.37069237 62.99803162 103.65724182 C63.28718948 104.43744186 63.57634735 105.21764191 63.87426758 106.02148438 C64.27267853 107.09920609 64.27267853 107.09920609 64.67913818 108.19869995 C65.28499437 109.79046139 65.9446382 111.36162415 66.61743164 112.92626953 C67.40795898 115.11352539 67.40795898 115.11352539 67.40795898 119.11352539 C57.50795898 119.11352539 47.60795898 119.11352539 37.40795898 119.11352539 C34.81714275 112.2046821 32.57791491 105.16588214 30.40795898 98.11352539 C10.60795898 97.61852539 10.60795898 97.61852539 -9.59204102 97.11352539 C-9.92204102 99.42352539 -10.25204102 101.73352539 -10.59204102 104.11352539 C-11.16455078 106.28515625 -11.16455078 106.28515625 -11.78344727 108.07836914 C-11.98397705 108.66996826 -12.18450684 109.26156738 -12.39111328 109.87109375 C-12.64304443 110.59047119 -12.89497559 111.30984863 -13.15454102 112.05102539 C-14.36110352 115.54696289 -14.36110352 115.54696289 -15.59204102 119.11352539 C-25.49204102 119.11352539 -35.39204102 119.11352539 -45.59204102 119.11352539 C-44.46700557 112.36331272 -44.46700557 112.36331272 -43.20361328 108.89550781 C-42.92076477 108.11132477 -42.63791626 107.32714172 -42.34649658 106.51919556 C-42.03694031 105.67762909 -41.72738403 104.83606262 -41.40844727 103.96899414 C-41.08124695 103.06684174 -40.75404663 102.16468933 -40.41693115 101.23519897 C-39.33456441 98.25525881 -38.24466717 95.27813485 -37.15454102 92.30102539 C-36.39464675 90.21449119 -35.63513145 88.12781895 -34.87597656 86.04101562 C-32.45600566 79.39558155 -30.02459724 72.75436082 -27.59204102 66.11352539 C-26.76844042 63.86321191 -25.94487262 61.61288642 -25.12133789 59.36254883 C-20.27392209 46.12100229 -15.42110543 32.88139015 -10.53155518 19.65533447 C-9.90964926 17.97279879 -9.2885036 16.28998188 -8.66815186 14.60687256 C-7.8266377 12.32546365 -6.98147494 10.04544489 -6.13500977 7.76586914 C-5.8890657 7.09753555 -5.64312164 6.42920197 -5.38972473 5.74061584 C-3.30268606 0.14465 -3.30268606 0.14465 0 0 Z " fill="#FBFBFB" transform="translate(101.592041015625,52.886474609375)"/>
<path d="M0 0 C2.4006532 3.60097981 3.40950696 7.27749735 4.6015625 11.38671875 C4.8428891 12.20372757 5.0842157 13.02073639 5.33285522 13.86250305 C6.1016971 16.46945247 6.86342773 19.0784187 7.625 21.6875 C8.14536597 23.45651775 8.66619379 25.22539972 9.1875 26.99414062 C10.46457076 31.32764029 11.73200454 35.66379481 13 40 C4.75 40 -3.5 40 -12 40 C-8.62187711 26.48750844 -8.62187711 26.48750844 -6.9921875 21.2109375 C-6.64542969 20.08558594 -6.29867187 18.96023437 -5.94140625 17.80078125 C-5.58949219 16.67027344 -5.23757812 15.53976563 -4.875 14.375 C-4.51535156 13.20582031 -4.15570313 12.03664063 -3.78515625 10.83203125 C-1.1381079 2.27621581 -1.1381079 2.27621581 0 0 Z " fill="#060606" transform="translate(112,87)"/>
<path d="M0 0 C1.31441913 1.9716287 2.58714134 3.97182015 3.8125 6 C6.05476332 9.07510399 7.64304607 10.32152304 11 12 C12.32 12.66 13.64 13.32 15 14 C10.05 14 5.1 14 0 14 C0 9.38 0 4.76 0 0 Z " fill="#F3F3F3" transform="translate(0,211)"/>
<path d="M0 0 C4.62 0 9.24 0 14 0 C14 4.95 14 9.9 14 15 C13.34 13.68 12.68 12.36 12 11 C8.95990756 5.38752166 5.70710966 3.35487534 0 1 C0 0.67 0 0.34 0 0 Z " fill="#F3F3F3" transform="translate(211,0)"/>
<path d="M0 0 C0.33 0 0.66 0 1 0 C1 4.62 1 9.24 1 14 C-3.62 14 -8.24 14 -13 14 C-10 12 -10 12 -7.0625 10.375 C-3.24760045 7.41650647 -1.80945617 4.38527025 0 0 Z " fill="#F5F5F5" transform="translate(224,211)"/>
<path d="M0 0 C4.29 0 8.58 0 13 0 C10.82987456 1.62759408 8.65215544 3.2460364 6.4375 4.8125 C3.67647838 7.29033992 2.46004309 9.61884757 1 13 C0.67 13 0.34 13 0 13 C0 8.71 0 4.42 0 0 Z " fill="#F8F8F8" transform="translate(0,0)"/>
</svg>
